SplineFontDB: 3.0
FontName: Cagliostro-Regular
FullName: Cagliostro Regular
FamilyName: Cagliostro
Weight: Regular
Copyright: Inspired by a design by Ozwald Bruce Cooper.
Version: 001.001
ItalicAngle: 0
UnderlinePosition: -50
UnderlineWidth: 50
Ascent: 800
Descent: 200
sfntRevision: 0x00010042
LayerCount: 2
Layer: 0 1 "Back"  1
Layer: 1 1 "Fore"  0
NeedsXUIDChange: 1
XUID: [1021 288 713564382 8445328]
FSType: 0
OS2Version: 2
OS2_WeightWidthSlopeOnly: 0
OS2_UseTypoMetrics: 1
CreationTime: 1322412516
ModificationTime: 1322441397
PfmFamily: 17
TTFWeight: 400
TTFWidth: 5
LineGap: 0
VLineGap: 0
Panose: 2 0 0 0 0 0 0 0 0 0
OS2TypoAscent: 198
OS2TypoAOffset: 1
OS2TypoDescent: -155
OS2TypoDOffset: 1
OS2TypoLinegap: 0
OS2WinAscent: 0
OS2WinAOffset: 1
OS2WinDescent: 0
OS2WinDOffset: 1
HheadAscent: 0
HheadAOffset: 1
HheadDescent: 0
HheadDOffset: 1
OS2SubXSize: 700
OS2SubYSize: 650
OS2SubXOff: 0
OS2SubYOff: 140
OS2SupXSize: 700
OS2SupYSize: 650
OS2SupXOff: 0
OS2SupYOff: 477
OS2StrikeYSize: 50
OS2StrikeYPos: 250
OS2Vendor: 'MADT'
OS2CodePages: 00000001.00000000
OS2UnicodeRanges: 8000006f.1000004a.00000000.00000000
Lookup: 258 0 0 "'kern' Horizontal Kerning in Latin lookup 0"  {"'kern' Horizontal Kerning in Latin lookup 0 subtable"  } ['kern' ('DFLT' <'dflt' > 'latn' <'dflt' > ) ]
MarkAttachClasses: 1
DEI: 91125
TtTable: prep
PUSHW_1
 511
SCANCTRL
PUSHB_1
 4
SCANTYPE
EndTTInstrs
LangName: 1033 "Copyright (c) 2011 Matthew Desmond (http://www.madtype.com | mattdesmond@gmail.com), with Reserved Font Name +ACIA-Cagliostro+ACIA" "" "" "MatthewDesmond: Cagliostro Regular: 2011" "Cagliostro-Regular" "Version " "" "Cagliostro is a trademark of Matthew Desmond." "Matthew Desmond" "Matthew Desmond" "Inspired by a design by Ozwald Bruce Cooper." "http://www.madtype.com" "http://www.madtype.com" "This Font Software is licensed under the SIL Open Font License, Version 1.1. This license is available with a FAQ at: http://scripts.sil.org/OFL" "http://scripts.sil.org/OFL" 
GaspTable: 1 65535 15

StartChar: exclam
Encoding: 33 33 1
Width: 294
Flags: HMW
HStem: -12 21G<138 167.5> 692 20G<134.5 169.5>
VStem: 66 162<47.5 81.5> 85 125<634 662.5 634 666.5>
LayerCount: 2
Fore
SplineSet
142 225 m 0,0,1
 122.254901961 225 122.254901961 225 117.5 273.5 c 0,2,3
 115 299 115 299 105.5 388.5 c 0,4,5
 85 581.631578947 85 581.631578947 85 641 c 0,6,7
 85 712 85 712 154 712 c 0,8,9
 210 712 210 712 210 634 c 1,10,11
 204 494 204 494 185 375 c 128,-1,12
 166 256 166 256 163 246 c 0,13,14
 157 225 157 225 142 225 c 0,0,1
140 132 m 1,15,16
 156 134 156 134 164 134 c 0,17,18
 228 134 228 134 228 72 c 0,19,20
 228 36 228 36 204 12 c 128,-1,21
 180 -12 180 -12 144 -12 c 0,22,23
 125 -12 125 -12 95.5 7.5 c 128,-1,24
 66 27 66 27 66 65 c 0,25,26
 66 88 66 88 89.5 107 c 128,-1,27
 113 126 113 126 140 132 c 1,15,16
EndSplineSet
EndChar

StartChar: quotedbl
Encoding: 34 34 2
Width: 423
Flags: HMW
HStem: 397 21G<120.5 129 292.5 301> 692 20G<110.5 147.5 282.5 319.5>
VStem: 66 119<653 677> 238 119<653 677>
LayerCount: 2
Fore
SplineSet
185 666 m 0,0,1
 185 637 185 637 171 533 c 128,-1,2
 157 429 157 429 144 402 c 1,3,4
 139 397 139 397 125 397 c 128,-1,5
 111 397 111 397 107 401 c 1,6,7
 94 422 94 422 80 522.5 c 128,-1,8
 66 623 66 623 66 658 c 0,9,10
 66 712 66 712 125.5 712 c 0,11,12
 185 712 185 712 185 666 c 0,0,1
357 666 m 0,13,14
 357 637 357 637 343 533 c 128,-1,15
 329 429 329 429 316 402 c 1,16,17
 311 397 311 397 297 397 c 128,-1,18
 283 397 283 397 279 401 c 1,19,20
 266 422 266 422 252 522.5 c 128,-1,21
 238 623 238 623 238 658 c 0,22,23
 238 712 238 712 297.5 712 c 0,24,25
 357 712 357 712 357 666 c 0,13,14
EndSplineSet
EndChar

StartChar: numbersign
Encoding: 35 35 3
Width: 698
Flags: HMW
HStem: -6 21G<401 430> 0 21G<199 220.5> 199 67<269 284 167.5 260 284 319 319 333.5> 432 66<555.5 579>
LayerCount: 2
Fore
SplineSet
448 -0.5 m 128,-1,1
 439 -6 439 -6 414 -6 c 128,-1,2
 389 -6 389 -6 389 23.4230769231 c 128,-1,3
 389 52.8461538462 389 52.8461538462 408 199 c 1,4,-1
 260 199 l 1,5,6
 256 163 256 163 248.5 107 c 128,-1,7
 241 51 241 51 239.5 38 c 128,-1,8
 238 25 238 25 236 18.5 c 0,9,10
 227.781818182 -8.20909090909 227.781818182 -8.20909090909 168 3 c 1,11,12
 169 14 169 14 170.5 37.5 c 0,13,14
 173.158227848 79.1455696203 173.158227848 79.1455696203 188 200 c 1,15,-1
 98 200 l 2,16,17
 83 200 83 200 83 202 c 0,18,19
 78 212 78 212 78 233 c 128,-1,20
 78 254 78 254 82.5 260 c 128,-1,21
 87 266 87 266 196 266 c 1,22,23
 209 383 209 383 216 432 c 1,24,25
 156 432 156 432 139.5 436 c 128,-1,26
 123 440 123 440 123 457 c 0,27,28
 123 490 123 490 129.5 494.5 c 128,-1,29
 136 499 136 499 154 499 c 2,30,-1
 223 499 l 1,31,-1
 228 533 l 2,32,33
 230 548 230 548 232 575 c 128,-1,34
 234 602 234 602 236.5 623 c 128,-1,35
 239 644 239 644 240 655 c 128,-1,36
 241 666 241 666 242 673 c 128,-1,37
 243 680 243 680 243 683 c 2,38,-1
 248 698 l 1,39,40
 258 703 258 703 282 703 c 128,-1,41
 306 703 306 703 309.375 699.875 c 128,-1,42
 312.75 696.75 312.75 696.75 312.75 670.625 c 128,-1,43
 312.75 644.5 312.75 644.5 297 499 c 1,44,-1
 443 498 l 1,45,46
 445 513 445 513 448 536 c 128,-1,47
 451 559 451 559 457.330007482 613.970067336 c 128,-1,48
 463.660014963 668.940134671 463.660014963 668.940134671 469.53658939 682.822557819 c 1,49,50
 478.082960293 699.513610085 478.082960293 699.513610085 496 700 c 0,51,52
 531 700 531 700 534.5 695 c 128,-1,53
 538 690 538 690 538.5 685.5 c 128,-1,54
 539 681 539 681 538 675.5 c 128,-1,55
 537 670 537 670 535.5 656.5 c 128,-1,56
 534 643 534 643 530.5 614.5 c 128,-1,57
 527 586 527 586 522.5 551.5 c 128,-1,58
 518 517 518 517 516 498 c 1,59,-1
 591 498 l 2,60,61
 610 498 610 498 615.5 489.5 c 128,-1,62
 621 481 621 481 621 461.5 c 128,-1,63
 621 442 621 442 607 437 c 128,-1,64
 593 432 593 432 561 432 c 128,-1,65
 529 432 529 432 508 433 c 1,66,67
 504 401 504 401 497 339 c 128,-1,68
 490 277 490 277 488 263 c 1,69,-1
 565 263 l 1,70,71
 578 262 578 262 584.5 261 c 128,-1,72
 591 260 591 260 597 254 c 128,-1,73
 603 248 603 248 603 232 c 128,-1,74
 603 216 603 216 600 200 c 1,75,-1
 531 199 l 1,76,-1
 480 199 l 1,77,78
 477 168 477 168 469.5 109 c 128,-1,79
 462 50 462 50 459.5 27.5 c 128,-1,0
 457 5 457 5 448 -0.5 c 128,-1,1
436 433 m 1,80,-1
 289 432 l 1,81,82
 288 419 288 419 285.5 401 c 128,-1,83
 283 383 283 383 282.5 376 c 128,-1,84
 282 369 282 369 277 330.5 c 128,-1,85
 272 292 272 292 269 266 c 1,86,-1
 319 266 l 1,87,-1
 416 265 l 1,88,89
 419 280 419 280 422.5 319 c 128,-1,90
 426 358 426 358 436 433 c 1,80,-1
EndSplineSet
EndChar

StartChar: dollar
Encoding: 36 36 4
Width: 487
Flags: HMW
HStem: -12 21G<120.5 136> 692 20G<297 307>
VStem: 72 98<477.5 570> 178 73 208 70 322 99<167.5 246>
LayerCount: 2
Fore
SplineSet
278 711 m 1,0,-1
 301 712 l 2,1,2
 321 712 321 712 354.5 707.5 c 128,-1,3
 388 703 388 703 390.5 696 c 128,-1,4
 393 689 393 689 393 680.1 c 128,-1,5
 393 671.2 393 671.2 387 653.6 c 128,-1,6
 381 636 381 636 370 631 c 1,7,8
 337 642 337 642 290.5 642 c 128,-1,9
 244 642 244 642 207 618.5 c 128,-1,10
 170 595 170 595 170 551.5 c 128,-1,11
 170 508 170 508 196 476 c 128,-1,12
 222 444 222 444 259 417.5 c 128,-1,13
 296 391 296 391 332.5 361.5 c 128,-1,14
 369 332 369 332 395 288 c 128,-1,15
 421 244 421 244 421 189 c 128,-1,16
 421 134 421 134 375.5 79 c 128,-1,17
 330 24 330 24 251 3 c 1,18,19
 246 -157 246 -157 235 -164 c 0,20,21
 223.571428571 -170.095238095 223.571428571 -170.095238095 214.357142857 -170.095238095 c 0,22,23
 181.663265306 -170.095238095 181.663265306 -170.095238095 178 -153 c 0,24,25
 177 -148.5 177 -148.5 177 -112.5 c 128,-1,26
 177 -76.5 177 -76.5 178 -9 c 1,27,28
 154 -12 154 -12 134 -12 c 128,-1,29
 114 -12 114 -12 101 -11 c 128,-1,30
 88 -10 88 -10 77 -8.5 c 128,-1,31
 66 -7 66 -7 56 -6 c 128,-1,32
 46 -5 46 -5 35 -3 c 0,33,34
 11 1.36363636364 11 1.36363636364 11 9 c 0,35,36
 11 62 11 62 30 74 c 1,37,38
 71 61 71 61 114 61 c 0,39,40
 322 61 322 61 322 180 c 0,41,42
 322 241.534246575 322 241.534246575 233.5 307 c 0,43,44
 197 334 197 334 160.5 363 c 128,-1,45
 124 392 124 392 98 435.5 c 128,-1,46
 72 479 72 479 72 533.5 c 128,-1,47
 72 588 72 588 109.5 631.5 c 128,-1,48
 147 675 147 675 208 696 c 1,49,50
 213 820 213 820 221 825 c 1,51,52
 227 826.8 227 826.8 235.6 826.8 c 0,53,54
 273.133333333 826.8 273.133333333 826.8 275.966666667 821.5 c 128,-1,55
 278.8 816.2 278.8 816.2 278.8 784 c 128,-1,56
 278.8 751.8 278.8 751.8 278 711 c 1,0,-1
EndSplineSet
EndChar

StartChar: percent
Encoding: 37 37 5
Width: 920
Flags: HMW
HStem: -12 65<661.5 716.5 661.5 725.5> 262 62<668 725.5> 376 65<216.5 271.5 216.5 280.5> 650 62<223 280.5>
VStem: 66 82<514.5 582.5 514.5 596> 336 73<518.5 575> 511 82<126.5 194.5 126.5 208> 781 73<130.5 187>
LayerCount: 2
Fore
SplineSet
373 290 m 128,-1,1
 395 324 395 324 442 398 c 128,-1,2
 489 472 489 472 574.5 592 c 128,-1,3
 660 712 660 712 673 712 c 128,-1,4
 686 712 686 712 708.5 689.5 c 2,5,-1
 716 682 l 1,6,7
 719 682 719 682 671 611 c 0,8,9
 503.774193548 363.64516129 503.774193548 363.64516129 476 320 c 0,10,11
 267 -12 267 -12 247 -12 c 0,12,13
 232 -12 232 -12 218.5 -1 c 128,-1,14
 205 10 205 10 205 15 c 128,-1,15
 205 20 205 20 208 26.5 c 128,-1,16
 211 33 211 33 217.5 44 c 128,-1,17
 224 55 224 55 231.5 68 c 128,-1,18
 239 81 239 81 251.5 100.5 c 128,-1,19
 264 120 264 120 275.5 138 c 128,-1,20
 287 156 287 156 304.5 183.5 c 128,-1,21
 322 211 322 211 336.5 233.5 c 128,-1,0
 351 256 351 256 373 290 c 128,-1,1
409 551 m 0,22,23
 409 475 409 475 357.5 425.5 c 128,-1,24
 306 376 306 376 233.5 376 c 128,-1,25
 161 376 161 376 113.5 421.5 c 128,-1,26
 66 467 66 467 66 545 c 128,-1,27
 66 623 66 623 116 667.5 c 128,-1,28
 166 712 166 712 255 712 c 0,29,30
 304.272727273 712 304.272727273 712 352 680.5 c 0,31,32
 377 664 377 664 393 630.5 c 128,-1,33
 409 597 409 597 409 551 c 0,22,23
310.5 471.5 m 128,-1,35
 336 502 336 502 336 547 c 128,-1,36
 336 592 336 592 314.5 621 c 128,-1,37
 293 650 293 650 250 650 c 128,-1,38
 207 650 207 650 177.5 623.5 c 128,-1,39
 148 597 148 597 148 548 c 128,-1,40
 148 499 148 499 175 470 c 128,-1,41
 202 441 202 441 243.5 441 c 128,-1,34
 285 441 285 441 310.5 471.5 c 128,-1,35
854 163 m 0,42,43
 854 87 854 87 802.5 37.5 c 128,-1,44
 751 -12 751 -12 678.5 -12 c 128,-1,45
 606 -12 606 -12 558.5 33.5 c 128,-1,46
 511 79 511 79 511 157 c 128,-1,47
 511 235 511 235 561 279.5 c 128,-1,48
 611 324 611 324 700 324 c 0,49,50
 749.272727273 324 749.272727273 324 797 292.5 c 0,51,52
 822 276 822 276 838 242.5 c 128,-1,53
 854 209 854 209 854 163 c 0,42,43
755.5 83.5 m 128,-1,55
 781 114 781 114 781 159 c 128,-1,56
 781 204 781 204 759.5 233 c 128,-1,57
 738 262 738 262 695 262 c 128,-1,58
 652 262 652 262 622.5 235.5 c 128,-1,59
 593 209 593 209 593 160 c 128,-1,60
 593 111 593 111 620 82 c 128,-1,61
 647 53 647 53 688.5 53 c 128,-1,54
 730 53 730 53 755.5 83.5 c 128,-1,55
EndSplineSet
EndChar

StartChar: ampersand
Encoding: 38 38 6
Width: 838
Flags: HMW
HStem: -12 92<358.5 449> 640 72<315 363 257 371.5> 925 73<615 622.5>
VStem: 82 92<232.5 281 232.5 281> 107 90<515 559> 154 69<422.5 424.5> 464 74<411 476> 649 80<224.5 289> 704 90<759 841>
LayerCount: 2
Fore
SplineSet
579 925 m 0,0,1
 563.458333333 925 563.458333333 925 563.458333333 953.503472222 c 0,2,3
 563.458333333 962.666666667 563.458333333 962.666666667 565.5 972 c 2,4,-1
 569 988 l 1,5,6
 595 998 595 998 625 998 c 0,7,8
 696 998 696 998 745 949.5 c 128,-1,9
 794 901 794 901 794 817 c 0,10,11
 794 761 794 761 767.5 712.5 c 128,-1,12
 741 664 741 664 703.5 630 c 128,-1,13
 666 596 666 596 628.5 566 c 0,14,15
 538 493.6 538 493.6 538 440 c 0,16,17
 538 410.209302326 538 410.209302326 587.5 401 c 0,18,19
 634.125 392.325581395 634.125 392.325581395 679.5 367 c 0,20,21
 701 355 701 355 715 326 c 128,-1,22
 729 297 729 297 729 255 c 0,23,24
 729 173 729 173 671 110 c 0,25,26
 561 -12 561 -12 394 -12 c 0,27,28
 327.333333333 -12 327.333333333 -12 267.166666667 7 c 128,-1,29
 207 26 207 26 171 51 c 128,-1,30
 135 76 135 76 108.5 124 c 128,-1,31
 82 172 82 172 82 223 c 128,-1,32
 82 274 82 274 100 306 c 128,-1,33
 118 338 118 338 136 362 c 128,-1,34
 154 386 154 386 154 403.5 c 128,-1,35
 154 421 154 421 130.5 454.5 c 128,-1,36
 107 488 107 488 107 520 c 128,-1,37
 107 552 107 552 120 583 c 128,-1,38
 133 614 133 614 159 644 c 128,-1,39
 185 674 185 674 234 693 c 128,-1,40
 283 712 283 712 331.5 712 c 128,-1,41
 380 712 380 712 415.5 701 c 128,-1,42
 451 690 451 690 451 669 c 0,43,44
 451 658 451 658 438.5 642 c 128,-1,45
 426 626 426 626 420 626 c 1,46,47
 386 640 386 640 357 640 c 0,48,49
 288 640 288 640 242.5 614 c 128,-1,50
 197 588 197 588 197 533 c 0,51,52
 197 516 197 516 210 485.5 c 128,-1,53
 223 455 223 455 223 431.5 c 128,-1,54
 223 408 223 408 201.317783476 367.515082869 c 128,-1,55
 179.635566951 327.030165737 179.635566951 327.030165737 176.995386539 311.296808467 c 128,-1,56
 174.355206127 295.563451197 174.355206127 295.563451197 174.177603063 268.781725598 c 128,-1,57
 174 242 174 242 185.5 208.5 c 128,-1,58
 197 175 197 175 223 145 c 128,-1,59
 249 115 249 115 297.5 97.5 c 128,-1,60
 346 80 346 80 395.5 80 c 128,-1,61
 445 80 445 80 484.5 91 c 128,-1,62
 524 102 524 102 561.5 123 c 128,-1,63
 599 144 599 144 624 180 c 128,-1,64
 649 216 649 216 649 259 c 128,-1,65
 649 302.032258065 649 302.032258065 620.5 319.5 c 0,66,67
 598.8 332.8 598.8 332.8 568.9 341.9 c 128,-1,68
 539 351 539 351 525.5 356.5 c 128,-1,69
 512 362 512 362 495.5 373 c 0,70,71
 464 394 464 394 464 448 c 0,72,73
 464 473.923076923 464 473.923076923 472.5 488.961538462 c 128,-1,74
 481 504 481 504 485 511.5 c 128,-1,75
 489 519 489 519 501 532.5 c 128,-1,76
 513 546 513 546 519 552 c 0,77,78
 542 575 542 575 558.5 591.5 c 128,-1,79
 575 608 575 608 601.5 632.5 c 128,-1,80
 628 657 628 657 641 671 c 128,-1,81
 654 685 654 685 671.5 708 c 0,82,83
 704 750.714285714 704 750.714285714 704 805.357142857 c 128,-1,84
 704 860 704 860 672.5 892.5 c 128,-1,85
 641 925 641 925 579 925 c 0,0,1
EndSplineSet
EndChar

StartChar: quotesingle
Encoding: 39 39 7
Width: 251
Flags: HMW
HStem: 397 21G<120.5 129> 692 20G<110.5 147.5>
VStem: 66 119<653 677>
LayerCount: 2
Fore
SplineSet
185 666 m 0,0,1
 185 637 185 637 171 533 c 128,-1,2
 157 429 157 429 144 402 c 1,3,4
 139 397 139 397 125 397 c 128,-1,5
 111 397 111 397 107 401 c 1,6,7
 94 422 94 422 80 522.5 c 128,-1,8
 66 623 66 623 66 658 c 0,9,10
 66 712 66 712 125.5 712 c 0,11,12
 185 712 185 712 185 666 c 0,0,1
EndSplineSet
EndChar

StartChar: parenleft
Encoding: 40 40 8
Width: 397
Flags: HMW
HStem: -262 21G<313.5 323.5> 718 20G<313.5 323.5>
VStem: 66 106<130 346 130 362.5>
LayerCount: 2
Fore
SplineSet
66 238 m 128,-1,1
 66 326 66 326 90 409 c 128,-1,2
 114 492 114 492 152 553.5 c 0,3,4
 223.234726688 668.78778135 223.234726688 668.78778135 296 727 c 0,5,6
 310 738 310 738 319 738 c 128,-1,7
 328 738 328 738 340.5 727.5 c 128,-1,8
 353 717 353 717 353 706.5 c 128,-1,9
 353 696 353 696 346 689 c 0,10,11
 274 616 274 616 223 500.5 c 128,-1,12
 172 385 172 385 172 238 c 128,-1,13
 172 91 172 91 223 -24.5 c 128,-1,14
 274 -140 274 -140 346 -213 c 0,15,16
 353 -220 353 -220 353 -230.5 c 128,-1,17
 353 -241 353 -241 340.5 -251.5 c 128,-1,18
 328 -262 328 -262 319 -262 c 128,-1,19
 310 -262 310 -262 285.5 -242.5 c 128,-1,20
 261 -223 261 -223 225.5 -181 c 128,-1,21
 190 -139 190 -139 152 -77.5 c 128,-1,22
 114 -16 114 -16 90 67 c 128,-1,0
 66 150 66 150 66 238 c 128,-1,1
EndSplineSet
EndChar

StartChar: parenright
Encoding: 41 41 9
Width: 397
Flags: HMW
HStem: -262 21G<73.5 83.5> 718 20G<73.5 83.5>
VStem: 225 106<130 346>
LayerCount: 2
Fore
SplineSet
331 238 m 128,-1,1
 331 150 331 150 307 67 c 128,-1,2
 283 -16 283 -16 245 -77.5 c 0,3,4
 173.765273312 -192.78778135 173.765273312 -192.78778135 101 -251 c 0,5,6
 87 -262 87 -262 78 -262 c 128,-1,7
 69 -262 69 -262 56.5 -251.5 c 128,-1,8
 44 -241 44 -241 44 -230.5 c 128,-1,9
 44 -220 44 -220 51 -213 c 0,10,11
 123 -140 123 -140 174 -24.5 c 128,-1,12
 225 91 225 91 225 238 c 128,-1,13
 225 385 225 385 174 500.5 c 128,-1,14
 123 616 123 616 51 689 c 0,15,16
 44 696 44 696 44 706.5 c 128,-1,17
 44 717 44 717 56.5 727.5 c 128,-1,18
 69 738 69 738 78 738 c 128,-1,19
 87 738 87 738 111.5 718.5 c 128,-1,20
 136 699 136 699 171.5 657 c 128,-1,21
 207 615 207 615 245 553.5 c 128,-1,22
 283 492 283 492 307 409 c 128,-1,0
 331 326 331 326 331 238 c 128,-1,1
EndSplineSet
EndChar

StartChar: asterisk
Encoding: 42 42 10
Width: 492
Flags: HMW
HStem: 346 21G<322.5 336.5> 692 20G<229 261>
LayerCount: 2
Fore
SplineSet
100 395 m 0,0,1
 100 414 100 414 190 504 c 1,2,3
 55 530 55 530 55 554 c 0,4,5
 55 582 55 582 66 598.5 c 128,-1,6
 77 615 77 615 85 615 c 128,-1,7
 93 615 93 615 95 614.5 c 128,-1,8
 97 614 97 614 148.5 588 c 128,-1,9
 200 562 200 562 207 562 c 0,10,11
 209 562 209 562 209 567 c 2,12,-1
 203 687 l 2,13,14
 203 701 203 701 212 706.5 c 128,-1,15
 221 712 221 712 244.5 712 c 128,-1,16
 268 712 268 712 276.5 707 c 128,-1,17
 285 702 285 702 286 688 c 1,18,-1
 286 682 l 1,19,20
 280 604 280 604 275.5 587 c 128,-1,21
 271 570 271 570 271 566 c 128,-1,22
 271 562 271 562 278 562 c 128,-1,23
 285 562 285 562 338 587.5 c 128,-1,24
 391 613 391 613 400 613 c 128,-1,25
 409 613 409 613 420 597 c 128,-1,26
 431 581 431 581 431 554 c 0,27,28
 431 541 431 541 414 533 c 1,29,30
 415.666666667 534.666666667 415.666666667 534.666666667 356.333333333 519.833333333 c 128,-1,31
 297 505 297 505 295 504 c 1,32,-1
 297 502 l 1,33,34
 382 405 382 405 382 393.5 c 128,-1,35
 382 382 382 382 361.5 364 c 128,-1,36
 341 346 341 346 328.5 346 c 128,-1,37
 316 346 316 346 309.5 355.5 c 128,-1,38
 303 365 303 365 287 393.5 c 0,39,40
 245.175438596 468 245.175438596 468 243 468 c 1,41,-1
 238 465 l 1,42,43
 220 429 220 429 193.5 390 c 128,-1,44
 167 351 167 351 155.5 351 c 128,-1,45
 144 351 144 351 122 367.5 c 128,-1,46
 100 384 100 384 100 395 c 0,0,1
EndSplineSet
EndChar

StartChar: plus
Encoding: 43 43 11
Width: 558
Flags: HMW
HStem: 107 21G<277 289> 291 74 531 20G<254.5 277.5>
VStem: 239 75
LayerCount: 2
Fore
SplineSet
311 278 m 1,0,-1
 314 174 l 1,1,-1
 314 127 l 2,2,3
 314 115 314 115 311 112 c 1,4,5
 301 107 301 107 276.5 107 c 128,-1,6
 252 107 252 107 243.5 112.5 c 128,-1,7
 235 118 235 118 235 290 c 1,8,-1
 192 290 l 2,9,10
 88.1333398314 290 88.1333398314 290 72.0666699157 294.953250387 c 128,-1,11
 56 299.906500773 56 299.906500773 56 320 c 0,12,13
 56 356 56 356 62 361 c 128,-1,14
 68 366 68 366 87 366 c 2,15,-1
 235 366 l 1,16,-1
 239 513 l 2,17,18
 239 527 239 527 240 533 c 128,-1,19
 241 539 241 539 248 545 c 128,-1,20
 255 551 255 551 273.75 551 c 128,-1,21
 292.5 551 292.5 551 309 548 c 1,22,23
 311 504 311 504 311 479 c 2,24,-1
 311 366 l 1,25,-1
 473 365 l 2,26,27
 492 365 492 365 497.5 356 c 128,-1,28
 503 347 503 347 503 324.5 c 128,-1,29
 503 302 503 302 488.5 296 c 128,-1,30
 474 290 474 290 443 290 c 2,31,-1
 357 291 l 1,32,-1
 311 291 l 1,33,-1
 311 278 l 1,0,-1
EndSplineSet
EndChar

StartChar: comma
Encoding: 44 44 12
Width: 299
Flags: HMW
HStem: -180 21G<128 148.5> 110 20G<121.5 169.5>
VStem: 66 167<18.5 60 -27 76> 148 85<-27 -24>
LayerCount: 2
Fore
SplineSet
143 -180 m 0,0,1
 122 -180 122 -180 108.5 -169 c 128,-1,2
 95 -158 95 -158 95 -146 c 0,3,4
 95 -144 95 -144 121.5 -109 c 128,-1,5
 148 -74 148 -74 148 -53 c 0,6,7
 148 -32 148 -32 135 -22 c 128,-1,8
 122 -12 122 -12 107 -6.5 c 128,-1,9
 92 -1 92 -1 79 15 c 128,-1,10
 66 31 66 31 66 58.5 c 0,11,12
 66 86 66 86 88.5 108 c 128,-1,13
 111 130 111 130 147 130 c 0,14,15
 183 130 183 130 208 102.5 c 128,-1,16
 233 75 233 75 233 26.5 c 0,17,18
 233 -22 233 -22 212.5 -73.5 c 128,-1,19
 192 -125 192 -125 171 -152.5 c 128,-1,20
 150 -180 150 -180 143 -180 c 0,0,1
EndSplineSet
EndChar

StartChar: hyphen
Encoding: 45 45 13
Width: 355
Flags: HMW
HStem: 217 21G<236 251.5> 218 83<69 211.5>
LayerCount: 2
Fore
SplineSet
190 301 m 1,0,-1
 271.5 303 l 2,1,2
 296.75 303 296.75 303 299 294 c 0,3,4
 299.533333333 291.866666667 299.533333333 291.866666667 299.533333333 284.733333333 c 128,-1,5
 299.533333333 277.6 299.533333333 277.6 294.766666667 250.3 c 128,-1,6
 290 223 290 223 284 221 c 0,7,8
 273 217 273 217 244 217 c 2,9,-1
 181 217.5 l 2,10,11
 118 218 118 218 71 218 c 0,12,13
 55 218 55 218 55 260.777777778 c 0,14,15
 55 271.333333333 55 271.333333333 56.5 285.666666667 c 128,-1,16
 58 300 58 300 69 300 c 2,17,-1
 190 301 l 1,0,-1
EndSplineSet
EndChar

StartChar: period
Encoding: 46 46 14
Width: 294
Flags: HMW
HStem: -14 21G<138 167.5> 112 20G<160.5 184.5>
VStem: 66 162<45.5 79.5>
LayerCount: 2
Fore
SplineSet
140 130 m 1,0,1
 156 132 156 132 164 132 c 0,2,3
 228 132 228 132 228 70 c 0,4,5
 228 34 228 34 204 10 c 128,-1,6
 180 -14 180 -14 144 -14 c 0,7,8
 125 -14 125 -14 95.5 5.5 c 128,-1,9
 66 25 66 25 66 63 c 0,10,11
 66 86 66 86 89.5 105 c 128,-1,12
 113 124 113 124 140 130 c 1,0,1
EndSplineSet
EndChar

StartChar: slash
Encoding: 47 47 15
Width: 386
Flags: HMW
HStem: -91 21G<66.5 93.5> 741 20G<291 312>
LayerCount: 2
Fore
SplineSet
143 322 m 0,0,1
 280 761 280 761 302 761 c 0,2,3
 316 761 316 761 339.518867925 752.308244463 c 128,-1,4
 363.037735849 743.616488925 363.037735849 743.616488925 363.037735849 739.585617658 c 0,5,6
 363.037735849 727.757861635 363.037735849 727.757861635 302.018867925 535.378930818 c 128,-1,7
 241 343 241 343 214 252.5 c 128,-1,8
 187 162 187 162 142 35.5 c 128,-1,9
 97 -91 97 -91 82 -91 c 0,10,11
 57 -91 57 -91 39.5 -83.5 c 128,-1,12
 22 -76 22 -76 22 -63 c 128,-1,13
 22 -50 22 -50 35.5 -8.5 c 128,-1,14
 49 33 49 33 81.5 131.5 c 128,-1,15
 114 230 114 230 143 322 c 0,0,1
EndSplineSet
EndChar

StartChar: zero
Encoding: 48 48 16
Width: 631
Flags: HMW
HStem: -12 81<271 379 271 392.5> 635 77<273.5 377.5>
VStem: 55 99<274 423.5> 496 80<275.5 439>
LayerCount: 2
Fore
SplineSet
83.5 167 m 128,-1,1
 55 246 55 246 55 327 c 128,-1,2
 55 408 55 408 68.5 469.5 c 128,-1,3
 82 531 82 531 111.5 587.5 c 128,-1,4
 141 644 141 644 196 678 c 128,-1,5
 251 712 251 712 326 712 c 0,6,7
 437 712 437 712 506.5 616.5 c 128,-1,8
 576 521 576 521 576 351 c 128,-1,9
 576 181 576 181 505 84.5 c 128,-1,10
 434 -12 434 -12 317 -12 c 0,11,12
 234 -12 234 -12 173 38 c 128,-1,0
 112 88 112 88 83.5 167 c 128,-1,1
200 561 m 128,-1,14
 154 487 154 487 154 358.5 c 128,-1,15
 154 230 154 230 200 149.5 c 128,-1,16
 246 69 246 69 325.5 69 c 128,-1,17
 405 69 405 69 450.5 149.5 c 128,-1,18
 496 230 496 230 496 354 c 128,-1,19
 496 478 496 478 448.5 556.5 c 128,-1,20
 401 635 401 635 331 635 c 0,21,13
 246 635 246 635 200 561 c 128,-1,14
EndSplineSet
EndChar

StartChar: one
Encoding: 49 49 17
Width: 271
Flags: HMW
HStem: 0 21G<120 158.5>
VStem: 90 93
LayerCount: 2
Fore
SplineSet
90 600 m 1,0,-1
 88 675 l 2,1,2
 88 685 88 685 89 691 c 1,3,4
 92 691 92 691 110.5 695.5 c 0,5,6
 139.962962963 702.666666667 139.962962963 702.666666667 150.314814815 702.666666667 c 128,-1,7
 160.666666667 702.666666667 160.666666667 702.666666667 168 700 c 1,8,9
 180.394250513 691.737166324 180.394250513 691.737166324 181.197125257 560.868583162 c 128,-1,10
 182 430 182 430 182 359 c 2,11,-1
 181 126 l 1,12,-1
 183 60 l 1,13,14
 183 0 183 0 142 0 c 0,15,16
 108 0 108 0 100 4.5 c 128,-1,17
 92 9 92 9 92 30 c 2,18,-1
 90 600 l 1,0,-1
EndSplineSet
EndChar

StartChar: two
Encoding: 50 50 18
Width: 466
Flags: HMW
HStem: 0 83<360 366 360 367> 626 86<177.5 215.5>
VStem: 291 91<468.5 543.5>
LayerCount: 2
Fore
SplineSet
360 83 m 1,0,-1
 403 88 l 1,1,2
 433 88 433 88 433 70 c 0,3,4
 433 29 433 29 418 14.5 c 128,-1,5
 403 0 403 0 367 0 c 2,6,-1
 78 0 l 2,7,8
 33.9389312977 0 33.9389312977 0 33.9389312977 6.96564885496 c 128,-1,9
 33.9389312977 13.9312977099 33.9389312977 13.9312977099 96.4694656489 108.465648855 c 128,-1,10
 159 203 159 203 225 325.5 c 128,-1,11
 291 448 291 448 291 504 c 128,-1,12
 291 560 291 560 261 593 c 128,-1,13
 231 626 231 626 186 626 c 128,-1,14
 141 626 141 626 61 590 c 0,15,16
 60 589 60 589 54 594.5 c 0,17,18
 37 610.083333333 37 610.083333333 37 633 c 0,19,20
 37 662 37 662 97.5 687 c 128,-1,21
 158 712 158 712 206 712 c 0,22,23
 293 712 293 712 337.5 666.5 c 128,-1,24
 382 621 382 621 382 548.5 c 128,-1,25
 382 476 382 476 339.5 386.5 c 128,-1,26
 297 297 297 297 233 199 c 128,-1,27
 169 101 169 101 161 85 c 1,28,29
 173 83 173 83 260.5 83 c 2,30,-1
 360 83 l 1,0,-1
EndSplineSet
EndChar

StartChar: three
Encoding: 51 51 19
Width: 444
Flags: HMW
HStem: -37 59 645 65<133.5 182.5>
VStem: 250 100<533 583> 279 99<143 242 122 242.5>
LayerCount: 2
Fore
SplineSet
86 -37 m 0,0,1
 66 -37 66 -37 52.4347826087 -22.5869565217 c 128,-1,2
 38.8695652174 -8.17391304348 38.8695652174 -8.17391304348 38.8695652174 3.10869565217 c 128,-1,3
 38.8695652174 14.3913043478 38.8695652174 14.3913043478 41 22 c 1,4,5
 279 30 279 30 279 208 c 0,6,7
 279 301 279 301 184 343 c 0,8,9
 144 361 144 361 143 371 c 1,10,11
 152 385 152 385 182.5 421 c 128,-1,12
 213 457 213 457 231.5 490 c 128,-1,13
 250 523 250 523 250 560 c 128,-1,14
 250 597 250 597 224 621 c 128,-1,15
 198 645 198 645 148 645 c 0,16,17
 131 645 131 645 91 635 c 128,-1,18
 51 625 51 625 45 625 c 128,-1,19
 39 625 39 625 26.5 634.5 c 128,-1,20
 14 644 14 644 14 654 c 0,21,22
 14 671 14 671 65.5 690.5 c 128,-1,23
 117 710 117 710 170 710 c 0,24,25
 252 710 252 710 301 676.5 c 128,-1,26
 350 643 350 643 350 584 c 0,27,28
 350 549 350 549 333 512.5 c 128,-1,29
 316 476 316 476 297 454.5 c 128,-1,30
 278 433 278 433 257 413 c 2,31,-1
 236 393 l 1,32,33
 236 386.714285714 236 386.714285714 244.5 381.857142857 c 128,-1,34
 253 377 253 377 259 374 c 0,35,36
 312.688073394 347.155963303 312.688073394 347.155963303 345.344036697 302.577981651 c 128,-1,37
 378 258 378 258 378 200 c 0,38,39
 378 89 378 89 293.5 28 c 128,-1,40
 209 -33 209 -33 86 -37 c 0,0,1
EndSplineSet
EndChar

StartChar: four
Encoding: 52 52 20
Width: 519
Flags: HMW
HStem: 0 21G<317 342> 314 64 695 20G<327.5 355.5>
VStem: 294 85 294 93
LayerCount: 2
Fore
SplineSet
387 696 m 1,0,1
 387 601 387 601 385 383 c 1,2,3
 389 378 389 378 407 378 c 2,4,-1
 431 378 l 2,5,6
 464 378 464 378 464 361 c 0,7,8
 464 317 464 317 457.5 313.5 c 128,-1,9
 451 310 451 310 432 310 c 128,-1,10
 413 310 413 310 397.5 309.5 c 128,-1,11
 382 309 382 309 382 304 c 2,12,-1
 383 193 l 2,13,14
 383 109 383 109 380 62.5 c 128,-1,15
 377 16 377 16 366 8 c 128,-1,16
 355 0 355 0 328.5 0 c 128,-1,17
 302 0 302 0 298 4 c 0,18,19
 292 10 292 10 292 62.5 c 2,20,-1
 292 80 l 2,21,22
 291.6 88.4 291.6 88.4 291.6 107.92 c 2,23,-1
 294 286 l 1,24,-1
 293 311 l 1,25,26
 266 313 266 313 210 313 c 2,27,-1
 67 314 l 2,28,29
 53 314 53 314 42 316.5 c 128,-1,30
 31 319 31 319 16.5 335.5 c 128,-1,31
 2 352 2 352 1.5 358.5 c 128,-1,32
 1 365 1 365 7.5 373.5 c 128,-1,33
 14 382 14 382 25.5 394 c 128,-1,34
 37 406 37 406 49 420.5 c 128,-1,35
 61 435 61 435 100.5 477 c 128,-1,36
 140 519 140 519 160 542 c 0,37,38
 309.621621622 715 309.621621622 715 349.498310811 715 c 128,-1,39
 389.375 715 389.375 715 387 696 c 1,0,1
188 379 m 1,40,-1
 262 377 l 2,41,42
 288 377 288 377 295 389 c 1,43,-1
 296 476 l 1,44,-1
 296 547 l 2,45,46
 296 558 296 558 297.5 586 c 128,-1,47
 299 614 299 614 298 614 c 0,48,49
 248 552 248 552 218 522 c 128,-1,50
 188 492 188 492 147.5 444.5 c 128,-1,51
 107 397 107 397 98 381 c 1,52,53
 107 379 107 379 188 379 c 1,40,-1
EndSplineSet
EndChar

StartChar: five
Encoding: 53 53 21
Width: 453
Flags: HMW
HStem: -38 62 606 94<150 274 216.5 274 216.5 315>
VStem: 289 98<163 264>
LayerCount: 2
Fore
SplineSet
68 415 m 1,0,-1
 71 469 l 1,1,2
 85 632 85 632 88.5832655212 659.749389691 c 128,-1,3
 92.1665310424 687.498779382 92.1665310424 687.498779382 102.526240919 692.213077275 c 0,4,5
 119.638070102 700 119.638070102 700 241.319035051 700 c 128,-1,6
 363 700 363 700 363 679 c 0,7,8
 363 606 363 606 315 606 c 2,9,-1
 150 606 l 1,10,11
 144.02247191 591.056179775 144.02247191 591.056179775 141.511235955 547.528089888 c 128,-1,12
 139 504 139 504 137.5 487 c 128,-1,13
 136 470 136 470 135 451 c 1,14,15
 137.361111111 448.638888889 137.361111111 448.638888889 176.180555556 442.319444444 c 128,-1,16
 215 436 215 436 223 434 c 0,17,18
 289 414 289 414 338 364.5 c 128,-1,19
 387 315 387 315 387 231 c 0,20,21
 387 129 387 129 299 45.5 c 128,-1,22
 211 -38 211 -38 104 -38 c 0,23,24
 66 -38 66 -38 66 24 c 1,25,26
 67.4827586207 23.9827586207 67.4827586207 23.9827586207 68.9603151011 23.9827586207 c 0,27,28
 153.181034483 23.9827586207 153.181034483 23.9827586207 221.090517241 80.4913793103 c 128,-1,29
 289 137 289 137 289 212 c 128,-1,30
 289 287 289 287 239 333.5 c 128,-1,31
 189 380 189 380 117 385 c 0,32,33
 113 385 113 385 104.5 384.5 c 128,-1,34
 96 384 96 384 91 384.5 c 128,-1,35
 86 385 86 385 80 387.5 c 0,36,37
 68 392.5 68 392.5 68 415 c 1,0,-1
EndSplineSet
EndChar

StartChar: six
Encoding: 54 54 22
Width: 547
Flags: HMW
HStem: -12 74<267.5 348 267.5 382> 323 74<295.5 354> 702 20G<312.5 323>
VStem: 66 97<328 361> 66 106<183.5 220.5 170.5 361> 438 76<156.5 228.5>
LayerCount: 2
Fore
SplineSet
303 719 m 0,0,1
 308 722 308 722 317.5 722 c 128,-1,2
 327 722 327 722 343.5 706 c 128,-1,3
 360 690 360 690 360 682 c 128,-1,4
 360 674 360 674 357 671 c 0,5,6
 163 501 163 501 163 328 c 1,7,8
 237 397 237 397 324 397 c 128,-1,9
 411 397 411 397 462.5 341.5 c 128,-1,10
 514 286 514 286 514 199 c 0,11,12
 514 124.808510638 514 124.808510638 467.5 60.5 c 0,13,14
 444 28 444 28 402 8 c 128,-1,15
 360 -12 360 -12 305 -12 c 0,16,17
 193 -12 193 -12 129.5 63.5 c 128,-1,18
 66 139 66 139 66 270.5 c 128,-1,19
 66 402 66 402 133.5 524 c 128,-1,20
 201 646 201 646 303 719 c 0,0,1
232 301.5 m 128,-1,22
 195 280 195 280 183.5 257.5 c 128,-1,23
 172 235 172 235 172 214 c 0,24,25
 172 148 172 148 209.5 105 c 128,-1,26
 247 62 247 62 306 62 c 128,-1,27
 365 62 365 62 401.5 100 c 128,-1,28
 438 138 438 138 438 194 c 128,-1,29
 438 250 438 250 405.5 286.5 c 128,-1,30
 373 323 373 323 311 323 c 0,31,21
 269 323 269 323 232 301.5 c 128,-1,22
EndSplineSet
EndChar

StartChar: seven
Encoding: 55 55 23
Width: 440
Flags: HMW
HStem: -22 21G<181.5 197.5> 606 94<37 234.5 164.5 234.5 164.5 299>
LayerCount: 2
Fore
SplineSet
299 606 m 1,0,-1
 145 605 l 2,1,2
 106 605 106 605 71 606 c 1,3,-1
 37 606 l 2,4,5
 21 606 21 606 16 612 c 128,-1,6
 11 618 11 618 11 652.5 c 128,-1,7
 11 687 11 687 17 691 c 0,8,9
 32 700 32 700 191 700 c 128,-1,10
 350 700 350 700 396 699 c 1,11,12
 386 637 386 637 336.5 445.5 c 128,-1,13
 287 254 287 254 271.5 204 c 0,14,15
 255.586666667 152.666666667 255.586666667 152.666666667 233.793333333 73.8333333333 c 128,-1,16
 212 -5 212 -5 206.5 -13.5 c 128,-1,17
 201 -22 201 -22 188.5 -22 c 128,-1,18
 176 -22 176 -22 142 -5 c 1,19,20
 142 13 142 13 159 79 c 1,21,22
 250.912152269 402.333821376 250.912152269 402.333821376 299 606 c 1,0,-1
EndSplineSet
EndChar

StartChar: eight
Encoding: 56 56 24
Width: 530
Flags: HMW
HStem: -12 67<232 297.5 232 315> 649 63<268 308>
VStem: 66 86 82 90<548.5 590 548.5 594> 369 76<522.5 579> 383 81<130 186 128.5 195.5>
LayerCount: 2
Fore
SplineSet
119.5 35.5 m 128,-1,1
 66 83 66 83 66 155.5 c 128,-1,2
 66 228 66 228 99 274.5 c 128,-1,3
 132 321 132 321 191 362 c 1,4,5
 145 396 145 396 118.5 434 c 128,-1,6
 92 472 92 472 82 541 c 1,7,8
 82 616 82 616 140 663 c 128,-1,9
 198 710 198 710 268 712 c 1,10,11
 346 712 346 712 395.5 673 c 128,-1,12
 445 634 445 634 445 562 c 0,13,14
 445 506 445 506 412.5 459.5 c 128,-1,15
 380 413 380 413 330 383 c 1,16,17
 334 380 334 380 339 377.5 c 128,-1,18
 344 375 344 375 349 372 c 0,19,20
 462 294 462 294 464 186 c 1,21,22
 464 100 464 100 404.5 44 c 128,-1,23
 345 -12 345 -12 259 -12 c 128,-1,0
 173 -12 173 -12 119.5 35.5 c 128,-1,1
243 324 m 1,24,-1
 215 302 l 1,25,26
 154 249 154 249 152 183 c 1,27,28
 153 121 153 121 183.5 88 c 128,-1,29
 214 55 214 55 264 55 c 128,-1,30
 314 55 314 55 348.5 85.5 c 128,-1,31
 383 116 383 116 383 159 c 0,32,33
 383 249 383 249 243 324 c 1,24,-1
280 419 m 1,34,35
 311 445 311 445 324 457.5 c 128,-1,36
 337 470 337 470 353 497 c 128,-1,37
 369 524 369 524 369 559 c 128,-1,38
 369 594 369 594 345 621.5 c 128,-1,39
 321 649 321 649 276.5 649 c 128,-1,40
 232 649 232 649 202 626 c 128,-1,41
 172 603 172 603 172 564 c 128,-1,42
 172 525 172 525 187.5 501 c 128,-1,43
 203 477 203 477 235 449 c 128,-1,44
 267 421 267 421 280 419 c 1,34,35
EndSplineSet
EndChar

StartChar: nine
Encoding: 57 57 25
Width: 547
Flags: HMW
HStem: -22 21G<224 234.5> 303 74<193 251.5> 638 74<199 279.5>
VStem: 33 76<471.5 543.5 471.5 545.5> 375 106<479.5 516.5 339 529.5> 384 97<339 372>
LayerCount: 2
Fore
SplineSet
244 -19 m 0,0,1
 240 -22 240 -22 230 -22 c 128,-1,2
 220 -22 220 -22 203.5 -6 c 128,-1,3
 187 10 187 10 187 18 c 128,-1,4
 187 26 187 26 190 29 c 0,5,6
 384 199 384 199 384 372 c 1,7,8
 310 303 310 303 223 303 c 128,-1,9
 136 303 136 303 84.5 358.5 c 128,-1,10
 33 414 33 414 33 501 c 0,11,12
 33 575.191489362 33 575.191489362 79.5 639.5 c 0,13,14
 103 672 103 672 145 692 c 128,-1,15
 187 712 187 712 242 712 c 0,16,17
 354 712 354 712 417.5 636.5 c 128,-1,18
 481 561 481 561 481 429.5 c 128,-1,19
 481 298 481 298 413.5 176 c 128,-1,20
 346 54 346 54 244 -19 c 0,0,1
315 398.5 m 128,-1,22
 352 420 352 420 363.5 442.5 c 128,-1,23
 375 465 375 465 375 486 c 0,24,25
 375 552 375 552 337.5 595 c 128,-1,26
 300 638 300 638 241 638 c 128,-1,27
 182 638 182 638 145.5 600 c 128,-1,28
 109 562 109 562 109 506 c 128,-1,29
 109 450 109 450 141.5 413.5 c 128,-1,30
 174 377 174 377 236 377 c 0,31,21
 278 377 278 377 315 398.5 c 128,-1,22
EndSplineSet
EndChar

StartChar: colon
Encoding: 58 58 26
Width: 316
Flags: HMW
HStem: -12 144<170.5 179> 132 167<170.5 178.5 149 201.5> 425 20G<171.5 195.5>
VStem: 77 161 85 153<41.5 75>
LayerCount: 2
Fore
SplineSet
148 127 m 1,0,1
 159 132 159 132 185.5 132 c 0,2,3
 238 132 238 132 238 71 c 0,4,5
 238 -12 238 -12 154 -12 c 0,6,7
 123 -12 123 -12 104 5.5 c 128,-1,8
 85 23 85 23 85 53.5 c 128,-1,9
 85 84 85 84 102.5 103.5 c 128,-1,10
 120 123 120 123 148 127 c 1,0,1
151 443 m 1,11,12
 167 445 167 445 175 445 c 0,13,14
 239 445 239 445 239 383 c 0,15,16
 239 347 239 347 215 323 c 128,-1,17
 191 299 191 299 155 299 c 0,18,19
 136 299 136 299 106.5 318.5 c 128,-1,20
 77 338 77 338 77 376 c 0,21,22
 77 399 77 399 100.5 418 c 128,-1,23
 124 437 124 437 151 443 c 1,11,12
EndSplineSet
EndChar

StartChar: semicolon
Encoding: 59 59 27
Width: 329
Flags: HMW
HStem: -180 21G<147 167.5> 130 169<149 178.5 149 188.5> 425 20G<171.5 195.5>
VStem: 77 162<358.5 392.5> 85 167<18.5 60 -27 76> 167 85<-27 -24>
LayerCount: 2
Fore
SplineSet
151 443 m 1,0,1
 167 445 167 445 175 445 c 0,2,3
 239 445 239 445 239 383 c 0,4,5
 239 347 239 347 215 323 c 128,-1,6
 191 299 191 299 155 299 c 0,7,8
 136 299 136 299 106.5 318.5 c 128,-1,9
 77 338 77 338 77 376 c 0,10,11
 77 399 77 399 100.5 418 c 128,-1,12
 124 437 124 437 151 443 c 1,0,1
162 -180 m 0,13,14
 141 -180 141 -180 127.5 -169 c 128,-1,15
 114 -158 114 -158 114 -146 c 0,16,17
 114 -144 114 -144 140.5 -109 c 128,-1,18
 167 -74 167 -74 167 -53 c 0,19,20
 167 -32 167 -32 154 -22 c 128,-1,21
 141 -12 141 -12 126 -6.5 c 128,-1,22
 111 -1 111 -1 98 15 c 128,-1,23
 85 31 85 31 85 58.5 c 0,24,25
 85 86 85 86 107.5 108 c 128,-1,26
 130 130 130 130 166 130 c 0,27,28
 202 130 202 130 227 102.5 c 128,-1,29
 252 75 252 75 252 26.5 c 0,30,31
 252 -22 252 -22 231.5 -73.5 c 128,-1,32
 211 -125 211 -125 190 -152.5 c 128,-1,33
 169 -180 169 -180 162 -180 c 0,13,14
EndSplineSet
EndChar

StartChar: less
Encoding: 60 60 28
Width: 577
Flags: HW
LayerCount: 2
Fore
SplineSet
74 280 m 0,0,1
 55 291 55 291 55 328 c 128,-1,2
 55 365 55 365 74 376 c 0,3,4
 128 408 128 408 176 430 c 128,-1,5
 224 452 224 452 278 478 c 128,-1,6
 332 504 332 504 343.5 509 c 128,-1,7
 355 514 355 514 409 539.5 c 128,-1,8
 463 565 463 565 472 567.25 c 128,-1,9
 481 569.5 481 569.5 486.5 569.5 c 0,10,11
 505.269230769 569.5 505.269230769 569.5 512 552 c 1,12,13
 522.083333333 532.75 522.083333333 532.75 522.083333333 519.629901961 c 128,-1,14
 522.083333333 506.509803922 522.083333333 506.509803922 504 498 c 2,15,-1
 368 434 l 1,16,17
 318 409 318 409 243 378 c 128,-1,18
 168 347 168 347 161 344 c 128,-1,19
 154 341 154 341 149.5 339.5 c 128,-1,20
 145 338 145 338 141 336 c 0,21,22
 133 332 133 332 133 328.5 c 128,-1,23
 133 325 133 325 137.5 322 c 128,-1,24
 142 319 142 319 156 313.5 c 128,-1,25
 170 308 170 308 188 299.5 c 128,-1,26
 206 291 206 291 314.5 244 c 128,-1,27
 423 197 423 197 504 160 c 0,28,29
 522.083333333 151.490196078 522.083333333 151.490196078 522.083333333 137.370098039 c 128,-1,30
 522.083333333 123.25 522.083333333 123.25 514.541666667 107.125 c 128,-1,31
 507 91 507 91 499.5 88.75 c 128,-1,32
 492 86.5 492 86.5 486.5 86.5 c 0,33,34
 466 86.5 466 86.5 349 145 c 1,35,36
 295 168 295 168 226 199.5 c 128,-1,37
 157 231 157 231 74 280 c 0,0,1
EndSplineSet
EndChar

StartChar: equal
Encoding: 61 61 29
Width: 605
Flags: HMW
HStem: 192 76 384 75<458.5 486>
LayerCount: 2
Fore
SplineSet
248 195 m 1,0,-1
 145 192 l 1,1,-1
 98 192 l 2,2,3
 83 192 83 192 83 195 c 1,4,5
 78 205 78 205 78 230 c 128,-1,6
 78 255 78 255 83 261 c 1,7,8
 89 271 89 271 283 271 c 1,9,-1
 484 268 l 2,10,11
 497 267 497 267 503.5 266 c 128,-1,12
 510 265 510 265 516 258 c 128,-1,13
 522 251 522 251 522 232.5 c 128,-1,14
 522 214 522 214 519 197 c 1,15,16
 453 194 453 194 437 194 c 0,17,18
 385 194 385 194 333 194 c 2,19,-1
 258 195 l 1,20,-1
 248 195 l 1,0,-1
382 385 m 1,21,-1
 217 384 l 2,22,23
 113.133339831 384 113.133339831 384 97.0666699157 388.953250387 c 128,-1,24
 81 393.906500773 81 393.906500773 81 414 c 0,25,26
 81 450 81 450 87 455 c 128,-1,27
 93 460 93 460 112 460 c 2,28,-1
 498 459 l 2,29,30
 517 459 517 459 522.5 450 c 128,-1,31
 528 441 528 441 528 418.5 c 128,-1,32
 528 396 528 396 513.5 390 c 128,-1,33
 499 384 499 384 468 384 c 2,34,-1
 382 385 l 1,21,-1
EndSplineSet
EndChar

StartChar: greater
Encoding: 62 62 30
Width: 577
Flags: HW
LayerCount: 2
Fore
SplineSet
503 376 m 0,0,1
 522 365 522 365 522 328 c 128,-1,2
 522 291 522 291 503 280 c 0,3,4
 420 231 420 231 351 199.5 c 128,-1,5
 282 168 282 168 252 155 c 128,-1,6
 222 142 222 142 168 116.5 c 128,-1,7
 114 91 114 91 105 88.75 c 128,-1,8
 96 86.5 96 86.5 90.5 86.5 c 0,9,10
 71.7307692308 86.5 71.7307692308 86.5 65 104 c 1,11,12
 54.9166666667 123.25 54.9166666667 123.25 54.9166666667 137.370098039 c 128,-1,13
 54.9166666667 151.490196078 54.9166666667 151.490196078 73 160 c 0,14,15
 154 197 154 197 262.5 244 c 128,-1,16
 371 291 371 291 389 299.5 c 128,-1,17
 407 308 407 308 421 313.5 c 0,18,19
 444 322.535714286 444 322.535714286 444 328 c 0,20,21
 444 334 444 334 433.5 337.5 c 128,-1,22
 423 341 423 341 416 344 c 128,-1,23
 409 347 409 347 363 366 c 128,-1,24
 317 385 317 385 303.5 391 c 0,25,26
 227 425 227 425 209 434 c 2,27,-1
 73 498 l 2,28,29
 54.9166666667 506.509803922 54.9166666667 506.509803922 54.9166666667 519.629901961 c 128,-1,30
 54.9166666667 532.75 54.9166666667 532.75 62.4583333333 548.875 c 128,-1,31
 70 565 70 565 77.5 567.25 c 128,-1,32
 85 569.5 85 569.5 90.5 569.5 c 0,33,34
 111 569.5 111 569.5 228 511 c 1,35,36
 245 504 245 504 299 478 c 128,-1,37
 353 452 353 452 401 430 c 128,-1,38
 449 408 449 408 503 376 c 0,0,1
EndSplineSet
EndChar

StartChar: question
Encoding: 63 63 31
Width: 468
Flags: HMW
HStem: -12 21G<189 218.5> 644 68<171.5 225>
VStem: 117 162<47.5 81.5> 141 74<340.5 366.5 307 413> 298 115<513 588.5>
LayerCount: 2
Fore
SplineSet
215 318 m 1,0,-1
 218 253 l 1,1,2
 218 225 218 225 192 225 c 0,3,4
 176 225 176 225 170 242 c 0,5,6
 141 314 141 314 141 352 c 128,-1,7
 141 390 141 390 157 412 c 128,-1,8
 173 434 173 434 196 448.5 c 128,-1,9
 219 463 219 463 242.5 478 c 0,10,11
 298 513.425531915 298 513.425531915 298 564 c 0,12,13
 298 601 298 601 270 622.5 c 128,-1,14
 242 644 242 644 196.5 644 c 128,-1,15
 151 644 151 644 114.5 626.5 c 128,-1,16
 78 609 78 609 77 609 c 0,17,18
 70 609 70 609 62.5 621.5 c 128,-1,19
 55 634 55 634 55 645 c 0,20,21
 55 673 55 673 103 692.5 c 128,-1,22
 151 712 151 712 209 712 c 0,23,24
 297 712 297 712 355 674.5 c 128,-1,25
 413 637 413 637 413 561 c 0,26,27
 413 517 413 517 392.5 484.5 c 128,-1,28
 372 452 372 452 343 434 c 128,-1,29
 314 416 314 416 285 400.5 c 0,30,31
 215 363.086206897 215 363.086206897 215 318 c 1,0,-1
191 132 m 1,32,33
 207 134 207 134 215 134 c 0,34,35
 279 134 279 134 279 72 c 0,36,37
 279 36 279 36 255 12 c 128,-1,38
 231 -12 231 -12 195 -12 c 0,39,40
 176 -12 176 -12 146.5 7.5 c 128,-1,41
 117 27 117 27 117 65 c 0,42,43
 117 88 117 88 140.5 107 c 128,-1,44
 164 126 164 126 191 132 c 1,32,33
EndSplineSet
EndChar

StartChar: at
Encoding: 64 64 32
Width: 987
Flags: HMW
HStem: -182 61<353.5 511 353.5 516.5> 659 53<478 677>
VStem: 66 98<86 283.5 86 337> 273 84<156.5 195.5 156.5 241.5> 835 86<364.5 497.5>
LayerCount: 2
Fore
SplineSet
577 61 m 0,0,1
 570 61 570 61 554 63 c 1,2,3
 555 142 555 142 596 280 c 1,4,5
 589 280 589 280 564.5 251.5 c 128,-1,6
 540 223 540 223 504.5 180 c 128,-1,7
 469 137 469 137 445 114 c 0,8,9
 392 61 392 61 347 61 c 0,10,11
 314 61 314 61 293.5 85.5 c 128,-1,12
 273 110 273 110 273 151 c 0,13,14
 273 287 273 287 379.5 390 c 128,-1,15
 486 493 486 493 628 493 c 0,16,17
 685 493 685 493 686 469 c 0,18,19
 686 459 686 459 681 448 c 1,20,21
 597 439 597 439 535.5 412.5 c 0,22,23
 429.303635977 366.740591112 429.303635977 366.740591112 378.5 254.5 c 0,24,25
 357 207 357 207 357 168.5 c 128,-1,26
 357 130 357 130 384.5 130 c 128,-1,27
 412 130 412 130 464 190 c 128,-1,28
 516 250 516 250 561.5 311.5 c 128,-1,29
 607 373 607 373 617.5 387.5 c 128,-1,30
 628 402 628 402 634.5 411 c 128,-1,31
 641 420 641 420 652 429 c 128,-1,32
 663 438 663 438 672 438 c 0,33,34
 695 438 695 438 695 417 c 0,35,36
 695 407 695 407 680 320.5 c 128,-1,37
 665 234 665 234 637 123 c 1,38,39
 690 139 690 139 736.5 188 c 128,-1,40
 783 237 783 237 809 301 c 128,-1,41
 835 365 835 365 835 426 c 0,42,43
 835 535 835 535 774 597 c 128,-1,44
 713 659 713 659 609 659 c 128,-1,45
 505 659 505 659 421 615 c 128,-1,46
 337 571 337 571 282 500 c 128,-1,47
 227 429 227 429 195.5 342.5 c 128,-1,48
 164 256 164 256 164 169 c 0,49,50
 164 40 164 40 237.5 -40.5 c 128,-1,51
 311 -121 311 -121 452.5 -121 c 128,-1,52
 594 -121 594 -121 705 -33 c 0,53,54
 710 -30 710 -30 718 -30 c 128,-1,55
 726 -30 726 -30 737 -40 c 128,-1,56
 748 -50 748 -50 748 -60 c 0,57,58
 748 -75 748 -75 707 -103 c 128,-1,59
 666 -131 666 -131 587.5 -156.5 c 128,-1,60
 509 -182 509 -182 427 -182 c 0,61,62
 257 -182 257 -182 161.5 -82.5 c 128,-1,63
 66 17 66 17 66 189 c 0,64,65
 66 332 66 332 146.5 454 c 128,-1,66
 227 576 227 576 352.5 644 c 128,-1,67
 478 712 478 712 618.5 712 c 128,-1,68
 759 712 759 712 840 640 c 128,-1,69
 921 568 921 568 921 439 c 0,70,71
 921 367 921 367 890.5 297.5 c 128,-1,72
 860 228 860 228 811 177.5 c 128,-1,73
 762 127 762 127 700 95.5 c 128,-1,74
 638 64 638 64 577 61 c 0,0,1
EndSplineSet
EndChar

StartChar: A
Encoding: 65 65 33
Width: 832
Flags: HMW
HStem: -12 21G<64 85.5 738.5 754.5> 312 68<531 532> 688 20G<456 483.5>
LayerCount: 2
Fore
SplineSet
439.03125 309.75 m 2,0,-1
 265 311 l 1,1,2
 158 117 158 117 145 96 c 128,-1,3
 132 75 132 75 120 49 c 0,4,5
 91.8461538462 -12 91.8461538462 -12 74 -12 c 0,6,7
 31 -12 31 -12 13 8 c 0,8,9
 11.6666666667 9.66666666667 11.6666666667 9.66666666667 11.6666666667 13.6666666667 c 128,-1,10
 11.6666666667 17.6666666667 11.6666666667 17.6666666667 18.3333333333 29.3333333333 c 128,-1,11
 25 41 25 41 39.5 61 c 128,-1,12
 54 81 54 81 59 89 c 0,13,14
 179 302 179 302 276.5 467.5 c 128,-1,15
 374 633 374 633 387.5 658.5 c 128,-1,16
 401 684 401 684 411 697 c 1,17,18
 429 708 429 708 452.5 708 c 128,-1,19
 476 708 476 708 483 706 c 128,-1,20
 490 704 490 704 495 698.5 c 128,-1,21
 500 693 500 693 502.5 689 c 128,-1,22
 505 685 505 685 510 674 c 128,-1,23
 515 663 515 663 526 639 c 128,-1,24
 537 615 537 615 597 500.5 c 128,-1,25
 657 386 657 386 677 341 c 128,-1,26
 697 296 697 296 716 252.5 c 0,27,28
 756.142857143 160.593984962 756.142857143 160.593984962 788.571428571 103.296992481 c 128,-1,29
 821 46 821 46 821 28 c 0,30,31
 821 17 821 17 790.5 2.5 c 128,-1,32
 760 -12 760 -12 748 -12 c 0,33,34
 727 -12 727 -12 709 42 c 1,35,-1
 690.5 80.5 l 2,36,37
 671 121 671 121 639 187.5 c 128,-1,38
 607 254 607 254 578 313 c 1,39,40
 555 312 555 312 531 312 c 1,41,42
 508.5 309.75 508.5 309.75 439.03125 309.75 c 2,0,-1
303 379 m 1,43,-1
 412 380 l 1,44,-1
 546 380 l 1,45,46
 536 400 536 400 522.5 430 c 128,-1,47
 509 460 509 460 506.5 464.5 c 128,-1,48
 504 469 504 469 499 480 c 128,-1,49
 494 491 494 491 489 501 c 128,-1,50
 484 511 484 511 477.5 525 c 128,-1,51
 471 539 471 539 465 550.5 c 128,-1,52
 459 562 459 562 453 572.5 c 0,53,54
 440.142857143 595 440.142857143 595 435.071428571 595 c 128,-1,55
 430 595 430 595 422 584.5 c 128,-1,56
 414 574 414 574 403.5 557 c 128,-1,57
 393 540 393 540 384 523.5 c 0,58,59
 357 474 357 474 352.5 467 c 128,-1,60
 348 460 348 460 341.5 448 c 128,-1,61
 335 436 335 436 323.5 416 c 128,-1,62
 312 396 312 396 303 379 c 1,43,-1
EndSplineSet
EndChar

StartChar: B
Encoding: 66 66 34
Width: 618
Flags: HMW
HStem: -2 56<228.5 254.5> 325 53<248 265 230 328> 625 76<205 221 221 279.5>
VStem: 90 100<65 674> 434 85<485.5 554> 474 100<174 223.5>
LayerCount: 2
Fore
SplineSet
89 100 m 1,0,-1
 90 162 l 1,1,-1
 90 674 l 2,2,3
 90 701 90 701 200 701 c 2,4,-1
 221 701 l 2,5,6
 354 701 354 701 436.5 653.5 c 128,-1,7
 519 606 519 606 519 521 c 0,8,9
 519 482.714285714 519 482.714285714 510 465.357142857 c 128,-1,10
 501 448 501 448 497.5 440.5 c 128,-1,11
 494 433 494 433 480.5 420.5 c 128,-1,12
 467 408 467 408 464.5 405 c 128,-1,13
 462 402 462 402 444 388 c 128,-1,14
 426 374 426 374 424 373 c 1,15,16
 493 347 493 347 533.5 309 c 128,-1,17
 574 271 574 271 574 216 c 128,-1,18
 574 161 574 161 547.5 118.5 c 128,-1,19
 521 76 521 76 488 53 c 0,20,21
 407 -2 407 -2 208 -2 c 0,22,23
 110 -2 110 -2 97 14 c 0,24,25
 89 24.6666666667 89 24.6666666667 89 100 c 1,0,-1
255 325 m 1,26,-1
 222 326 l 2,27,28
 199 326 199 326 193.5 320.5 c 128,-1,29
 188 315 188 315 188 293 c 2,30,-1
 190 75 l 2,31,32
 190 61 190 61 202.5 57.5 c 128,-1,33
 215 54 215 54 248 54 c 0,34,35
 353 54 353 54 413.5 86.5 c 128,-1,36
 474 119 474 119 474 183 c 128,-1,37
 474 247 474 247 418 286 c 128,-1,38
 362 325 362 325 255 325 c 1,26,-1
187.25 593.375 m 2,39,-1
 188 561 l 1,40,41
 188 410 188 410 190 380 c 1,42,43
 220 378 220 378 238 378 c 0,44,45
 334 378 334 378 384 414 c 128,-1,46
 434 450 434 450 434 510.5 c 128,-1,47
 434 571 434 571 375.5 598 c 128,-1,48
 317 625 317 625 232 625 c 0,49,50
 215.333333333 625 215.333333333 625 197 619.5 c 0,51,52
 187.25 616.575 187.25 616.575 187.25 593.375 c 2,39,-1
EndSplineSet
EndChar

StartChar: C
Encoding: 67 67 35
Width: 719
Flags: HMW
HStem: -12 85 634 78<467.5 477 357 506.5>
VStem: 55 111<288.5 358 288.5 440>
LayerCount: 2
Fore
SplineSet
592 694 m 128,-1,1
 660 677 660 677 660 664.5 c 128,-1,2
 660 652 660 652 649 632.5 c 128,-1,3
 638 613 638 613 633 611 c 1,4,5
 624 611 624 611 576 624 c 1,6,7
 511 634 511 634 492 634 c 0,8,9
 401 634 401 634 350 614 c 0,10,11
 311.391304348 599.52173913 311.391304348 599.52173913 276.695652174 572.260869565 c 128,-1,12
 242 545 242 545 221 518.5 c 128,-1,13
 200 492 200 492 183.5 449.5 c 128,-1,14
 167 407 167 407 166 358 c 1,15,16
 166 244 166 244 245 161.5 c 128,-1,17
 324 79 324 79 478 73 c 1,18,19
 528 73 528 73 625 92 c 1,20,21
 661 104 661 104 667 104 c 1,22,23
 675 101 675 101 680.5 89.5 c 128,-1,24
 686 78 686 78 686 67 c 0,25,26
 686 43 686 43 614.5 16.5 c 128,-1,27
 543 -10 543 -10 460 -12 c 1,28,29
 346.379322389 -9.89591337758 346.379322389 -9.89591337758 242.5 43.5 c 0,30,31
 126.298 103.23 126.298 103.23 80.5 206.5 c 0,32,33
 55 264 55 264 55 331 c 0,34,35
 55 494 55 494 176 603 c 128,-1,36
 297 712 297 712 477 712 c 1,37,0
 524 711 524 711 592 694 c 128,-1,1
EndSplineSet
EndChar

StartChar: D
Encoding: 68 68 36
Width: 766
Flags: HMW
HStem: 1 73<189 189> 615 85
VStem: 91 98 603 108<294.5 429.5>
LayerCount: 2
Fore
SplineSet
88 200 m 1,0,-1
 92 519.5 l 1,1,-1
 92 599.5 l 2,2,3
 92 691 92 691 102 695.5 c 128,-1,4
 112 700 112 700 214 700 c 0,5,6
 439 700 439 700 566 624 c 0,7,8
 711 538 711 538 711 358 c 0,9,10
 711 265 711 265 662.5 186.5 c 128,-1,11
 614 108 614 108 532 60 c 1,12,13
 425.492063492 0.936507936508 425.492063492 0.936507936508 203.669690098 0.936507936508 c 0,14,15
 196.396825397 0.936507936508 196.396825397 0.936507936508 189 1 c 2,16,-1
 147.5 0 l 2,17,18
 120.4 0 120.4 0 113.2 3 c 128,-1,19
 106 6 106 6 100 9.5 c 0,20,21
 88 16.5 88 16.5 88 36 c 2,22,-1
 89 87 l 1,23,-1
 88 200 l 1,0,-1
190 517 m 2,24,25
 190 216 190 216 189 74 c 1,26,27
 194.893238434 73.9430604982 194.893238434 73.9430604982 200.702587353 73.9430604982 c 0,28,29
 603 73.9430604982 603 73.9430604982 603 347 c 0,30,31
 603 567 603 567 365 610 c 0,32,33
 323.523809524 618.047619048 323.523809524 618.047619048 277.952380952 618.047619048 c 128,-1,34
 232.380952381 618.047619048 232.380952381 618.047619048 192 615 c 1,35,36
 190 611 190 611 190 576 c 2,37,-1
 190 517 l 2,24,25
EndSplineSet
EndChar

StartChar: E
Encoding: 69 69 37
Width: 570
Flags: HMW
HStem: 0 72<160 396> 339 73 628 71<310 443>
VStem: 92 99<411 505.5>
LayerCount: 2
Fore
SplineSet
458 626 m 2,0,-1
 335 628 l 1,1,2
 233 628 233 628 193 621 c 1,3,4
 191 553 191 553 191 411 c 1,5,-1
 362 412 l 1,6,-1
 378.512535413 412.040371707 l 2,7,8
 475 412.040371707 475 412.040371707 475 396.520185853 c 128,-1,9
 475 381 475 381 468 362.5 c 128,-1,10
 461 344 461 344 452 341 c 128,-1,11
 443 338 443 338 414 338 c 2,12,-1
 193 339 l 1,13,14
 192 310 192 310 192 293 c 2,15,-1
 191 211.5 l 1,16,-1
 191 156.5 l 2,17,18
 191 90 191 90 194 84 c 0,19,20
 200 72 200 72 380 72 c 0,21,22
 442 72 442 72 469 75 c 1,23,-1
 511 83 l 1,24,25
 526 83 526 83 526 73.5 c 128,-1,26
 526 64 526 64 517 43 c 1,27,28
 507 9 507 9 503 6 c 0,29,30
 492 0 492 0 343 0 c 2,31,-1
 160 0 l 2,32,33
 106 0 106 0 97.5 7.5 c 128,-1,34
 89 15 89 15 89 136 c 1,35,-1
 92 493 l 1,36,-1
 93 574 l 1,37,-1
 92 649 l 2,38,39
 92 683 92 683 97.5 689 c 0,40,41
 105.75 698 105.75 698 155.5 698 c 2,42,-1
 297 700 l 1,43,-1
 429 699 l 2,44,45
 476.026614154 699 476.026614154 699 481.013307077 693.506351003 c 128,-1,46
 486 688.012702006 486 688.012702006 486 683 c 2,47,-1
 482 659 l 2,48,49
 481 654 481 654 481 647.5 c 128,-1,50
 481 641 481 641 480.5 638 c 128,-1,51
 480 635 480 635 478 631.5 c 0,52,53
 474.857142857 626 474.857142857 626 458 626 c 2,0,-1
EndSplineSet
EndChar

StartChar: F
Encoding: 70 70 38
Width: 520
Flags: HMW
HStem: -2 21G<105 144> 333 74<320.5 326.5> 624 76<188 284>
VStem: 94 92
LayerCount: 2
Fore
SplineSet
362 625 m 1,0,-1
 239 624 l 1,1,-1
 213.5 623.5 l 2,2,3
 188 623 188 623 188 624 c 1,4,5
 187 606 187 606 187 584 c 2,6,-1
 188 496 l 1,7,-1
 187 435 l 2,8,9
 187 416 187 416 188 406 c 1,10,-1
 349 407 l 2,11,12
 377.5 407 377.5 407 398.75 407 c 128,-1,13
 420 407 420 407 431 405.5 c 128,-1,14
 442 404 442 404 452 402.5 c 0,15,16
 473 399.35 473 399.35 473 390.175 c 128,-1,17
 473 381 473 381 465.5 365 c 128,-1,18
 458 349 458 349 454 343 c 128,-1,19
 450 337 450 337 439.5 334.5 c 128,-1,20
 429 332 429 332 426.5 332 c 2,21,-1
 404 332 l 1,22,-1
 315 333 l 1,23,24
 222 333 222 333 187 335 c 1,25,26
 185.4 308.6 185.4 308.6 185.4 259.16 c 2,27,-1
 185.666666667 190.555555556 l 2,28,29
 185.666666667 151.666666667 185.666666667 151.666666667 185 127 c 2,30,-1
 185 72 l 1,31,-1
 186 21 l 2,32,33
 186 6 186 6 172.5 2 c 128,-1,34
 159 -2 159 -2 134.5 -2 c 128,-1,35
 110 -2 110 -2 103 0 c 128,-1,36
 96 2 96 2 93 9.5 c 0,37,38
 89 19.5 89 19.5 89 41 c 2,39,-1
 89 288 l 2,40,41
 89 523 89 523 92 569.5 c 128,-1,42
 95 616 95 616 95 637 c 0,43,44
 95 682 95 682 100 687 c 128,-1,45
 105 692 105 692 117.5 694 c 128,-1,46
 130 696 130 696 148 697 c 128,-1,47
 166 698 166 698 182.5 698.5 c 128,-1,48
 199 699 199 699 216.5 699 c 2,49,-1
 240 699 l 1,50,-1
 263 700 l 1,51,52
 477 700 477 700 487 692 c 1,53,54
 487 682 487 682 480 656.5 c 128,-1,55
 473 631 473 631 467 627.5 c 128,-1,56
 461 624 461 624 439 624 c 2,57,-1
 362 625 l 1,0,-1
EndSplineSet
EndChar

StartChar: G
Encoding: 71 71 39
Width: 806
Flags: HMW
HStem: -13 65<387 478> 642 70<448 486>
VStem: 55 112<260.5 437 260.5 457> 634 101<237.5 328>
LayerCount: 2
Fore
SplineSet
633 165 m 1,0,-1
 634 307 l 2,1,2
 634 337 634 337 642 343.5 c 128,-1,3
 650 350 650 350 688 350 c 128,-1,4
 726 350 726 350 730.5 346 c 128,-1,5
 735 342 735 342 735 185.5 c 128,-1,6
 735 29 735 29 730 25.7 c 128,-1,7
 725 22.4 725 22.4 695.788888889 22.4 c 128,-1,8
 666.577777778 22.4 666.577777778 22.4 639 37 c 1,9,10
 606 18 606 18 549.5 2.5 c 128,-1,11
 493 -13 493 -13 439 -13 c 0,12,13
 336 -13 336 -13 250.5 25 c 128,-1,14
 165 63 165 63 110 143 c 128,-1,15
 55 223 55 223 55 337.5 c 128,-1,16
 55 452 55 452 113 540.5 c 128,-1,17
 171 629 171 629 263 670.5 c 128,-1,18
 355 712 355 712 467 712 c 0,19,20
 516 712 516 712 577.5 699.5 c 128,-1,21
 639 687 639 687 644 670 c 0,22,23
 644.153846154 666.769230769 644.153846154 666.769230769 644.153846154 656.692307692 c 128,-1,24
 644.153846154 646.615384615 644.153846154 646.615384615 639.076923077 632.307692308 c 128,-1,25
 634 618 634 618 625 618 c 128,-1,26
 616 618 616 618 601.5 622.5 c 2,27,-1
 587 627 l 1,28,29
 532 642 532 642 470 642 c 128,-1,30
 408 642 408 642 373.5 630.5 c 128,-1,31
 339 619 339 619 309 601 c 128,-1,32
 279 583 279 583 244.5 550 c 128,-1,33
 210 517 210 517 188.5 463 c 128,-1,34
 167 409 167 409 167 342 c 0,35,36
 167 220 167 220 255.5 136 c 128,-1,37
 344 52 344 52 474 52 c 0,38,39
 531 52 531 52 581.5 68 c 128,-1,40
 632 84 632 84 632 100 c 2,41,-1
 633 165 l 1,0,-1
EndSplineSet
EndChar

StartChar: H
Encoding: 72 72 40
Width: 808
Flags: HMW
HStem: -1 21G<637 666.5> 0 21G<111 120> 346 66 680 20G<140.5 160 684 693.5> 681 20G<638.5 661.5>
VStem: 90 104 100 94 627 88
LayerCount: 2
Fore
SplineSet
689 700 m 1,0,-1
 718 698 l 1,1,2
 720 622 720 622 720 398.5 c 128,-1,3
 720 175 720 175 717 124.5 c 128,-1,4
 714 74 714 74 714 56.5 c 0,5,6
 714 21 714 21 707 10 c 128,-1,7
 700 -1 700 -1 665.5 -1 c 128,-1,8
 631 -1 631 -1 627.5 4.5 c 128,-1,9
 624 10 624 10 624 32 c 2,10,-1
 624 85 l 1,11,-1
 625.5 292.125 l 2,12,13
 625.5 325 625.5 325 625 348 c 1,14,-1
 318 346 l 2,15,16
 271 346 271 346 193 348 c 1,17,-1
 193 158 l 1,18,-1
 193.761015693 63.1031941382 l 1,19,20
 191.308130712 12.3884105577 191.308130712 12.3884105577 183.154065356 6.19420527885 c 128,-1,21
 175 0 175 0 140.5 0 c 128,-1,22
 106 0 106 0 97 3 c 1,23,24
 89 51 89 51 89 109 c 2,25,-1
 90 221 l 1,26,27
 90 375 90 375 100 699 c 1,28,29
 114 700 114 700 138.5 700 c 128,-1,30
 163 700 163 700 171 699 c 128,-1,31
 179 698 179 698 186.5 692.5 c 128,-1,32
 194 687 194 687 194 676 c 2,33,-1
 193 632 l 1,34,-1
 193 581 l 2,35,36
 193 426 193 426 194 410 c 1,37,-1
 565 412 l 1,38,-1
 616 410 l 2,39,40
 624 410 624 410 625.5 412.5 c 128,-1,41
 627 415 627 415 627 425 c 2,42,-1
 627 653 l 1,43,44
 628 659 628 659 628 669 c 128,-1,45
 628 679 628 679 628.5 683 c 128,-1,46
 629 687 629 687 631.5 692 c 0,47,48
 636 701 636 701 656 701 c 2,49,-1
 689 700 l 1,0,-1
EndSplineSet
EndChar

StartChar: I
Encoding: 73 73 41
Width: 280
Flags: HMW
HStem: 0 21G<117.5 169>
VStem: 91 100<50.5 65 65 70.5 632 657.5>
LayerCount: 2
Fore
SplineSet
92.5 567.75 m 1,0,-1
 91 650 l 2,1,2
 91 690 91 690 95 698 c 0,3,4
 97 700 97 700 114 700 c 128,-1,5
 131 700 131 700 144 700 c 2,6,-1
 164 700 l 2,7,8
 184.714285714 700 184.714285714 700 187.857142857 694.5 c 128,-1,9
 191 689 191 689 191 683 c 2,10,-1
 191 441 l 1,11,-1
 192 283 l 1,12,-1
 191 174 l 1,13,-1
 191 65 l 2,14,15
 191 58 191 58 191.5 45.5 c 128,-1,16
 192 33 192 33 191.5 29.5 c 128,-1,17
 191 26 191 26 189.5 18.5 c 128,-1,18
 188 11 188 11 185 9.5 c 128,-1,19
 182 8 182 8 175.5 4.5 c 0,20,21
 167.142857143 -2.22044604925e-15 167.142857143 -2.22044604925e-15 136.571428571 -1.11022302463e-15 c 128,-1,22
 106 0 106 0 97.5 3.5 c 128,-1,23
 89 7 89 7 89 22 c 2,24,-1
 91 55 l 1,25,-1
 90 164 l 1,26,-1
 89 295 l 2,27,28
 88.4285714286 317.571428571 88.4285714286 317.571428571 88.4285714286 347.408163265 c 2,29,-1
 92.5 567.75 l 1,0,-1
EndSplineSet
EndChar

StartChar: J
Encoding: 74 74 42
Width: 278
Flags: HMW
HStem: -262 67<-25 6 -25 79.5> 680 20G<139.5 158>
VStem: 91 99
LayerCount: 2
Fore
SplineSet
88 448 m 2,0,1
 88 540 88 540 89.5 566.5 c 128,-1,2
 91 593 91 593 91.5 620 c 0,3,4
 92.7547169811 687.754716981 92.7547169811 687.754716981 98.8773584906 693.877358491 c 128,-1,5
 105 700 105 700 142 700 c 128,-1,6
 179 700 179 700 182 697 c 0,7,8
 190 689 190 689 190 575 c 2,9,-1
 190 7 l 2,10,11
 190 -120.571428571 190 -120.571428571 139 -191 c 0,12,13
 118 -220 118 -220 78.5 -241 c 128,-1,14
 39 -262 39 -262 -3.5 -262 c 0,15,16
 -89 -262 -89 -262 -89 -232 c 128,-1,17
 -89 -202 -89 -202 -74 -190 c 1,18,19
 -34 -195 -34 -195 -16 -195 c 0,20,21
 25 -195 25 -195 56 -168.5 c 128,-1,22
 87 -142 87 -142 87 -79 c 2,23,-1
 88 448 l 2,0,1
EndSplineSet
EndChar

StartChar: K
Encoding: 75 75 43
Width: 651
Flags: HMW
HStem: -12 21G<575.5 592.5> 0 21G<115 165.5> 692 20G<530 543.5>
VStem: 88 104
LayerCount: 2
Fore
SplineSet
92 65 m 2,0,-1
 88 503 l 1,1,2
 88 639 88 639 92 693 c 0,3,4
 93 701 93 701 134.164885889 701 c 128,-1,5
 175.329771778 701 175.329771778 701 181.664885889 695.875878499 c 128,-1,6
 188 690.751756997 188 690.751756997 188 680 c 0,7,8
 188 468 188 468 192 395 c 1,9,10
 214.129032258 410.806451613 214.129032258 410.806451613 331.064516129 522.903225806 c 128,-1,11
 448 635 448 635 472 657.5 c 128,-1,12
 496 680 496 680 503 687.5 c 128,-1,13
 510 695 510 695 515 699.5 c 0,14,15
 528.888888889 712 528.888888889 712 537.944444444 712 c 128,-1,16
 547 712 547 712 561 697.5 c 128,-1,17
 575 683 575 683 575 676 c 128,-1,18
 575 669 575 669 569 662 c 128,-1,19
 563 655 563 655 553 645.5 c 128,-1,20
 543 636 543 636 540 633 c 0,21,22
 447 535 447 535 301 398 c 1,23,24
 271 372 271 372 271 366.5 c 128,-1,25
 271 361 271 361 281 354 c 128,-1,26
 291 347 291 347 305 338.5 c 128,-1,27
 319 330 319 330 334.5 318 c 128,-1,28
 350 306 350 306 402.5 260.5 c 128,-1,29
 455 215 455 215 469 204 c 0,30,31
 640 61 640 61 640 38 c 0,32,33
 640 27 640 27 618 7.5 c 128,-1,34
 596 -12 596 -12 587 -12 c 128,-1,35
 578 -12 578 -12 570 -8 c 128,-1,36
 562 -4 562 -4 557 0.5 c 0,37,38
 533.666666667 21.5 533.666666667 21.5 529 25 c 1,39,-1
 530 25 l 1,40,-1
 482.5 65.5 l 2,41,42
 435 106 435 106 363 167 c 128,-1,43
 291 228 291 228 268 248 c 128,-1,44
 245 268 245 268 237 275 c 128,-1,45
 229 282 229 282 224.5 286.5 c 0,46,47
 212.4 298.6 212.4 298.6 197 303 c 1,48,49
 190.5 299.1 190.5 299.1 190.5 238.875 c 2,50,51
 192 136 l 1,52,-1
 196 49 l 1,53,54
 196 18 196 18 186.5 9 c 128,-1,55
 177 0 177 0 149.5 0 c 128,-1,56
 122 0 122 0 111.5 3.5 c 128,-1,57
 101 7 101 7 97 19 c 0,58,59
 92 34 92 34 92 65 c 2,0,-1
EndSplineSet
EndChar

StartChar: L
Encoding: 76 76 44
Width: 543
Flags: HMW
HStem: 0 21G<467.5 493> 1 74 680 20G<125 142 142 148> 681 20G<166 179.5>
VStem: 93 98
LayerCount: 2
Fore
SplineSet
190 465 m 1,0,-1
 191 271 l 2,1,2
 191 171 191 171 188 84 c 1,3,4
 206 76 206 76 237.5 76 c 2,5,-1
 276 76 l 1,6,7
 348 74 348 74 371 74 c 2,8,-1
 448 75 l 1,9,-1
 519 84 l 1,10,11
 532 84 532 84 532 63.5 c 128,-1,12
 532 43 532 43 515 21.5 c 128,-1,13
 498 0 498 0 488 0 c 2,14,-1
 307 1 l 1,15,-1
 170 1 l 2,16,17
 107 1 107 1 98 9 c 0,18,19
 88 19 88 19 88 192.5 c 1,20,-1
 90 417 l 1,21,-1
 93 634 l 2,22,23
 93 675 93 675 98.5 687.5 c 128,-1,24
 104 700 104 700 125 700 c 2,25,-1
 142 700 l 1,26,-1
 171 701 l 2,27,28
 192 701 192 701 192 664 c 2,29,-1
 192 529 l 1,30,-1
 190 465 l 1,0,-1
EndSplineSet
EndChar

StartChar: M
Encoding: 77 77 45
Width: 985
Flags: HMW
HStem: -2 21G<93.5 102 824 836> 685 20G<199.5 214>
VStem: 84 76
LayerCount: 2
Fore
SplineSet
214 705 m 1,0,-1
 223.5 704 l 2,1,2
 225 704 225 704 227 702 c 128,-1,3
 229 700 229 700 230 699.5 c 128,-1,4
 231 699 231 699 233 696 c 128,-1,5
 235 693 235 693 235.5 691.5 c 128,-1,6
 236 690 236 690 238.5 685.5 c 0,7,8
 257.949152542 650.491525424 257.949152542 650.491525424 356 461 c 1,9,10
 389 403 389 403 407 364.5 c 128,-1,11
 425 326 425 326 442 291 c 128,-1,12
 459 256 459 256 472 231 c 128,-1,13
 485 206 485 206 489 206 c 128,-1,14
 493 206 493 206 497.5 210.5 c 128,-1,15
 502 215 502 215 507.5 222.5 c 128,-1,16
 513 230 513 230 517 236.5 c 128,-1,17
 521 243 521 243 526 252 c 128,-1,18
 531 261 531 261 552 296 c 128,-1,19
 573 331 573 331 644.5 457.5 c 128,-1,20
 716 584 716 584 749 640 c 1,21,-1
 779 695 l 1,22,23
 788 701 788 701 811 701.5 c 128,-1,24
 834 702 834 702 840 695 c 1,25,26
 846.8 670.52 846.8 670.52 850.9 614.76 c 128,-1,27
 855 559 855 559 856.5 543.5 c 128,-1,28
 858 528 858 528 879.5 320 c 0,29,30
 906.75 56.3720930233 906.75 56.3720930233 906.75 33.8110465116 c 128,-1,31
 906.75 11.25 906.75 11.25 898.875 5.125 c 128,-1,32
 891 -1 891 -1 836 -2 c 0,33,34
 806 -2 806 -2 804 71 c 0,35,36
 804 84 804 84 787.5 295 c 128,-1,37
 771 506 771 506 768 532 c 1,38,39
 751 504 751 504 683.5 386.5 c 128,-1,40
 616 269 616 269 597.5 240 c 128,-1,41
 579 211 579 211 550 161.5 c 128,-1,42
 521 112 521 112 501 82.5 c 128,-1,43
 481 53 481 53 473 53 c 128,-1,44
 465 53 465 53 450.5 75.5 c 128,-1,45
 436 98 436 98 428 117 c 128,-1,46
 420 136 420 136 371.5 232.5 c 128,-1,47
 323 329 323 329 268 436 c 128,-1,48
 213 543 213 543 208 554 c 1,49,50
 208 549 208 549 193.5 410.5 c 128,-1,51
 179 272 179 272 174 215 c 128,-1,52
 169 158 169 158 160 55 c 0,53,54
 157 17 157 17 147.5 8.5 c 128,-1,55
 138 0 138 0 113 -1 c 128,-1,56
 88 -2 88 -2 83 1 c 128,-1,57
 78 4 78 4 77.5 15 c 128,-1,58
 77 26 77 26 80.5 47 c 128,-1,59
 84 68 84 68 88.5 118.5 c 128,-1,60
 93 169 93 169 114 341.5 c 128,-1,61
 135 514 135 514 139 552.5 c 128,-1,62
 143 591 143 591 150 629.5 c 128,-1,63
 157 668 157 668 157.5 679.5 c 128,-1,64
 158 691 158 691 175 698 c 128,-1,65
 192 705 192 705 214 705 c 1,0,-1
EndSplineSet
EndChar

StartChar: N
Encoding: 78 78 46
Width: 869
Flags: HMW
HStem: -10 21G<717.5 748> -3 21G<101 128> 688 20G<106 134.5>
VStem: 88 72<23.5 34.5 34.5 56 18.5 77.5> 94 66 704 66 704 77
LayerCount: 2
Fore
SplineSet
90 220 m 1,0,-1
 89 343 l 1,1,2
 94 575 94 575 94 608.5 c 128,-1,3
 94 642 94 642 93 658 c 128,-1,4
 92 674 92 674 93 679.5 c 128,-1,5
 94 685 94 685 97 693.5 c 0,6,7
 102.117647059 708 102.117647059 708 129 708 c 0,8,9
 143 708 143 708 173 676 c 1,10,11
 215 637 215 637 269 581 c 128,-1,12
 323 525 323 525 339 510.5 c 128,-1,13
 355 496 355 496 519.5 328.5 c 128,-1,14
 684 161 684 161 698 146 c 1,15,16
 703 186 703 186 703 242 c 2,17,-1
 704 368 l 2,18,19
 704 476 704 476 708 696 c 1,20,21
 757 703 757 703 765 703 c 128,-1,22
 773 703 773 703 777 698.5 c 128,-1,23
 781 694 781 694 781 674 c 2,24,-1
 775 361 l 1,25,26
 775 228 775 228 771 96 c 2,27,-1
 770 55 l 2,28,29
 770 15 770 15 763 2.5 c 128,-1,30
 756 -10 756 -10 731 -10 c 0,31,32
 715.411764706 -10 715.411764706 -10 700.705882353 2.5 c 128,-1,33
 686 15 686 15 679 21.5 c 128,-1,34
 672 28 672 28 662 39 c 128,-1,35
 652 50 652 50 648 54 c 2,36,-1
 546.5 157.5 l 2,37,38
 292.75 416.25 292.75 416.25 246.375 462.625 c 128,-1,39
 200 509 200 509 195 515.5 c 128,-1,40
 190 522 190 522 186.5 525.5 c 0,41,42
 176 536 176 536 167 536 c 0,43,44
 161 536 161 536 161 517 c 2,45,-1
 163 343 l 1,46,-1
 160 56 l 1,47,-1
 160 31 l 2,48,49
 160 -3 160 -3 112 -3 c 0,50,51
 96 -3 96 -3 92 5 c 128,-1,52
 88 13 88 13 88 42 c 2,53,-1
 90 220 l 1,0,-1
EndSplineSet
EndChar

StartChar: O
Encoding: 79 79 47
Width: 854
Flags: HMW
HStem: -12 83<350 514 350 526> 633 79<372 522.5>
VStem: 55 111<272 392.5> 709 90<275.5 439>
LayerCount: 2
Fore
SplineSet
55 341 m 0,0,1
 55 400 55 400 76 463 c 128,-1,2
 97 526 97 526 126.5 565.5 c 128,-1,3
 156 605 156 605 197 638.5 c 128,-1,4
 238 672 238 672 302 692 c 128,-1,5
 366 712 366 712 444 712 c 0,6,7
 594 712 594 712 696.5 618.5 c 128,-1,8
 799 525 799 525 799 360.5 c 128,-1,9
 799 196 799 196 690 92 c 128,-1,10
 581 -12 581 -12 427.5 -12 c 128,-1,11
 274 -12 274 -12 164.5 87 c 128,-1,12
 55 186 55 186 55 341 c 0,0,1
247 558 m 128,-1,14
 166 483 166 483 166 356 c 128,-1,15
 166 229 166 229 238.5 150 c 128,-1,16
 311 71 311 71 433.5 71 c 128,-1,17
 556 71 556 71 632.5 151.5 c 128,-1,18
 709 232 709 232 709 354 c 128,-1,19
 709 476 709 476 633.5 554.5 c 128,-1,20
 558 633 558 633 455 633 c 0,21,13
 328 633 328 633 247 558 c 128,-1,14
EndSplineSet
EndChar

StartChar: P
Encoding: 80 80 48
Width: 573
Flags: HMW
HStem: -1 21G<106 148.5> 622 78<122 267.5>
VStem: 88 102<47 134.5 47 540> 423 95<452.5 518>
LayerCount: 2
Fore
SplineSet
88 540 m 1,0,-1
 89 617 l 2,1,2
 89 668 89 668 99.5 684 c 128,-1,3
 110 700 110 700 147 700 c 0,4,5
 306 700 306 700 374 673 c 0,6,7
 518 617 518 617 518 474 c 0,8,9
 518 443 518 443 505.5 404 c 128,-1,10
 493 365 493 365 479 343 c 0,11,12
 449 298 449 298 398.5 264 c 128,-1,13
 348 230 348 230 283 230 c 0,14,15
 254 230 254 230 254 254 c 0,16,17
 254 267 254 267 256 279 c 1,18,19
 423 326 423 326 423 457 c 0,20,21
 423 622 423 622 203 622 c 0,22,23
 193 622 193 622 190 615.5 c 128,-1,24
 187 609 187 609 187 593 c 2,25,-1
 187 474 l 1,26,-1
 190 86 l 2,27,28
 190 29 190 29 177 14 c 128,-1,29
 164 -1 164 -1 132 -1 c 128,-1,30
 100 -1 100 -1 94 8.5 c 128,-1,31
 88 18 88 18 88 42 c 2,32,-1
 88 540 l 1,0,-1
EndSplineSet
EndChar

StartChar: Q
Encoding: 81 81 49
Width: 854
Flags: HMW
HStem: -176 21G<844 848> 633 79<372 522.5>
VStem: 55 111<341 389.5> 709 90<279.5 439>
LayerCount: 2
Fore
SplineSet
589 23 m 0,0,1
 585 21 585 21 578.5 19 c 128,-1,2
 572 17 572 17 566.5 15 c 128,-1,3
 561 13 561 13 555.5 11 c 128,-1,4
 550 9 550 9 547 7.5 c 128,-1,5
 544 6 544 6 545 3.5 c 128,-1,6
 546 1 546 1 564 -9.5 c 128,-1,7
 582 -20 582 -20 605.5 -29 c 128,-1,8
 629 -38 629 -38 713.5 -65.5 c 128,-1,9
 798 -93 798 -93 837 -100 c 128,-1,10
 876 -107 876 -107 876 -117 c 0,11,12
 876 -129 876 -129 863 -152.5 c 128,-1,13
 850 -176 850 -176 844 -176 c 1,14,15
 839 -175 839 -175 825.5 -172 c 128,-1,16
 812 -169 812 -169 790.5 -165.5 c 128,-1,17
 769 -162 769 -162 690.5 -138 c 128,-1,18
 612 -114 612 -114 583.5 -102.5 c 128,-1,19
 555 -91 555 -91 507 -67 c 0,20,21
 403.909090909 -15.4545454545 403.909090909 -15.4545454545 345 -4 c 0,22,23
 221 21 221 21 138.5 114 c 128,-1,24
 56 207 56 207 55 341 c 0,25,26
 55 396.551724138 55 396.551724138 76 460.275862069 c 128,-1,27
 97 524 97 524 126.5 563.5 c 128,-1,28
 156 603 156 603 197 637 c 128,-1,29
 238 671 238 671 302 691.5 c 128,-1,30
 366 712 366 712 444 712 c 0,31,32
 594 712 594 712 696.5 618.5 c 128,-1,33
 799 525 799 525 799 358 c 0,34,35
 799 243 799 243 742 155 c 128,-1,36
 685 67 685 67 589 23 c 0,0,1
247 558 m 128,-1,38
 166 483 166 483 166 356 c 128,-1,39
 166 229 166 229 238.5 150 c 128,-1,40
 311 71 311 71 433.5 71 c 128,-1,41
 556 71 556 71 632.5 151.5 c 128,-1,42
 709 232 709 232 709 354 c 128,-1,43
 709 476 709 476 633.5 554.5 c 128,-1,44
 558 633 558 633 455 633 c 0,45,37
 328 633 328 633 247 558 c 128,-1,38
EndSplineSet
EndChar

StartChar: R
Encoding: 82 82 50
Width: 615
Flags: HMW
HStem: 0 21G<95 96> 627 73<209 270>
VStem: 90 101 414 96<436 510>
LayerCount: 2
Fore
SplineSet
143 -2 m 2,0,-1
 110.5 -1 l 2,1,2
 104 -1 104 -1 95 0 c 1,3,4
 89 47 89 47 89 134 c 2,5,-1
 88 267 l 1,6,-1
 88 382 l 2,7,8
 88 464 88 464 90 614 c 1,9,-1
 90 665 l 2,10,11
 90 682 90 682 103 690 c 128,-1,12
 116 698 116 698 129 699 c 128,-1,13
 142 700 142 700 158.5 700 c 2,14,-1
 178 700 l 2,15,16
 321 700 321 700 415.5 641.5 c 128,-1,17
 510 583 510 583 510 483 c 0,18,19
 510 419 510 419 472 364.5 c 1,20,-1
 386.971428571 278.915102041 l 1,21,22
 386.971428571 274.520939335 386.971428571 274.520939335 450.985714286 212.260469667 c 0,23,24
 552.730337079 113.303370787 552.730337079 113.303370787 569.865168539 94.1516853933 c 128,-1,25
 587 75 587 75 593.5 68.5 c 128,-1,26
 600 62 600 62 603.5 58 c 0,27,28
 614 46 614 46 613.5 39 c 128,-1,29
 613 32 613 32 592.446808511 9.97872340426 c 128,-1,30
 571.893617021 -12.0425531915 571.893617021 -12.0425531915 561.870982345 -12.0425531915 c 0,31,32
 552.317966903 -12.0425531915 552.317966903 -12.0425531915 537.658983452 3.47872340426 c 128,-1,33
 523 19 523 19 509.5 31 c 128,-1,34
 496 43 496 43 458.5 82 c 128,-1,35
 421 121 421 121 363.995145631 177.504854369 c 128,-1,36
 306.990291262 234.009708738 306.990291262 234.009708738 303.067584127 234.009708738 c 2,37,-1
 192 211 l 1,38,39
 190 203 190 203 190 108.5 c 128,-1,40
 190 14 190 14 182 6 c 128,-1,41
 174 -2 174 -2 143 -2 c 2,0,-1
190 625 m 1,42,43
 187 609 187 609 187 503 c 128,-1,44
 187 397 187 397 191 270 c 1,45,46
 276 275 276 275 345 332.5 c 128,-1,47
 414 390 414 390 414 462 c 128,-1,48
 414 534 414 534 356.5 580.5 c 128,-1,49
 299 627 299 627 213 627 c 0,50,51
 206 627 206 627 190 625 c 1,42,43
EndSplineSet
EndChar

StartChar: S
Encoding: 83 83 51
Width: 487
Flags: HMW
HStem: -12 73<120.5 169.5 92.5 195> 642 70<266.5 307 241.5 320.5>
VStem: 72 98<477.5 580 477.5 585> 322 99<167.5 246>
LayerCount: 2
Fore
SplineSet
370 631 m 1,0,1
 337 642 337 642 290.5 642 c 128,-1,2
 244 642 244 642 207 618.5 c 128,-1,3
 170 595 170 595 170 551.5 c 128,-1,4
 170 508 170 508 196 476 c 128,-1,5
 222 444 222 444 259 417.5 c 128,-1,6
 296 391 296 391 332.5 361.5 c 128,-1,7
 369 332 369 332 395 288 c 128,-1,8
 421 244 421 244 421 189 c 128,-1,9
 421 134 421 134 375 78 c 0,10,11
 300 -12 300 -12 127 -12 c 0,12,13
 102.666666667 -12 102.666666667 -12 84.3333333333 -9.5 c 128,-1,14
 66 -7 66 -7 56 -6 c 128,-1,15
 46 -5 46 -5 35 -3 c 0,16,17
 11 1.36363636364 11 1.36363636364 11 9 c 0,18,19
 11 62 11 62 30 74 c 1,20,21
 71 61 71 61 114 61 c 0,22,23
 322 61 322 61 322 180 c 0,24,25
 322 241.534246575 322 241.534246575 233.5 307 c 0,26,27
 197 334 197 334 160.5 363 c 128,-1,28
 124 392 124 392 98 435.5 c 128,-1,29
 72 479 72 479 72 531 c 0,30,31
 72 610 72 610 140.5 661 c 128,-1,32
 209 712 209 712 301 712 c 0,33,34
 321 712 321 712 354.5 707.5 c 128,-1,35
 388 703 388 703 390.5 696 c 128,-1,36
 393 689 393 689 393 680.1 c 128,-1,37
 393 671.2 393 671.2 387 653.6 c 128,-1,38
 381 636 381 636 370 631 c 1,0,1
EndSplineSet
EndChar

StartChar: T
Encoding: 84 84 52
Width: 732
Flags: HMW
HStem: 0 21G<321.5 360.5> 623 77
VStem: 292 97 292 103<441 610.5 502.5 610.5>
LayerCount: 2
Fore
SplineSet
290 271 m 1,0,-1
 292 441 l 1,1,-1
 292 515 l 2,2,3
 292 541 292 541 294.5 576 c 128,-1,4
 297 611 297 611 295 619 c 1,5,6
 290.875 624.5 290.875 624.5 218.25 624.5 c 2,7,-1
 78 623 l 2,8,9
 75 623 75 623 64 622 c 128,-1,10
 53 621 53 621 45.5 621.5 c 128,-1,11
 38 622 38 622 29.5 623.5 c 0,12,13
 11 626.764705882 11 626.764705882 11 645.382352941 c 128,-1,14
 11 664 11 664 14 674.5 c 128,-1,15
 17 685 17 685 22.5 690 c 128,-1,16
 28 695 28 695 37.5 696 c 128,-1,17
 47 697 47 697 60.5 696.5 c 128,-1,18
 74 696 74 696 100.5 698 c 128,-1,19
 127 700 127 700 249 700 c 2,20,-1
 450 699 l 1,21,-1
 639 700 l 1,22,-1
 681 701 l 1,23,-1
 696 701 l 2,24,25
 715 701 715 701 719.5 689 c 0,26,27
 721 685 721 685 721 678 c 0,28,29
 721 643 721 643 711 635 c 1,30,31
 704 628 704 628 661 628 c 2,32,-1
 614 628 l 2,33,34
 567 628 567 628 530.5 625.5 c 128,-1,35
 494 623 494 623 416 623 c 0,36,37
 400.530556908 623 400.530556908 623 397.765278454 617.660880206 c 128,-1,38
 395 612.321760411 395 612.321760411 395 595 c 2,39,-1
 394 414 l 1,40,-1
 394 267.5 l 2,41,42
 394 134 394 134 391.5 94.5 c 128,-1,43
 389 55 389 55 388.5 43.5 c 128,-1,44
 388 32 388 32 387.5 29.5 c 128,-1,45
 387 27 387 27 385.5 20 c 128,-1,46
 384 13 384 13 381.5 11.5 c 128,-1,47
 379 10 379 10 375 6.5 c 128,-1,48
 371 3 371 3 364.5 2.5 c 128,-1,49
 358 2 358 2 349 1 c 128,-1,50
 340 0 340 0 323 0 c 128,-1,51
 306 0 306 0 301 4 c 128,-1,52
 296 8 296 8 293.5 25.5 c 128,-1,53
 291 43 291 43 290.5 76.5 c 128,-1,54
 290 110 290 110 289.625 129.5 c 128,-1,55
 289.25 149 289.25 149 289.25 167.125 c 2,56,-1
 290 271 l 1,0,-1
EndSplineSet
EndChar

StartChar: U
Encoding: 85 85 53
Width: 855
Flags: HMW
HStem: -12 81<310 505.5> 680 20G<139 159> 681 20G<723 758>
VStem: 77 100<557 612.5> 701 76<430 688>
LayerCount: 2
Fore
SplineSet
777 675 m 2,0,-1
 777.75 566.25 l 2,1,2
 777.75 548.75 777.75 548.75 777.375 533.375 c 128,-1,3
 777 518 777 518 776 476 c 128,-1,4
 775 434 775 434 772.5 409 c 128,-1,5
 770 384 770 384 766 349.5 c 0,6,7
 759.614395887 294.424164524 759.614395887 294.424164524 739 228 c 0,8,9
 706 117 706 117 624.5 52.5 c 128,-1,10
 543 -12 543 -12 423 -12 c 0,11,12
 258.764705882 -12 258.764705882 -12 180 91 c 0,13,14
 107.977319588 185.183505155 107.977319588 185.183505155 86 363 c 0,15,16
 77 433 77 433 77 555 c 128,-1,17
 77 677 77 677 87 694 c 1,18,19
 98 700 98 700 131.5 700 c 128,-1,20
 165 700 165 700 172 694 c 128,-1,21
 179 688 179 688 179 669 c 2,22,-1
 177 630 l 2,23,24
 177 616 177 616 176.942373875 596.422306762 c 128,-1,25
 176.88474775 576.844613524 176.88474775 576.844613524 176.88474775 567.8400028 c 2,26,-1
 176.428571429 495.571428571 l 2,27,28
 176.428571429 447.489795918 176.428571429 447.489795918 182.714285714 379.244897959 c 128,-1,29
 189 311 189 311 198.5 275.5 c 128,-1,30
 208 240 208 240 220.5 208.5 c 128,-1,31
 233 177 233 177 253.5 151.5 c 128,-1,32
 274 126 274 126 299.5 107.5 c 0,33,34
 352.567567568 69 352.567567568 69 429.283783784 69 c 128,-1,35
 506 69 506 69 554.5 97 c 128,-1,36
 603 125 603 125 631 168.5 c 128,-1,37
 659 212 659 212 675 278.5 c 0,38,39
 701 386.5625 701 386.5625 701 548 c 1,40,-1
 700 647 l 2,41,42
 700 682 700 682 706.5 691.5 c 128,-1,43
 713 701 713 701 736.5 701 c 128,-1,44
 760 701 760 701 765 700 c 0,45,46
 777 697.6 777 697.6 777 675 c 2,0,-1
EndSplineSet
EndChar

StartChar: V
Encoding: 86 86 54
Width: 707
Flags: HMW
HStem: -12 21G<321.5 346> 692 20G<72.5 93.5 648.5 659.5>
LayerCount: 2
Fore
SplineSet
641 711 m 0,0,1
 644 712 644 712 654.5 712 c 128,-1,2
 665 712 665 712 680.5 706.5 c 128,-1,3
 696 701 696 701 696 694.5 c 128,-1,4
 696 688 696 688 685.5 665.5 c 128,-1,5
 675 643 675 643 648 584.5 c 2,6,-1
 609 500 l 2,7,8
 592 464 592 464 548.5 378.5 c 128,-1,9
 505 293 505 293 486 249 c 128,-1,10
 467 205 467 205 429.5 132.5 c 128,-1,11
 392 60 392 60 383 39.5 c 128,-1,12
 374 19 374 19 368.5 10 c 0,13,14
 355.055555556 -12 355.055555556 -12 334 -12 c 0,15,16
 314.666666667 -12 314.666666667 -12 300 15.5 c 0,17,18
 296 23 296 23 293.5 27 c 128,-1,19
 291 31 291 31 287 40 c 128,-1,20
 283 49 283 49 276.5 61.5 c 128,-1,21
 270 74 270 74 247.5 120.5 c 128,-1,22
 225 167 225 167 214.5 187.5 c 128,-1,23
 204 208 204 208 112 414 c 1,24,25
 67 520 67 520 46 579.5 c 128,-1,26
 25 639 25 639 20.5 650.5 c 0,27,28
 11 674.777777778 11 674.777777778 11 684.888888889 c 128,-1,29
 11 695 11 695 37.5 703.5 c 128,-1,30
 64 712 64 712 76.5 712 c 128,-1,31
 89 712 89 712 94 708.5 c 128,-1,32
 99 705 99 705 104.5 695.5 c 128,-1,33
 110 686 110 686 112.5 680.5 c 0,34,35
 125 653 125 653 190.5 500.5 c 128,-1,36
 256 348 256 348 287 269 c 1,37,38
 344 132 344 132 353 132 c 0,39,40
 358 132 358 132 366.5 150.5 c 128,-1,41
 375 169 375 169 404 228.5 c 128,-1,42
 433 288 433 288 463.5 351 c 0,43,44
 534.430232558 497.511627907 534.430232558 497.511627907 599 641 c 1,45,46
 627 706 627 706 641 711 c 0,0,1
EndSplineSet
EndChar

StartChar: W
Encoding: 87 87 55
Width: 1020
Flags: HMW
HStem: -5 21G<692 708.5> -3 21G<335.5 346> 692 20G<82 93 948.5 968.5>
LayerCount: 2
Fore
SplineSet
363 150 m 1,0,1
 370 157 370 157 380 184 c 128,-1,2
 390 211 390 211 403 238 c 128,-1,3
 416 265 416 265 432.5 297 c 0,4,5
 484 396.878787879 484 396.878787879 484 426 c 0,6,7
 484 444.488372093 484 444.488372093 452.5 517.744186047 c 0,8,9
 393.933333333 653.945736434 393.933333333 653.945736434 393.933333333 669.808888889 c 0,10,11
 393.933333333 680.107575758 393.933333333 680.107575758 416.966666667 690.053787879 c 128,-1,12
 440 700 440 700 453.5 700 c 128,-1,13
 467 700 467 700 473 694 c 128,-1,14
 479 688 479 688 506 633.5 c 128,-1,15
 533 579 533 579 561 508 c 128,-1,16
 589 437 589 437 649.5 296.5 c 128,-1,17
 710 156 710 156 718 156 c 0,18,19
 726.857142857 156 726.857142857 156 739 198.5 c 0,20,21
 749.464788732 235.126760563 749.464788732 235.126760563 824.732394366 415.063380282 c 128,-1,22
 900 595 900 595 910.5 622 c 128,-1,23
 921 649 921 649 924.5 660 c 128,-1,24
 928 671 928 671 931 678.5 c 128,-1,25
 934 686 934 686 938.5 694.5 c 0,26,27
 947.764705882 712 947.764705882 712 960.382352941 712 c 128,-1,28
 973 712 973 712 985.5 705.5 c 128,-1,29
 998 699 998 699 998 693 c 0,30,31
 998 663.277777778 998 663.277777778 970.5 600.638888889 c 128,-1,32
 943 538 943 538 939 527.5 c 128,-1,33
 935 517 935 517 905.5 444 c 128,-1,34
 876 371 876 371 845 294 c 128,-1,35
 814 217 814 217 808.5 205 c 128,-1,36
 803 193 803 193 788 154 c 128,-1,37
 773 115 773 115 768.5 105 c 128,-1,38
 764 95 764 95 759 83.5 c 128,-1,39
 754 72 754 72 751 65.5 c 128,-1,40
 748 59 748 59 742 47 c 128,-1,41
 736 35 736 35 731 27.5 c 128,-1,42
 726 20 726 20 719.5 11.5 c 0,43,44
 696.263605442 -18.8860544218 696.263605442 -18.8860544218 677.5 6.5 c 128,-1,45
 658.81920904 31.7740112994 658.81920904 31.7740112994 630.90960452 91.8870056497 c 128,-1,46
 603 152 603 152 597 165 c 128,-1,47
 591 178 591 178 573.5 223.5 c 0,48,49
 531.769230769 332 531.769230769 332 523 332 c 0,50,51
 514.6 332 514.6 332 467.8 219.5 c 128,-1,52
 421 107 421 107 420 105 c 0,53,54
 373.427272727 -3.00909090909 373.427272727 -3.00909090909 346.492561983 -3.00909090909 c 0,55,56
 333.605 -3.00909090909 333.605 -3.00909090909 321.5 19 c 0,57,58
 300.769230769 56.6923076923 300.769230769 56.6923076923 296 71 c 1,59,60
 264 129 264 129 97 492 c 0,61,62
 78 535 78 535 50.4666666667 604.3 c 128,-1,63
 22.9333333333 673.6 22.9333333333 673.6 22.9333333333 685.422222222 c 0,64,65
 22.9333333333 692.968992248 22.9333333333 692.968992248 43.4893939394 702.529950669 c 128,-1,66
 64.0454545455 712.090909091 64.0454545455 712.090909091 72.2954545455 712.090909091 c 128,-1,67
 80.5454545455 712.090909091 80.5454545455 712.090909091 84.2727272727 712.045454545 c 128,-1,68
 88 712 88 712 94 708.5 c 128,-1,69
 100 705 100 705 105.5 696.5 c 128,-1,70
 111 688 111 688 114.5 682.5 c 128,-1,71
 118 677 118 677 123.5 665 c 128,-1,72
 129 653 129 653 153.5 607.5 c 128,-1,73
 178 562 178 562 212.5 483.5 c 128,-1,74
 247 405 247 405 295 303 c 128,-1,75
 343 201 343 201 363 150 c 1,0,1
EndSplineSet
EndChar

StartChar: X
Encoding: 88 88 56
Width: 669
Flags: HMW
HStem: -12 21G<73.5 81 574 584.5> 692 20G<103 108 545.5 559.5>
LayerCount: 2
Fore
SplineSet
542.5 707 m 128,-1,1
 549 712 549 712 556 712 c 128,-1,2
 563 712 563 712 583 701.5 c 128,-1,3
 603 691 603 691 603 684 c 0,4,5
 603 665.769230769 603 665.769230769 590.5 650.384615385 c 128,-1,6
 578 635 578 635 569 624 c 2,7,-1
 560 613 l 2,8,9
 525 569 525 569 484 514 c 128,-1,10
 443 459 443 459 425.5 438 c 128,-1,11
 408 417 408 417 396.5 401.5 c 128,-1,12
 385 386 385 386 385 381 c 128,-1,13
 385 376 385 376 408.5 346 c 128,-1,14
 432 316 432 316 509.5 219 c 128,-1,15
 587 122 587 122 603 98 c 128,-1,16
 619 74 619 74 627.5 63 c 128,-1,17
 636 52 636 52 636 47 c 0,18,19
 636 32 636 32 613 10 c 128,-1,20
 590 -12 590 -12 574 -12 c 1,21,22
 554 1 554 1 499.5 68.5 c 128,-1,23
 445 136 445 136 424.5 165.5 c 128,-1,24
 404 195 404 195 382.5 222 c 0,25,26
 326.759259259 292 326.759259259 292 324 292 c 0,27,28
 315 292 315 292 289 253.5 c 128,-1,29
 263 215 263 215 207 144.5 c 128,-1,30
 151 74 151 74 139 57 c 128,-1,31
 127 40 127 40 120.5 30.5 c 128,-1,32
 114 21 114 21 107.5 12.5 c 0,33,34
 90.6 -9.6 90.6 -9.6 81 -12 c 1,35,36
 71 -12 71 -12 53.5 -1 c 128,-1,37
 36 10 36 10 33 16 c 1,38,39
 33 27.3333333333 33 27.3333333333 50.5 53 c 2,40,-1
 58 64 l 2,41,42
 73 85 73 85 100 123.5 c 0,43,44
 156.213114754 203.655737705 156.213114754 203.655737705 199 255 c 1,45,-1
 221.5 284.5 l 2,46,47
 268 345.466666667 268 345.466666667 268 356.233333333 c 128,-1,48
 268 367 268 367 180 478 c 128,-1,49
 92 589 92 589 69.5 620.5 c 128,-1,50
 47 652 47 652 47 662 c 128,-1,51
 47 672 47 672 72 687 c 1,52,53
 97 712 97 712 106 712 c 128,-1,54
 115 712 115 712 125 704.5 c 128,-1,55
 135 697 135 697 148.5 681 c 128,-1,56
 162 665 162 665 173 651.5 c 128,-1,57
 184 638 184 638 200.5 615.5 c 128,-1,58
 217 593 217 593 224 584 c 2,59,-1
 337 441 l 1,60,61
 343.300884956 441 343.300884956 441 411.150442478 534.5 c 128,-1,62
 479 628 479 628 488 640 c 128,-1,63
 497 652 497 652 503.5 661 c 128,-1,64
 510 670 510 670 516 677.5 c 128,-1,65
 522 685 522 685 529 693.5 c 128,-1,0
 536 702 536 702 542.5 707 c 128,-1,1
EndSplineSet
EndChar

StartChar: Y
Encoding: 89 89 57
Width: 672
Flags: HMW
HStem: 0 21G<317 370> 692 20G<66 74 621 634>
VStem: 288 100<327 350>
LayerCount: 2
Fore
SplineSet
286 242 m 1,0,-1
 288 345 l 2,1,2
 288 357.5 288 357.5 285 362.75 c 128,-1,3
 282 368 282 368 281 370 c 128,-1,4
 280 372 280 372 277.5 375 c 128,-1,5
 275 378 275 378 273.5 380 c 128,-1,6
 272 382 272 382 268.5 385.5 c 128,-1,7
 265 389 265 389 263 390.5 c 0,8,9
 257 395 257 395 199 450 c 128,-1,10
 141 505 141 505 135 511.5 c 128,-1,11
 129 518 129 518 106 540 c 128,-1,12
 83 562 83 562 69 575.5 c 128,-1,13
 55 589 55 589 37.5 607.5 c 0,14,15
 2 645.028571429 2 645.028571429 2 657 c 0,16,17
 1.49206349206 657.888888889 1.49206349206 657.888888889 1.49206349206 659.035777274 c 0,18,19
 1.49206349206 666.920634921 1.49206349206 666.920634921 27.246031746 688.46031746 c 128,-1,20
 53 710 53 710 66 712 c 1,21,22
 81 712 81 712 109 678 c 0,23,24
 117 669 117 669 214.5 569.5 c 128,-1,25
 312 470 312 470 317.5 464 c 128,-1,26
 323 458 323 458 332 447 c 0,27,28
 350 425 350 425 356 425 c 128,-1,29
 362 425 362 425 420 488 c 128,-1,30
 478 551 478 551 501.5 580 c 128,-1,31
 525 609 525 609 572 660.5 c 128,-1,32
 619 712 619 712 627.5 712 c 128,-1,33
 636 712 636 712 653 697 c 128,-1,34
 670 682 670 682 670.5 677 c 128,-1,35
 671 672 671 672 667 666.5 c 128,-1,36
 663 661 663 661 655.5 653.5 c 128,-1,37
 648 646 648 646 640 636 c 0,38,39
 617.397590361 607.746987952 617.397590361 607.746987952 541.698795181 528.373493976 c 0,40,41
 388 367.213592233 388 367.213592233 388 350 c 2,42,-1
 388 163 l 1,43,-1
 390 75 l 2,44,45
 390 35.2 390 35.2 386.5 26.1 c 128,-1,46
 383 17 383 17 376.5 10.5 c 0,47,48
 366 0 366 0 339 0 c 128,-1,49
 312 0 312 0 304 0.5 c 128,-1,50
 296 1 296 1 288.5 6.5 c 128,-1,51
 281 12 281 12 281 24 c 2,52,-1
 284 86 l 1,53,-1
 286 242 l 1,0,-1
EndSplineSet
EndChar

StartChar: Z
Encoding: 90 90 58
Width: 645
Flags: HMW
HStem: 0 74 0 81 633 67
LayerCount: 2
Fore
SplineSet
483 700 m 1,0,-1
 526 701 l 2,1,2
 547 701 547 701 555.5 695.5 c 128,-1,3
 564 690 564 690 564 682.5 c 128,-1,4
 564 675 564 675 553 654.5 c 128,-1,5
 542 634 542 634 381 375.5 c 128,-1,6
 220 117 220 117 202 83 c 1,7,8
 205 81 205 81 218 81 c 2,9,10
 573 74 l 1,11,-1
 597.5 73 l 2,12,13
 618.428571429 73 618.428571429 73 622 60.5 c 0,14,15
 623 57 623 57 623 52 c 0,16,17
 623 22 623 22 613 12.5 c 128,-1,18
 603 3 603 3 582 2 c 0,19,20
 528 0 528 0 505 0 c 0,21,22
 382.25 0 382.25 0 296.125 0 c 128,-1,23
 210 0 210 0 178 1 c 128,-1,24
 146 2 146 2 114 4 c 0,25,26
 50 8 50 8 46 16 c 0,27,28
 44.3636363636 19.2727272727 44.3636363636 19.2727272727 44.3636363636 22.8181818182 c 0,29,30
 44.3636363636 32.3181818182 44.3636363636 32.3181818182 56 50.5 c 2,31,-1
 64 63 l 2,32,33
 75 82 75 82 155 202.5 c 0,34,35
 265.526315789 368.980263158 265.526315789 368.980263158 428 633 c 1,36,37
 404 636 404 636 381 636 c 2,38,-1
 111.522491349 632.970588235 l 2,39,40
 55 632.970588235 55 632.970588235 55 665 c 0,41,42
 55 676 55 676 55.5 681 c 128,-1,43
 56 686 56 686 62.5 693 c 128,-1,44
 69 700 69 700 81 700 c 2,45,-1
 483 700 l 1,0,-1
EndSplineSet
EndChar

StartChar: bracketleft
Encoding: 91 91 59
Width: 376
Flags: HMW
HStem: -262 21G<159.5 200.5 170 314> 663 75<186 192.5 186 242>
VStem: 93 93<652.5 663>
LayerCount: 2
Fore
SplineSet
88 23 m 1,0,-1
 93 672 l 2,1,2
 93 713 93 713 98.5 725.5 c 128,-1,3
 104 738 104 738 125 738 c 2,4,-1
 314 738 l 2,5,6
 327.066666667 738 327.066666667 738 329 723.5 c 0,7,8
 331.132075472 707.509433962 331.132075472 707.509433962 330.566037736 696.754716981 c 128,-1,9
 330 686 330 686 330 683 c 0,10,11
 330 665 330 665 320 665 c 0,12,13
 270 663 270 663 242 663 c 2,14,-1
 186 663 l 1,15,-1
 185 465 l 1,16,-1
 186 271 l 1,17,18
 186 -100 186 -100 183 -187 c 1,19,-1
 241 -186 l 2,20,21
 297 -186 297 -186 307 -188 c 0,22,23
 330 -193 330 -193 330 -211 c 1,24,25
 331 -221 331 -221 331 -226 c 0,26,27
 331 -262 331 -262 314 -262 c 2,28,-1
 170 -262 l 2,29,30
 107 -262 107 -262 98 -254 c 0,31,32
 88 -244 88 -244 88 23 c 1,0,-1
EndSplineSet
EndChar

StartChar: backslash
Encoding: 92 92 60
Width: 386
Flags: HMW
HStem: -91 21G<291 312> 741 20G<66.5 93.5>
LayerCount: 2
Fore
SplineSet
192 196.5 m 0,0,1
 177 244 177 244 146 342.5 c 128,-1,2
 115 441 115 441 82 538.5 c 128,-1,3
 49 636 49 636 35.5 678 c 128,-1,4
 22 720 22 720 22 733 c 128,-1,5
 22 746 22 746 39.5 753.5 c 128,-1,6
 57 761 57 761 82 761 c 0,7,8
 98 761 98 761 143.5 633.5 c 128,-1,9
 189 506 189 506 215 417 c 128,-1,10
 241 328 241 328 277.5 213.5 c 0,11,12
 363.038461538 -54.8329820864 363.038461538 -54.8329820864 363.038461538 -69.576183432 c 0,13,14
 363.038461538 -73.6162207358 363.038461538 -73.6162207358 339.519230769 -82.3081103679 c 128,-1,15
 316 -91 316 -91 302 -91 c 0,16,17
 282.789473684 -91 282.789473684 -91 192 196.5 c 0,0,1
EndSplineSet
EndChar

StartChar: bracketright
Encoding: 93 93 61
Width: 376
Flags: HMW
HStem: -262 75<51 190 134 190 134 251> 718 20G<62 206 175.5 216.5>
VStem: 190 93<-187 -176.5>
LayerCount: 2
Fore
SplineSet
288 415 m 1,0,-1
 283 -196 l 2,1,2
 283 -237 283 -237 277.5 -249.5 c 128,-1,3
 272 -262 272 -262 251 -262 c 2,4,-1
 62 -262 l 2,5,6
 48.9333333333 -262 48.9333333333 -262 47 -247.5 c 0,7,8
 44.8679245283 -231.509433962 44.8679245283 -231.509433962 45.4339622642 -220.754716981 c 128,-1,9
 46 -210 46 -210 46 -207 c 0,10,11
 46 -189 46 -189 56 -189 c 0,12,13
 106 -187 106 -187 134 -187 c 2,14,-1
 190 -187 l 1,15,-1
 191 -27 l 1,16,-1
 190 167 l 1,17,18
 190 576 190 576 193 663 c 1,19,-1
 135 662 l 2,20,21
 79 662 79 662 69 664 c 0,22,23
 46 669 46 669 46 687 c 1,24,25
 45 697 45 697 45 702 c 0,26,27
 45 738 45 738 62 738 c 2,28,-1
 206 738 l 2,29,30
 269 738 269 738 278 730 c 0,31,32
 288 720 288 720 288 415 c 1,0,-1
EndSplineSet
EndChar

StartChar: asciicircum
Encoding: 94 94 62
Width: 551
Flags: HMW
HStem: 692 20G<265.5 286.5>
LayerCount: 2
Fore
SplineSet
276 634 m 128,-1,1
 273 634 273 634 265 622 c 128,-1,2
 257 610 257 610 245 589.5 c 128,-1,3
 233 569 233 569 227 560 c 2,4,-1
 117 378 l 2,5,6
 108.052631579 362.789473684 108.052631579 362.789473684 94.3019390582 362.789473684 c 0,7,8
 80.0063157895 362.789473684 80.0063157895 362.789473684 61.5031578947 376.394736842 c 128,-1,9
 43 390 43 390 45.5 404.5 c 128,-1,10
 48 419 48 419 65 445 c 0,11,12
 162 596 162 596 219 668 c 1,13,14
 252 712 252 712 276 712 c 128,-1,15
 300 712 300 712 333 668 c 1,16,17
 385 603 385 603 486 445 c 0,18,19
 503 419 503 419 505.5 404.5 c 128,-1,20
 508 390 508 390 491 377.5 c 0,21,22
 470.993684211 362.789473684 470.993684211 362.789473684 456.970526316 362.789473684 c 128,-1,23
 442.947368421 362.789473684 442.947368421 362.789473684 434 378 c 2,24,-1
 325 560 l 2,25,26
 319 569 319 569 307 589.5 c 128,-1,27
 295 610 295 610 287 622 c 128,-1,0
 279 634 279 634 276 634 c 128,-1,1
EndSplineSet
EndChar

StartChar: underscore
Encoding: 95 95 63
Width: 489
Flags: HMW
HStem: -238 69<11 58> -237 21G<474.5 497.5>
LayerCount: 2
Fore
SplineSet
493 -237 m 2,0,-1
 -2 -238 l 2,1,2
 -14 -238 -14 -238 -17 -233 c 128,-1,3
 -20 -228 -20 -228 -20 -203.5 c 128,-1,4
 -20 -179 -20 -179 -14 -174 c 128,-1,5
 -8 -169 -8 -169 11 -169 c 2,6,-1
 479 -169 l 2,7,8
 498 -169 498 -169 503.5 -178 c 128,-1,9
 509 -187 509 -187 509 -212 c 128,-1,10
 509 -237 509 -237 493 -237 c 2,0,-1
EndSplineSet
EndChar

StartChar: grave
Encoding: 96 96 64
Width: 353
Flags: HMW
HStem: 510 21G<237.5 252.5> 645 20G<121.5 145.5>
LayerCount: 2
Fore
SplineSet
245 510 m 0,0,1
 210 510 210 510 170.5 530.5 c 128,-1,2
 131 551 131 551 104 575.5 c 128,-1,3
 77 600 77 600 77 617 c 128,-1,4
 77 634 77 634 96.5 649.5 c 128,-1,5
 116 665 116 665 130 665 c 128,-1,6
 144 665 144 665 153.5 654 c 128,-1,7
 163 643 163 643 181 621.5 c 128,-1,8
 199 600 199 600 213.5 589 c 128,-1,9
 228 578 228 578 243.5 568 c 0,10,11
 276 547.032258065 276 547.032258065 276 538 c 1,12,13
 274 528 274 528 265 519 c 128,-1,14
 256 510 256 510 245 510 c 0,0,1
EndSplineSet
EndChar

StartChar: a
Encoding: 97 97 65
Width: 468
Flags: HMW
HStem: -12 65<186 204> -1 21G<325.5 368.5> 381 63<182.5 228>
VStem: 311 91<194.5 196>
LayerCount: 2
Fore
SplineSet
346 -1 m 0,0,1
 316 -1 316 -1 317.5 32 c 0,2,3
 318 43 318 43 315 43 c 1,4,5
 307 40 307 40 283 25.5 c 0,6,7
 163.799690043 -46.5168539326 163.799690043 -46.5168539326 74 17 c 0,8,9
 33 46 33 46 33 97 c 0,10,11
 33 174 33 174 104.5 209 c 128,-1,12
 176 244 176 244 282 244 c 0,13,14
 301 244 301 244 310 243 c 1,15,16
 310 260 310 260 311 267 c 1,17,18
 311 324 311 324 279.5 352.5 c 128,-1,19
 248 381 248 381 192 381 c 0,20,21
 165 381 165 381 134 373 c 128,-1,22
 103 365 103 365 94 365 c 128,-1,23
 85 365 85 365 79.5 376 c 128,-1,24
 74 387 74 387 74 405 c 128,-1,25
 74 423 74 423 118.5 433.5 c 128,-1,26
 163 444 163 444 204 444 c 0,27,28
 301 444 301 444 351.5 393 c 128,-1,29
 402 342 402 342 402 244 c 2,30,-1
 402 38 l 2,31,32
 402 11 402 11 392 5 c 128,-1,33
 382 -1 382 -1 346 -1 c 0,0,1
309 104 m 0,34,35
 311 132 311 132 311 164 c 128,-1,36
 311 196 311 196 310 200 c 1,37,38
 172 187 172 187 142 150 c 0,39,40
 126 131 126 131 126 106 c 0,41,42
 126 53 126 53 205 53 c 0,43,44
 245 53 245 53 276.5 71.5 c 128,-1,45
 308 90 308 90 309 104 c 0,34,35
EndSplineSet
EndChar

StartChar: b
Encoding: 98 98 66
Width: 551
Flags: HMW
HStem: -12 58<255 310 245 330.5> 0 21G<88 106.5> 379 65<302.5 344.5> 717 20G<118 149.5>
VStem: 78 97<529.5 567.5 567.5 632 577.5 646.5> 411 96<203 258.5>
LayerCount: 2
Fore
SplineSet
78 632 m 1,0,-1
 80 716 l 2,1,2
 80 731 80 731 90.5 734 c 128,-1,3
 101 737 101 737 132.5 737 c 128,-1,4
 164 737 164 737 169.5 730 c 128,-1,5
 175 723 175 723 175 700 c 2,6,-1
 175 553 l 2,7,8
 175 432 175 432 177 400 c 1,9,10
 262 444 262 444 329 444 c 0,11,12
 368 444 368 444 407.5 428 c 128,-1,13
 447 412 447 412 467 386 c 0,14,15
 507 335 507 335 507 242.5 c 128,-1,16
 507 150 507 150 462 77 c 0,17,18
 441 43 441 43 394.5 15.5 c 128,-1,19
 348 -12 348 -12 286 -12 c 0,20,21
 214.8 -12 214.8 -12 161.5 29 c 0,22,23
 147.2 40 147.2 40 142.1 40 c 128,-1,24
 137 40 137 40 122 20 c 128,-1,25
 107 0 107 0 99 0 c 0,26,27
 83 0 83 0 80 16 c 128,-1,28
 77 32 77 32 77 94 c 2,29,-1
 78 288 l 1,30,-1
 78 632 l 1,0,-1
177 337 m 2,31,-1
 176 84 l 2,32,33
 176 66 176 66 203.5 56 c 128,-1,34
 231 46 231 46 264 46 c 0,35,36
 332 46 332 46 371.5 93 c 128,-1,37
 411 140 411 140 411 216 c 0,38,39
 411 379 411 379 298 379 c 0,40,41
 270 379 270 379 243 373 c 0,42,43
 177 359 177 359 177 337 c 2,31,-1
EndSplineSet
EndChar

StartChar: c
Encoding: 99 99 67
Width: 469
Flags: HMW
HStem: -12 66<274 309.5> 378 62<323.5 340 241.5 407.5>
VStem: 44 99<167 277.5>
LayerCount: 2
Fore
SplineSet
419 69 m 0,0,1
 436 69 436 69 436 45 c 0,2,3
 436 -12 436 -12 288 -12 c 0,4,5
 225 -12 225 -12 176 8 c 128,-1,6
 127 28 127 28 99.5 60.5 c 0,7,8
 44 126.090909091 44 126.090909091 44 207 c 0,9,10
 44 311 44 311 122 375.5 c 128,-1,11
 200 440 200 440 316 440 c 128,-1,12
 432 440 432 440 432 407 c 0,13,14
 432 384.153846154 432 384.153846154 424 381.076923077 c 128,-1,15
 416 378 416 378 412.5 378 c 2,16,-1
 394 378 l 2,17,18
 275 378 275 378 209 343.5 c 128,-1,19
 143 309 143 309 143 225 c 128,-1,20
 143 141 143 141 193.5 97.5 c 128,-1,21
 244 54 244 54 335 54 c 0,22,23
 356 54 356 54 383 61.5 c 128,-1,24
 410 69 410 69 419 69 c 0,0,1
EndSplineSet
EndChar

StartChar: d
Encoding: 100 100 68
Width: 568
Flags: HMW
HStem: -12 69<251 279.5> -1 21G<447 474.5> 379 65<269 314 269 314> 717 20G<420.5 471.5>
VStem: 44 99<175 229 175 257.5> 401 90
LayerCount: 2
Fore
SplineSet
490 655 m 1,0,-1
 491 256 l 1,1,-1
 491 53 l 2,2,3
 491 44 491 44 490.5 41 c 128,-1,4
 490 38 490 38 489.5 31 c 128,-1,5
 489 24 489 24 488 21 c 0,6,7
 484 9 484 9 481.5 7 c 128,-1,8
 479 5 479 5 475.5 3 c 0,9,10
 468.5 -1 468.5 -1 442.75 -1 c 128,-1,11
 417 -1 417 -1 408 2 c 1,12,13
 405.533333333 6.93333333333 405.533333333 6.93333333333 404.766666667 19.9666666667 c 128,-1,14
 404 33 404 33 403 37 c 1,15,16
 382 22 382 22 335.5 5 c 128,-1,17
 289 -12 289 -12 252 -12 c 0,18,19
 159 -12 159 -12 101.5 51 c 128,-1,20
 44 114 44 114 44 207 c 0,21,22
 44 336 44 336 156 406 c 1,23,24
 211 444 211 444 296 444 c 0,25,26
 319 444 319 444 398 423 c 1,27,-1
 399 467 l 1,28,-1
 399 520 l 2,29,30
 399 632 399 632 400.5 651 c 128,-1,31
 402 670 402 670 402 688 c 128,-1,32
 402 706 402 706 403 711.5 c 128,-1,33
 404 717 404 717 408.5 725 c 0,34,35
 415.25 737 415.25 737 440.125 737 c 128,-1,36
 465 737 465 737 473.5 733 c 128,-1,37
 482 729 482 729 485.5 717.5 c 0,38,39
 490 702.714285714 490 702.714285714 490 680.607142857 c 2,40,-1
 490 655 l 1,0,-1
143 229 m 1,41,42
 143 148 143 148 185 102.5 c 128,-1,43
 227 57 227 57 299 57 c 0,44,45
 335 57 335 57 359 64.5 c 0,46,47
 400 77.3125 400 77.3125 400 100 c 2,48,-1
 400 285 l 2,49,50
 400 351 400 351 394 358 c 1,51,52
 388 368 388 368 357.5 373.5 c 128,-1,53
 327 379 327 379 297 379 c 0,54,55
 229 379 229 379 187 337 c 128,-1,56
 145 295 145 295 143 229 c 1,41,42
EndSplineSet
EndChar

StartChar: e
Encoding: 101 101 69
Width: 500
Flags: HMW
HStem: -12 68<256 303> 246 52 390 54<251 308>
VStem: 44 99<162.5 232.5 162.5 276>
LayerCount: 2
Fore
SplineSet
420 247 m 2,0,1
 191 246 l 2,2,3
 153.736013986 246 153.736013986 246 148.16796875 239.798828125 c 0,4,5
 143.175652022 232.744921812 143.175652022 232.744921812 143 217 c 0,6,7
 143 139 143 139 187.5 97.5 c 128,-1,8
 232 56 232 56 289 56 c 128,-1,9
 346 56 346 56 378 71 c 0,10,11
 379 71 379 71 398 84 c 128,-1,12
 417 97 417 97 424.5 97 c 128,-1,13
 432 97 432 97 436 91 c 128,-1,14
 440 85 440 85 440 79 c 0,15,16
 440 41 440 41 384 14.5 c 128,-1,17
 328 -12 328 -12 253.5 -12 c 128,-1,18
 179 -12 179 -12 111.5 48 c 128,-1,19
 44 108 44 108 44 210 c 128,-1,20
 44 312 44 312 107.5 378 c 128,-1,21
 171 444 171 444 278 444 c 0,22,23
 356 444 356 444 404 398.5 c 0,24,25
 455.219512195 349.948170732 455.219512195 349.948170732 455.219512195 282.219512195 c 0,26,27
 455.219512195 247 455.219512195 247 420 247 c 2,0,1
160 296 m 1,28,29
 350 296 350 296 380 298 c 1,30,31
 377 338 377 338 349.5 364 c 128,-1,32
 322 390 322 390 280 390 c 128,-1,33
 238 390 238 390 201.5 360.5 c 128,-1,34
 165 331 165 331 160 296 c 1,28,29
EndSplineSet
EndChar

StartChar: f
Encoding: 102 102 70
Width: 359
Flags: HMW
HStem: -4 21G<124.5 166.5> 363 68<75 77.5 75 102 102 105.5 75 117> 663 65<257 301.5 203.5 302>
VStem: 113 96 119 90<551 561.5>
LayerCount: 2
Fore
SplineSet
209 561 m 1,0,-1
 213 433 l 1,1,2
 219 431 219 431 227 431 c 2,3,-1
 250 432 l 1,4,5
 294 433 l 2,6,7
 338 433 338 433 338 411 c 0,8,9
 338 362 338 362 289 362 c 1,10,-1
 223 364 l 2,11,12
 215 364 215 364 212 363 c 1,13,14
 210 283 210 283 210 213 c 2,15,-1
 211 46 l 2,16,17
 211 13 211 13 197.5 4.5 c 128,-1,18
 184 -4 184 -4 133 -4 c 0,19,20
 121 -4 121 -4 117 1.5 c 128,-1,21
 113 7 113 7 113 20 c 2,22,-1
 115 272 l 1,23,-1
 115 316 l 2,24,25
 115 347 115 347 117 363 c 1,26,-1
 69 363 l 2,27,28
 33 363 33 363 33 401 c 0,29,30
 33 431 33 431 75 431 c 2,31,-1
 102 431 l 2,32,33
 115 431 115 431 120 432 c 1,34,35
 119 477 119 477 119 509 c 128,-1,36
 119 541 119 541 121.5 571 c 128,-1,37
 124 601 124 601 133 634 c 128,-1,38
 142 667 142 667 158.5 685.5 c 0,39,40
 196.405405405 728 196.405405405 728 276 728 c 0,41,42
 376 728 376 728 376 688 c 0,43,44
 376 658 376 658 355 645 c 1,45,46
 351 645 351 645 327.5 654 c 128,-1,47
 304 663 304 663 288 663 c 0,48,49
 244 663 244 663 226.5 638 c 128,-1,50
 209 613 209 613 209 561 c 1,0,-1
EndSplineSet
EndChar

StartChar: g
Encoding: 103 103 71
Width: 512
Flags: HMW
HStem: -260 54<265 307 265 314> -37 88 153 59 396 48<223.5 270.5> 429 20G<466.5 492.5>
VStem: 44 79<-139.5 -100.5> 59 85<75 102.5> 70 96<269.5 330 269.5 340> 406 98<-139.5 -71.5>
LayerCount: 2
Fore
SplineSet
166 300 m 0,0,1
 166 212 166 212 245 212 c 0,2,3
 283 212 283 212 303.5 238 c 128,-1,4
 324 264 324 264 324 308.5 c 128,-1,5
 324 353 324 353 303.5 374.5 c 128,-1,6
 283 396 283 396 247 396 c 128,-1,7
 211 396 211 396 188.5 370.5 c 128,-1,8
 166 345 166 345 166 300 c 0,0,1
228.5 -37 m 2,9,-1
 207.5 -37 l 2,10,11
 190 -37 190 -37 154 -29 c 1,12,13
 123 -29 123 -29 123 -106 c 0,14,15
 123 -201 123 -201 265 -206 c 1,16,17
 330 -206 330 -206 368 -180.5 c 128,-1,18
 406 -155 406 -155 406 -106 c 0,19,20
 406 -59.72 406 -59.72 359 -47.5 c 0,21,22
 318.615384615 -37 318.615384615 -37 228.5 -37 c 2,9,-1
398 351 m 1,23,24
 402 327 402 327 402 320 c 0,25,26
 402 253 402 253 355 202 c 0,27,28
 341 187 341 187 305 171 c 128,-1,29
 269 155 269 155 227 153 c 1,30,31
 188.25 153 188.25 153 178.125 148.5 c 128,-1,32
 168 144 168 144 161.5 140 c 128,-1,33
 155 136 155 136 152 130.5 c 0,34,35
 144 115.833333333 144 115.833333333 144 100.416666667 c 128,-1,36
 144 85 144 85 150.5 75.5 c 128,-1,37
 157 66 157 66 163.5 61.5 c 128,-1,38
 170 57 170 57 186.5 54.5 c 0,39,40
 209.6 51 209.6 51 281.96297185 49.4704329191 c 128,-1,41
 354.3259437 47.9408658381 354.3259437 47.9408658381 392.666961744 39.5242347203 c 0,42,43
 504 15.0843746948 504 15.0843746948 504 -87 c 0,44,45
 504 -139 504 -139 465.5 -180 c 128,-1,46
 427 -221 427 -221 371.5 -240.5 c 128,-1,47
 316 -260 316 -260 267.5 -260 c 128,-1,48
 219 -260 219 -260 185 -254 c 128,-1,49
 151 -248 151 -248 117.5 -234 c 128,-1,50
 84 -220 84 -220 64 -192.5 c 128,-1,51
 44 -165 44 -165 44 -128 c 128,-1,52
 44 -91 44 -91 62 -59.5 c 128,-1,53
 80 -28 80 -28 103 -12 c 1,54,55
 59 26 59 26 59 69 c 0,56,57
 59 92 59 92 68 110 c 128,-1,58
 77 128 77 128 86.5 136 c 128,-1,59
 96 144 96 144 112.5 154 c 128,-1,60
 129 164 129 164 135 169 c 1,61,62
 116 184 116 184 105.5 195 c 128,-1,63
 95 206 95 206 82.5 233.5 c 128,-1,64
 70 261 70 261 70 295 c 0,65,66
 70 362 70 362 123.5 403 c 128,-1,67
 177 444 177 444 258.5 444 c 128,-1,68
 340 444 340 444 373 405 c 1,69,70
 437 449 437 449 482 449 c 0,71,72
 496 449 496 449 503.5 430 c 128,-1,73
 511 411 511 411 511 392.5 c 128,-1,74
 511 374 511 374 506 369.5 c 128,-1,75
 501 365 501 365 488 365 c 0,76,77
 434 365 434 365 398 351 c 1,23,24
EndSplineSet
EndChar

StartChar: h
Encoding: 104 104 72
Width: 563
Flags: HMW
HStem: -2 21G<108.5 157.5 408.5 467.5> 375 69<295.5 336.5> 718 20G<111 145>
VStem: 82 96<393 718 690 705 693.5 715.5> 397 96<224 293.5>
LayerCount: 2
Fore
SplineSet
77 44 m 2,0,-1
 82 393 l 1,1,-1
 82 705 l 2,2,3
 82 722 82 722 92 730 c 128,-1,4
 102 738 102 738 140 738 c 128,-1,5
 178 738 178 738 178 718 c 2,6,-1
 178 690 l 1,7,8
 176.4 640.4 176.4 640.4 176.4 591.2 c 128,-1,9
 176.4 542 176.4 542 176.7 477.5 c 128,-1,10
 177 413 177 413 177 403 c 1,11,12
 221.518518519 425.259259259 221.518518519 425.259259259 263.259259259 434.62962963 c 128,-1,13
 305 444 305 444 326 444 c 0,14,15
 423 444 423 444 458 394 c 128,-1,16
 493 344 493 344 493 224 c 128,-1,17
 493 104 493 104 491.5 84.5 c 128,-1,18
 490 65 490 65 490 50.5 c 2,19,-1
 490 30.5 l 2,20,21
 490 9.92307692308 490 9.92307692308 481 6.46153846154 c 0,22,23
 459 -2 459 -2 438.5 -2 c 128,-1,24
 418 -2 418 -2 410 0 c 128,-1,25
 402 2 402 2 399 10 c 128,-1,26
 396 18 396 18 395.5 22 c 128,-1,27
 395 26 395 26 395.5 42 c 128,-1,28
 396 58 396 58 396 64 c 2,29,-1
 397 253 l 2,30,31
 397 320 397 320 376.5 347.5 c 128,-1,32
 356 375 356 375 288 375 c 0,33,34
 180 375 180 375 180 340 c 2,35,-1
 179 254 l 1,36,37
 179 112 179 112 177.5 79 c 128,-1,38
 176 46 176 46 176.5 36.5 c 128,-1,39
 177 27 177 27 176 19.5 c 128,-1,40
 175 12 175 12 170.5 7.5 c 0,41,42
 161 -2 161 -2 133 -2 c 128,-1,43
 105 -2 105 -2 96.5 0 c 0,44,45
 77 4.58823529412 77 4.58823529412 77 44 c 2,0,-1
EndSplineSet
EndChar

StartChar: i
Encoding: 105 105 73
Width: 246
Flags: HMW
HStem: -1 21G<117.5 132> 657 20G<139.5 156.5>
VStem: 81 91
LayerCount: 2
Fore
SplineSet
84.5 595.5 m 128,-1,1
 71 613 71 613 71.5 628.5 c 128,-1,2
 72 644 72 644 91.5555555556 660.5 c 128,-1,3
 111.111111111 677 111.111111111 677 142 677 c 0,4,5
 188 677 188 677 188 633 c 0,6,7
 188 602.085714286 188 602.085714286 168.5 587.042857143 c 128,-1,8
 149 572 149 572 133.5 572 c 128,-1,9
 118 572 118 572 108 575 c 128,-1,0
 98 578 98 578 84.5 595.5 c 128,-1,1
170 217 m 1,10,-1
 173 19 l 2,11,12
 173 7 173 7 170 4 c 1,13,14
 160 -1 160 -1 128 -1 c 128,-1,15
 96 -1 96 -1 88.5 3.5 c 128,-1,16
 81 8 81 8 81 31 c 2,17,-1
 77 214 l 1,18,19
 77 310 77 310 78 336 c 2,20,-1
 81 395 l 1,21,22
 81 423 81 423 90 428 c 128,-1,23
 99 433 99 433 124.5 433 c 128,-1,24
 150 433 150 433 168 430 c 1,25,26
 170 386 170 386 170 361 c 2,27,-1
 170 217 l 1,10,-1
EndSplineSet
EndChar

StartChar: j
Encoding: 106 106 74
Width: 249
Flags: HMW
HStem: -260 21G<-28.5 81.5> 432 136<104.5 121.5> 656 20G<131.5 153.5>
VStem: 67 115<609 634> 80 92
LayerCount: 2
Fore
SplineSet
115 674 m 0,0,1
 121 676 121 676 135 676 c 0,2,3
 182 676 182 676 182 631 c 0,4,5
 182 568 182 568 119 568 c 0,6,7
 96 568 96 568 81.5 581.5 c 128,-1,8
 67 595 67 595 67 620 c 0,9,10
 67 662 67 662 115 674 c 0,0,1
79 -82 m 2,11,-1
 80 316 l 1,12,-1
 80 342 l 2,13,14
 80 357 80 357 79.5 365 c 128,-1,15
 79 373 79 373 79.5 383.5 c 128,-1,16
 80 394 80 394 80.5 399.5 c 128,-1,17
 81 405 81 405 82.5 411.5 c 128,-1,18
 84 418 84 418 86.5 421 c 128,-1,19
 89 424 89 424 92.5 427 c 0,20,21
 98.3333333333 432 98.3333333333 432 117.166666667 432 c 128,-1,22
 136 432 136 432 169 429 c 1,23,24
 172 379 172 379 172 187.5 c 2,25,-1
 172 -12.5 l 2,26,27
 172 -60.5 172 -60.5 167.5 -82.25 c 128,-1,28
 163 -104 163 -104 157 -130 c 128,-1,29
 151 -156 151 -156 142 -171 c 128,-1,30
 133 -186 133 -186 119 -205 c 128,-1,31
 105 -224 105 -224 87 -234.5 c 0,32,33
 43.2857142857 -260 43.2857142857 -260 -13.8571428571 -260 c 128,-1,34
 -71 -260 -71 -260 -71 -230 c 0,35,36
 -71 -205 -71 -205 -56 -193 c 1,37,38
 -23 -198 -23 -198 -14 -198 c 0,39,40
 23 -198 23 -198 51 -171.5 c 128,-1,41
 79 -145 79 -145 79 -82 c 2,11,-1
EndSplineSet
EndChar

StartChar: k
Encoding: 107 107 75
Width: 487
Flags: HMW
HStem: -12 21G<408 423.5> -2 21G<97 150> 718 20G<106.5 145>
VStem: 81 90<457.5 632> 81 96
LayerCount: 2
Fore
SplineSet
172 681 m 2,0,-1
 171 491 l 2,1,2
 171 374 171 374 177 289 c 1,3,4
 196 303 196 303 224 325 c 0,5,6
 287.304347826 374.739130435 287.304347826 374.739130435 314.152173913 391.869565217 c 128,-1,7
 341 409 341 409 354 419.5 c 0,8,9
 384.333333333 444 384.333333333 444 394.666666667 444 c 128,-1,10
 405 444 405 444 416.5 434.5 c 128,-1,11
 428 425 428 425 428 417 c 0,12,13
 428 400 428 400 384.5 367 c 128,-1,14
 341 334 341 334 297.5 304.5 c 128,-1,15
 254 275 254 275 254 267 c 128,-1,16
 254 259 254 259 277.5 234 c 128,-1,17
 301 209 301 209 327.5 183.5 c 128,-1,18
 354 158 354 158 382.5 131.5 c 128,-1,19
 411 105 411 105 413 103 c 128,-1,20
 415 101 415 101 424.5 92.5 c 128,-1,21
 434 84 434 84 439 79 c 128,-1,22
 444 74 444 74 451 66 c 0,23,24
 465 50 465 50 465 39 c 128,-1,25
 465 28 465 28 446 8 c 128,-1,26
 427 -12 427 -12 418.5 -12 c 128,-1,27
 410 -12 410 -12 405 -9.5 c 128,-1,28
 400 -7 400 -7 397.5 -4 c 128,-1,29
 395 -1 395 -1 388.5 6 c 128,-1,30
 382 13 382 13 368 27.5 c 128,-1,31
 354 42 354 42 315 83 c 0,32,33
 228.528089888 173.906367041 228.528089888 173.906367041 175 220 c 1,34,35
 174 183 174 183 174 162 c 2,36,-1
 176 63 l 2,37,38
 176 59 176 59 176 46.5 c 128,-1,39
 176 34 176 34 175.5 26 c 128,-1,40
 175 18 175 18 169.5 10 c 128,-1,41
 164 2 164 2 152.5 0 c 128,-1,42
 141 -2 141 -2 122 -2 c 128,-1,43
 103 -2 103 -2 95 -0.5 c 128,-1,44
 87 1 87 1 83 9.5 c 0,45,46
 78 20.125 78 20.125 78 64 c 2,47,-1
 82 472 l 1,48,-1
 81 615 l 2,49,50
 81 723.75 81 723.75 94 733.5 c 0,51,52
 100 738 100 738 128 738 c 128,-1,53
 156 738 156 738 164 728 c 128,-1,54
 172 718 172 718 172 681 c 2,0,-1
EndSplineSet
EndChar

StartChar: l
Encoding: 108 108 76
Width: 323
Flags: HMW
HStem: -7 65<143 254.5> 718 20G<98.5 124.5>
VStem: 78 96
LayerCount: 2
Fore
SplineSet
79 339 m 1,0,-1
 77.3333333333 543.222222222 l 2,1,2
 77.3333333333 563 77.3333333333 563 77.6666666667 581.5 c 128,-1,3
 78 600 78 600 78 613.5 c 2,4,-1
 78 661 l 2,5,6
 78 706 78 706 84.5 722 c 128,-1,7
 91 738 91 738 123.5 738 c 128,-1,8
 156 738 156 738 164 733.5 c 128,-1,9
 172 729 172 729 172 713 c 2,10,-1
 173 344 l 1,11,-1
 174 124 l 2,12,13
 174 94 174 94 192 76 c 128,-1,14
 210 58 210 58 233 58 c 128,-1,15
 256 58 256 58 279.5 63.5 c 128,-1,16
 303 69 303 69 309 69 c 0,17,18
 322 69 322 69 322 53 c 0,19,20
 322 19 322 19 275 3 c 1,21,22
 242 -7 242 -7 204.5 -7 c 128,-1,23
 167 -7 167 -7 144 6 c 128,-1,24
 121 19 121 19 108.5 38 c 128,-1,25
 96 57 96 57 89 91.5 c 0,26,27
 79 140.785714286 79 140.785714286 79 234 c 2,28,-1
 79 339 l 1,0,-1
EndSplineSet
EndChar

StartChar: m
Encoding: 109 109 77
Width: 785
Flags: HMW
HStem: -1 21G<89.5 144.5 637.5 678> 364 80 372 72<536.5 575> 423 20G<322 347.5>
VStem: 82 90<311 320.5> 346 90 619 96<86 206 206 238>
LayerCount: 2
Fore
SplineSet
120 434 m 2,0,-1
 163 433 l 2,1,2
 164 432 164 432 172 399 c 1,3,4
 180 402 180 402 214 415.5 c 0,5,6
 283.259259259 443 283.259259259 443 322 443 c 0,7,8
 387 443 387 443 426 390 c 1,9,-1
 436.5 397 l 2,10,11
 447 404 447 404 449.5 405.5 c 2,12,-1
 462 413 l 2,13,14
 472 419 472 419 477 421 c 128,-1,15
 482 423 482 423 492.5 428 c 128,-1,16
 503 433 503 433 510.5 435 c 128,-1,17
 518 437 518 437 528.5 439.5 c 0,18,19
 547.4 444 547.4 444 571 444 c 0,20,21
 676 444 676 444 705 344 c 1,22,23
 713 322 713 322 715 238 c 1,24,-1
 715 52 l 2,25,26
 715 18 715 18 703.5 8.5 c 128,-1,27
 692 -1 692 -1 660.5 -1 c 128,-1,28
 629 -1 629 -1 622.5 3.5 c 128,-1,29
 616 8 616 8 616 26 c 2,30,-1
 619 86 l 1,31,-1
 619 206 l 2,32,33
 619 210 619 210 619 232 c 128,-1,34
 619 254 619 254 618.5 270 c 128,-1,35
 618 286 618 286 613.5 310 c 128,-1,36
 609 334 609 334 599.5 344.5 c 0,37,38
 574.619047619 372 574.619047619 372 526 372 c 0,39,40
 433 372 433 372 433 311 c 1,41,-1
 436 220 l 1,42,-1
 436 84 l 2,43,44
 436 40 436 40 428 26 c 0,45,46
 423.714285714 18.8571428571 423.714285714 18.8571428571 410.178571429 18.8571428571 c 0,47,48
 354.428571429 18.8571428571 354.428571429 18.8571428571 345 33 c 0,49,50
 338.212121212 43.1818181818 338.212121212 43.1818181818 339.606060606 64.0909090909 c 128,-1,51
 341 85 341 85 341 88 c 2,52,-1
 346 265 l 1,53,54
 346 322 346 322 327 343 c 128,-1,55
 308 364 308 364 268 364 c 0,56,57
 172 364 172 364 172 327 c 2,58,-1
 174 245 l 1,59,-1
 172 72 l 2,60,61
 172 66 172 66 172.5 53.5 c 128,-1,62
 173 41 173 41 172.5 37 c 2,63,-1
 171 25 l 2,64,65
 170 17 170 17 167.5 14.5 c 0,66,67
 156 3 156 3 148.5 2 c 0,68,69
 126 -1 126 -1 113.5 -1 c 128,-1,70
 101 -1 101 -1 96.5 0 c 128,-1,71
 92 1 92 1 89 3.5 c 128,-1,72
 86 6 86 6 84 8.5 c 128,-1,73
 82 11 82 11 80.5 16.5 c 128,-1,74
 79 22 79 22 78.5 26.5 c 128,-1,75
 78 31 78 31 78 39.5 c 2,76,-1
 78 91 l 1,77,-1
 82 299 l 1,78,-1
 84 382 l 1,79,-1
 86 402 l 1,80,81
 86 414.333333333 86 414.333333333 91.5 421.666666667 c 128,-1,82
 97 429 97 429 100 430 c 0,83,84
 112 434 112 434 120 434 c 2,0,-1
EndSplineSet
EndChar

StartChar: n
Encoding: 110 110 78
Width: 554
Flags: HMW
HStem: -1 21G<123 149.5 438 453> 376 68<282 315>
VStem: 81 94<13 28> 389 95<193 264 161.5 266>
LayerCount: 2
Fore
SplineSet
115 433 m 2,0,-1
 162 434 l 1,1,2
 162 429 162 429 168 409 c 1,3,4
 174 411 174 411 202.5 421 c 0,5,6
 268.05 444 268.05 444 311.525 444 c 128,-1,7
 355 444 355 444 388 430.5 c 128,-1,8
 421 417 421 417 439 396.5 c 128,-1,9
 457 376 457 376 467.5 341.5 c 0,10,11
 484 287.285714286 484 287.285714286 484 196 c 1,12,13
 479 25 l 2,14,15
 479 5 479 5 475.5 2 c 128,-1,16
 472 -1 472 -1 447.5 -1 c 128,-1,17
 423 -1 423 -1 391 3 c 1,18,19
 388 27 388 27 388 87 c 2,20,-1
 389 215 l 2,21,22
 389 295 389 295 362 335.5 c 128,-1,23
 335 376 335 376 269.5 376 c 128,-1,24
 204 376 204 376 170 357 c 1,25,-1
 172 223 l 2,26,27
 173 133 173 133 173 83 c 1,28,-1
 175 24 l 2,29,30
 175 8 175 8 167 3.5 c 128,-1,31
 159 -1 159 -1 133 -1 c 2,32,-1
 81 1 l 1,33,-1
 77 210 l 1,34,-1
 81 362 l 1,35,-1
 81 398 l 2,36,37
 81 433 81 433 115 433 c 2,0,-1
EndSplineSet
EndChar

StartChar: o
Encoding: 111 111 79
Width: 555
Flags: HMW
HStem: -12 74<244 327.5 244 335.5> 375 69<252.5 338.5 222 339>
VStem: 44 98<170.5 273.5 170.5 286.5> 425 86<177.5 262.5>
LayerCount: 2
Fore
SplineSet
511 226 m 0,0,1
 511 123 511 123 440.5 55.5 c 128,-1,2
 370 -12 370 -12 271.5 -12 c 128,-1,3
 173 -12 173 -12 108.5 50 c 128,-1,4
 44 112 44 112 44 217.5 c 128,-1,5
 44 323 44 323 112.5 383.5 c 128,-1,6
 181 444 181 444 301 444 c 0,7,8
 368.333333333 444 368.333333333 444 433.5 401.5 c 0,9,10
 468 379 468 379 489.5 333.5 c 128,-1,11
 511 288 511 288 511 226 c 0,0,1
386.5 107.5 m 128,-1,13
 425 153 425 153 425 220 c 128,-1,14
 425 287 425 287 391.5 331 c 128,-1,15
 358 375 358 375 293.5 375 c 128,-1,16
 229 375 229 375 185.5 335 c 128,-1,17
 142 295 142 295 142 221 c 128,-1,18
 142 147 142 147 182 104.5 c 128,-1,19
 222 62 222 62 285 62 c 128,-1,12
 348 62 348 62 386.5 107.5 c 128,-1,13
EndSplineSet
EndChar

StartChar: p
Encoding: 112 112 80
Width: 571
Flags: HMW
HStem: -263 21G<91.5 112> -12 61<269.5 331 230 372> 378 66<299.5 342>
VStem: 82 96 431 96<172 270>
LayerCount: 2
Fore
SplineSet
179.5 260.375 m 2,0,-1
 178 127 l 2,1,2
 178 81 178 81 195 65 c 128,-1,3
 212 49 212 49 273 49 c 0,4,5
 355 49 355 49 393 95.5 c 128,-1,6
 431 142 431 142 431 218.5 c 128,-1,7
 431 295 431 295 396.5 336.5 c 128,-1,8
 362 378 362 378 303 378 c 0,9,10
 269.52173913 378 269.52173913 378 227.260869565 364.5 c 128,-1,11
 185 351 185 351 180 339 c 0,12,13
 178 336 178 336 178 326 c 2,14,-1
 179 298 l 2,15,16
 179.5 283.5 179.5 283.5 179.5 260.375 c 2,0,-1
182 4 m 1,17,18
 179 -51.5 179 -51.5 179 -158 c 1,19,20
 180.894736842 -185.157894737 180.894736842 -185.157894737 180.894736842 -216.631578947 c 128,-1,21
 180.894736842 -248.105263158 180.894736842 -248.105263158 173.947368421 -255.552631579 c 128,-1,22
 167 -263 167 -263 102 -263 c 0,23,24
 87 -263 87 -263 82 -250 c 128,-1,25
 77 -237 77 -237 77.5 -217.5 c 0,26,27
 84.4 51.6 84.4 51.6 84.4 164.36 c 1,28,-1
 82 370 l 1,29,-1
 82 383 l 2,30,31
 82 392 82 392 82.5 395 c 128,-1,32
 83 398 83 398 83.5 404.5 c 128,-1,33
 84 411 84 411 85 413.5 c 128,-1,34
 86 416 86 416 87.5 420.5 c 128,-1,35
 89 425 89 425 91.5 426.5 c 128,-1,36
 94 428 94 428 98 430.5 c 0,37,38
 103.6 434 103.6 434 135.3 434 c 128,-1,39
 167 434 167 434 170 433 c 1,40,41
 171 431 171 431 172 414 c 128,-1,42
 173 397 173 397 175 389 c 1,43,44
 250 444 250 444 338.5 444 c 128,-1,45
 427 444 427 444 477 382 c 128,-1,46
 527 320 527 320 527 244 c 128,-1,47
 527 168 527 168 503.5 114 c 128,-1,48
 480 60 480 60 424 24 c 128,-1,49
 368 -12 368 -12 287 -12 c 0,50,51
 241 -12 241 -12 182 4 c 1,17,18
EndSplineSet
EndChar

StartChar: q
Encoding: 113 113 81
Width: 590
Flags: HMW
HStem: -262 21G<462.5 480> -12 64<251 296> 383 61<259 276 210.5 332.5>
VStem: 44 99<167 227.5 167 275.5> 423 82 423 89<299.5 386.5>
LayerCount: 2
Fore
SplineSet
512 366 m 1,0,-1
 508 285 l 1,1,-1
 508 224 l 2,2,3
 508 -149 508 -149 505 -245 c 0,4,5
 505 -262 505 -262 467.5 -262 c 128,-1,6
 430 -262 430 -262 419 -258 c 0,7,8
 413 -256 413 -256 413 29 c 1,9,10
 409 27 409 27 396.5 22 c 128,-1,11
 384 17 384 17 380 15 c 128,-1,12
 376 13 376 13 365.5 8.5 c 128,-1,13
 355 4 355 4 350 2.5 c 2,14,-1
 335 -2 l 2,15,16
 301.666666667 -12 301.666666667 -12 268 -12 c 0,17,18
 175 -12 175 -12 109.5 49 c 128,-1,19
 44 110 44 110 44 209.5 c 128,-1,20
 44 309 44 309 110.5 376.5 c 128,-1,21
 177 444 177 444 276 444 c 1,22,23
 356 441 356 441 426 386 c 1,24,-1
 432 432 l 1,25,-1
 478 432 l 2,26,27
 499.666666667 432 499.666666667 432 505.5 421.5 c 0,28,29
 508 417 508 417 509.5 414.5 c 128,-1,30
 511 412 511 412 511.5 404.5 c 128,-1,31
 512 397 512 397 512 394 c 2,32,-1
 512 366 l 1,0,-1
422 232 m 1,33,-1
 423 312 l 2,34,35
 423 338 423 338 386 360.5 c 128,-1,36
 349 383 349 383 290 383 c 0,37,38
 214 383 214 383 167 311 c 0,39,40
 143 274 143 274 143 208.5 c 128,-1,41
 143 143 143 143 186 97.5 c 128,-1,42
 229 52 229 52 300 52 c 0,43,44
 338 52 338 52 374.5 62.5 c 128,-1,45
 411 73 411 73 419 90 c 1,46,47
 423 94 423 94 423 161 c 2,48,-1
 422 232 l 1,33,-1
EndSplineSet
EndChar

StartChar: r
Encoding: 114 114 82
Width: 355
Flags: HMW
HStem: -1 21G<120 154> 423 20G<286.5 328>
VStem: 84 89
LayerCount: 2
Fore
SplineSet
77 106 m 1,0,-1
 84 328 l 2,1,2
 85 336 85 336 85 356 c 128,-1,3
 85 376 85 376 86.5 386 c 128,-1,4
 88 396 88 396 91 409.5 c 0,5,6
 96.6666666667 435 96.6666666667 435 120 435 c 0,7,8
 170 435 170 435 170 413 c 0,9,10
 170 396 170 396 171 389 c 1,11,12
 177 389 177 389 229 416 c 128,-1,13
 281 443 281 443 318 443 c 0,14,15
 333 443 333 443 338.5 435.5 c 128,-1,16
 344 428 344 428 344 401 c 128,-1,17
 344 374 344 374 337 360 c 1,18,19
 331 359 331 359 315.5 357 c 128,-1,20
 300 355 300 355 292.5 354 c 128,-1,21
 285 353 285 353 271 350.5 c 128,-1,22
 257 348 257 348 249 346.5 c 128,-1,23
 241 345 241 345 229.5 342.5 c 128,-1,24
 218 340 218 340 210.5 337 c 128,-1,25
 203 334 203 334 195 331 c 0,26,27
 179 325 179 325 173 315 c 1,28,-1
 173 250 l 1,29,-1
 175 80 l 1,30,-1
 175 65 l 2,31,32
 175 61 175 61 175 48.5 c 128,-1,33
 175 36 175 36 174.5 28 c 128,-1,34
 174 20 174 20 169.5 12 c 0,35,36
 162.1875 -1 162.1875 -1 128.59375 -1 c 128,-1,37
 95 -1 95 -1 89 3 c 0,38,39
 77 11 77 11 77 106 c 1,0,-1
EndSplineSet
EndChar

StartChar: s
Encoding: 115 115 83
Width: 336
Flags: HMW
HStem: -12 57<70.5 99.5 70.5 125.5> 424 20G<173 240>
VStem: 70 95<298 332.5> 180 101<89.5 116.5>
LayerCount: 2
Fore
SplineSet
40 49 m 1,0,-1
 76 45 l 1,1,2
 116 45 116 45 148 62.5 c 128,-1,3
 180 80 180 80 180 113 c 0,4,5
 180 125 180 125 175.5 138.5 c 128,-1,6
 171 152 171 152 143.5 177.5 c 128,-1,7
 116 203 116 203 93 236 c 128,-1,8
 70 269 70 269 70 310 c 0,9,10
 70 349.885714286 70 349.885714286 105.5 393.5 c 0,11,12
 123 415 123 415 157 429.5 c 128,-1,13
 191 444 191 444 223.5 444 c 128,-1,14
 256 444 256 444 263.5 436.5 c 128,-1,15
 271 429 271 429 269 415 c 1,16,-1
 261 386 l 1,17,18
 246 390 246 390 226.5 390 c 128,-1,19
 207 390 207 390 186 374.5 c 128,-1,20
 165 359 165 359 165 335 c 128,-1,21
 165 311 165 311 183 286.5 c 128,-1,22
 201 262 201 262 223 244 c 128,-1,23
 245 226 245 226 263 195 c 128,-1,24
 281 164 281 164 281 128 c 0,25,26
 281 59 281 59 220 23.5 c 128,-1,27
 159 -12 159 -12 75 -12 c 0,28,29
 53 -12 53 -12 43 -3.5 c 128,-1,30
 33 5 33 5 33 23.5 c 128,-1,31
 33 42 33 42 40 49 c 1,0,-1
EndSplineSet
EndChar

StartChar: t
Encoding: 116 116 84
Width: 375
Flags: HMW
HStem: -12 73<232 265.5> 362 68<233 291.5> 362 74<268.5 326.5> 540 20G<172 192>
VStem: 101 92<129.5 168.5>
LayerCount: 2
Fore
SplineSet
195 289 m 2,0,-1
 193 145 l 2,1,2
 193 104 193 104 207 82.5 c 128,-1,3
 221 61 221 61 254 61 c 128,-1,4
 287 61 287 61 309.5 67 c 0,5,6
 353 78.6 353 78.6 353 55 c 0,7,8
 353 -12 353 -12 229 -12 c 0,9,10
 159 -12 159 -12 120 51 c 1,11,12
 101 91 101 91 101 146 c 2,13,-1
 103 262 l 1,14,-1
 105 346 l 2,15,16
 105 360 105 360 101 363.5 c 128,-1,17
 97 367 97 367 86 367 c 2,18,-1
 47 364 l 1,19,20
 22 364 22 364 22 380 c 0,21,22
 22 408 22 408 28.5 419.5 c 128,-1,23
 35 431 35 431 53 431 c 1,24,-1
 92 428 l 1,25,26
 106 428 106 428 106.037879276 462.437499195 c 0,27,28
 106 466 106 466 106 467 c 2,29,-1
 106 524 l 2,30,31
 106 550 106 550 107 554 c 1,32,33
 119 560 119 560 186 560 c 0,34,35
 204 560 204 560 204 541 c 2,36,-1
 201 431 l 1,37,38
 213 430 213 430 240 430 c 1,39,-1
 320 436 l 1,40,41
 336 436 336 436 336 417 c 0,42,43
 336 362 336 362 282 362 c 1,44,-1
 217 366 l 2,45,46
 201 366 201 366 197 364 c 1,47,48
 195 346 195 346 195 289 c 2,0,-1
EndSplineSet
EndChar

StartChar: u
Encoding: 117 117 85
Width: 555
Flags: HMW
HStem: -12 77<215.5 279.5 215.5 285.5> 412 20G<100 138 400 423>
VStem: 70 90<212.5 226.5> 381 93
LayerCount: 2
Fore
SplineSet
376 113 m 2,0,-1
 381 295 l 1,1,-1
 381 347 l 2,2,3
 381 389 381 389 387.5 410.5 c 128,-1,4
 394 432 394 432 415 432 c 0,5,6
 450 432 450 432 465 427 c 1,7,8
 471 419 471 419 471 374 c 2,9,-1
 474 121 l 1,10,-1
 478.285714286 32.9081632653 l 1,11,12
 478.285714286 1.18367346939 478.285714286 1.18367346939 470 0 c 0,13,14
 448.5625 -3.0625 448.5625 -3.0625 431.28125 -3.0625 c 128,-1,15
 414 -3.0625 414 -3.0625 407.5 0.46875 c 128,-1,16
 401 4 401 4 399 10.5 c 128,-1,17
 397 17 397 17 396 24 c 128,-1,18
 395 31 395 31 394.5 38 c 0,19,20
 393.344827586 54.1724137931 393.344827586 54.1724137931 389 52 c 1,21,22
 376.691699605 53.3675889328 376.691699605 53.3675889328 341 21.5 c 0,23,24
 327 9 327 9 297 -1.5 c 128,-1,25
 267 -12 267 -12 224 -12 c 128,-1,26
 181 -12 181 -12 147.5 9 c 128,-1,27
 114 30 114 30 98.5 66 c 0,28,29
 70 132.193548387 70 132.193548387 70 214 c 1,30,-1
 72 373 l 1,31,-1
 73 391 l 1,32,33
 73 413 73 413 82 422.5 c 128,-1,34
 91 432 91 432 119 432 c 128,-1,35
 147 432 147 432 154.5 427.5 c 128,-1,36
 162 423 162 423 162 405 c 2,37,-1
 160 259 l 1,38,39
 160 144 160 144 184.5 105.5 c 0,40,41
 195 89 195 89 216.5 77 c 128,-1,42
 238 65 238 65 268 65 c 128,-1,43
 298 65 298 65 337 77 c 128,-1,44
 376 89 376 89 376 113 c 2,0,-1
EndSplineSet
EndChar

StartChar: v
Encoding: 118 118 86
Width: 476
Flags: HMW
HStem: -12 21G<231 247>
LayerCount: 2
Fore
SplineSet
252 124 m 1,0,1
 271 149 271 149 287 180.5 c 128,-1,2
 303 212 303 212 346 305 c 128,-1,3
 389 398 389 398 411 440 c 0,4,5
 414.078947368 444.105263158 414.078947368 444.105263158 422.855263158 444.105263158 c 128,-1,6
 431.631578947 444.105263158 431.631578947 444.105263158 446.315789474 436.052631579 c 128,-1,7
 461 428 461 428 464 422 c 1,8,9
 465 415 465 415 444 369 c 1,10,11
 366 185 366 185 278 33 c 2,12,-1
 269.5 18.5 l 2,13,14
 251.620689655 -12 251.620689655 -12 240 -12 c 0,15,16
 217 -12 217 -12 196 26 c 1,17,18
 101 212 101 212 78.5 261.5 c 128,-1,19
 56 311 56 311 43 334.5 c 0,20,21
 11.9047619048 390.710622711 11.9047619048 390.710622711 11.9047619048 412.265306122 c 0,22,23
 11.9047619048 421.957875458 11.9047619048 421.957875458 36.9123809524 433.018937729 c 128,-1,24
 61.92 444.08 61.92 444.08 71.24 444.08 c 128,-1,25
 80.56 444.08 80.56 444.08 85.78 444.04 c 128,-1,26
 91 444 91 444 100.5 430.5 c 128,-1,27
 110 417 110 417 120.5 394 c 128,-1,28
 131 371 131 371 140.5 353.5 c 128,-1,29
 150 336 150 336 188.5 250 c 128,-1,30
 227 164 227 164 252 124 c 1,0,1
EndSplineSet
EndChar

StartChar: w
Encoding: 119 119 87
Width: 727
Flags: HMW
HStem: -13 21G<230 245> -12 21G<479 499>
LayerCount: 2
Fore
SplineSet
379 163 m 1,0,1
 349 131 349 131 339 115 c 0,2,3
 254 -13 254 -13 234 -13 c 0,4,5
 229 -13 229 -13 214 3 c 128,-1,6
 199 19 199 19 191.5 33 c 128,-1,7
 184 47 184 47 114 189.5 c 128,-1,8
 44 332 44 332 27.9782608696 366.47826087 c 128,-1,9
 11.9565217391 400.956521739 11.9565217391 400.956521739 11.9565217391 411.256038647 c 128,-1,10
 11.9565217391 421.555555556 11.9565217391 421.555555556 38.3982608696 432.817777778 c 128,-1,11
 64.84 444.08 64.84 444.08 71.9 444.08 c 128,-1,12
 78.96 444.08 78.96 444.08 80 444 c 0,13,14
 94 443 94 443 126 367 c 1,15,16
 155.526315789 302.578947368 155.526315789 302.578947368 202.263157895 202.289473684 c 128,-1,17
 249 102 249 102 248 102 c 2,18,-1
 272 132 l 2,19,20
 344.571428571 222.714285714 344.571428571 222.714285714 346 227 c 1,21,22
 331 265 331 265 325 276 c 128,-1,23
 319 287 319 287 306 317.5 c 128,-1,24
 293 348 293 348 282 369.5 c 128,-1,25
 271 391 271 391 271 398 c 128,-1,26
 271 405 271 405 280 411 c 128,-1,27
 289 417 289 417 298.5 421.5 c 128,-1,28
 308 426 308 426 320.5 431.5 c 128,-1,29
 333 437 333 437 336 437.5 c 128,-1,30
 339 438 339 438 345 432 c 128,-1,31
 351 426 351 426 357 416.5 c 128,-1,32
 363 407 363 407 368 398 c 0,33,34
 393 353 393 353 430.5 270.5 c 128,-1,35
 468 188 468 188 477 169 c 1,36,37
 494 126 494 126 502 118 c 1,38,39
 510.28358209 118 510.28358209 118 536.141791045 170.5 c 128,-1,40
 562 223 562 223 576.5 253.5 c 128,-1,41
 591 284 591 284 608 321.5 c 128,-1,42
 625 359 625 359 631 371 c 1,43,44
 644.22574658 410.67723974 644.22574658 410.67723974 665.085069444 433.346643519 c 0,45,46
 672.464136915 441.366034229 672.464136915 441.366034229 679.732068458 442.683017114 c 128,-1,47
 687 444 687 444 700.5 438 c 128,-1,48
 714 432 714 432 716 427 c 1,49,50
 716 409 716 409 696 359 c 1,51,52
 638 231 638 231 609 179 c 128,-1,53
 580 127 580 127 568.5 105 c 128,-1,54
 557 83 557 83 547 65.5 c 128,-1,55
 537 48 537 48 525.5 29 c 0,56,57
 500.684210526 -12 500.684210526 -12 485 -12 c 0,58,59
 476.572916667 -12 476.572916667 -12 433.786458333 65.5 c 128,-1,60
 391 143 391 143 379 163 c 1,0,1
EndSplineSet
EndChar

StartChar: x
Encoding: 120 120 88
Width: 446
Flags: HMW
HStem: -12 21G<57 74.5 358 380.5> 423 20G<72 91> 424 20G<377.5 388.5>
LayerCount: 2
Fore
SplineSet
299 356 m 1,0,1
 373 444 373 444 381.5 444 c 128,-1,2
 390 444 390 444 402 429 c 128,-1,3
 414 414 414 414 414 410 c 0,4,5
 414 392 414 392 311 271 c 1,6,-1
 299.5 259.5 l 2,7,8
 281 241 281 241 281 233.5 c 128,-1,9
 281 226 281 226 293.5 209 c 128,-1,10
 306 192 306 192 326 169.5 c 128,-1,11
 346 147 346 147 351.5 139.5 c 128,-1,12
 357 132 357 132 378.5 107.5 c 0,13,14
 424 55.6511627907 424 55.6511627907 424 38.8255813953 c 128,-1,15
 424 22 424 22 405 5 c 128,-1,16
 386 -12 386 -12 372.5 -12 c 128,-1,17
 359 -12 359 -12 345 2.5 c 128,-1,18
 331 17 331 17 313 40.5 c 128,-1,19
 295 64 295 64 292 67.5 c 128,-1,20
 289 71 289 71 272 93.5 c 128,-1,21
 255 116 255 116 239.5 133 c 128,-1,22
 224 150 224 150 218 150 c 128,-1,23
 212 150 212 150 205.5 144 c 128,-1,24
 199 138 199 138 189.5 124 c 128,-1,25
 180 110 180 110 178 108 c 0,26,27
 84 -12 84 -12 64 -12 c 0,28,29
 54 -12 54 -12 42.5 -0.5 c 128,-1,30
 31 11 31 11 31 19 c 0,31,32
 31 37 31 37 131 151 c 1,33,34
 136 155 136 155 155 178 c 128,-1,35
 174 201 174 201 174 207.5 c 128,-1,36
 174 214 174 214 165 226.5 c 0,37,38
 148.285714286 249.714285714 148.285714286 249.714285714 129.642857143 268.357142857 c 128,-1,39
 111 287 111 287 96 304.5 c 128,-1,40
 81 322 81 322 71 334 c 128,-1,41
 61 346 61 346 48.5 362 c 0,42,43
 22 395.92 22 395.92 22 405.46 c 128,-1,44
 22 415 22 415 44.5 429 c 128,-1,45
 67 443 67 443 78.5 443 c 128,-1,46
 90 443 90 443 103.5 430 c 128,-1,47
 117 417 117 417 136.5 393 c 128,-1,48
 156 369 156 369 158.5 366 c 128,-1,49
 161 363 161 363 178.5 341 c 0,50,51
 223.045454545 285 223.045454545 285 230.522727273 285 c 0,52,53
 244.904761905 285 244.904761905 285 283 335 c 2,54,-1
 299 356 l 1,0,1
EndSplineSet
EndChar

StartChar: y
Encoding: 121 121 89
Width: 499
Flags: HMW
HStem: -236 21G<125.5 149> 424 20G<62.5 87 430 447>
LayerCount: 2
Fore
SplineSet
274 168 m 1,0,1
 290 184 290 184 301 206 c 2,2,-1
 315 234 l 2,3,4
 319 240 319 240 353 306 c 0,5,6
 424.090909091 444 424.090909091 444 440 444 c 0,7,8
 450 444 450 444 467.5 435 c 128,-1,9
 485 426 485 426 487 419 c 1,10,11
 487 413.81871345 487 413.81871345 384.5 218.409356725 c 128,-1,12
 282 23 282 23 274 7 c 0,13,14
 157 -236 157 -236 137 -236 c 0,15,16
 121 -236 121 -236 102 -227.5 c 128,-1,17
 83 -219 83 -219 81 -212 c 1,18,19
 81 -206 81 -206 96 -173 c 1,20,21
 107 -153 107 -153 127 -118 c 0,22,23
 173.88 -35.96 173.88 -35.96 183.44 -14.48 c 128,-1,24
 193 7 193 7 203.5 24.5 c 128,-1,25
 214 42 214 42 222 57 c 128,-1,26
 230 72 230 72 230 77 c 128,-1,27
 230 82 230 82 205.5 114 c 128,-1,28
 181 146 181 146 157 180.5 c 128,-1,29
 133 215 133 215 104 258 c 128,-1,30
 75 301 75 301 67 313 c 2,31,-1
 44 347.5 l 2,32,33
 11 397 11 397 11 408.5 c 128,-1,34
 11 420 11 420 34 432 c 128,-1,35
 57 444 57 444 68 444 c 128,-1,36
 79 444 79 444 98 424.5 c 128,-1,37
 117 405 117 405 142 369.5 c 128,-1,38
 167 334 167 334 188 302 c 128,-1,39
 209 270 209 270 236 227 c 128,-1,40
 263 184 263 184 274 168 c 1,0,1
EndSplineSet
EndChar

StartChar: z
Encoding: 122 122 90
Width: 443
Flags: HMW
HStem: 0 60<341 345 341 357> 365 67
LayerCount: 2
Fore
SplineSet
157 430 m 1,0,-1
 282 432 l 1,1,2
 403 432 403 432 403 409 c 0,3,4
 403 397 403 397 378 353.5 c 128,-1,5
 353 310 353 310 314 259 c 128,-1,6
 275 208 275 208 262 188 c 1,7,8
 220 131 220 131 179 68 c 1,9,10
 187 62 187 62 199 62 c 0,11,12
 278 62 278 62 341 60 c 1,13,-1
 375 61 l 1,14,15
 410 61 410 61 410 46 c 0,16,17
 410 12.52 410 12.52 386.5 5 c 0,18,19
 370.875 0 370.875 0 341 0 c 2,20,-1
 204.5 -1 l 1,21,22
 33 -1 33 -1 33 14 c 0,23,24
 33 21 33 21 45 37.5 c 128,-1,25
 57 54 57 54 58 56 c 0,26,27
 138 173 138 173 253 320 c 0,28,29
 256 325 256 325 264 334 c 0,30,31
 281.297297297 353.459459459 281.297297297 353.459459459 286 366 c 1,32,-1
 233 367 l 1,33,34
 96 365 l 2,35,36
 65 365 65 365 56 369.5 c 128,-1,37
 47 374 47 374 47 389.5 c 128,-1,38
 47 405 47 405 49.5 412 c 128,-1,39
 52 419 52 419 53.5 423.5 c 128,-1,40
 55 428 55 428 65.5 429.5 c 128,-1,41
 76 431 76 431 80.5 431 c 2,42,-1
 106 431 l 1,43,-1
 157 430 l 1,0,-1
EndSplineSet
EndChar

StartChar: braceleft
Encoding: 123 123 91
Width: 415
Flags: HMW
HStem: -262 67<283.5 314.5 283.5 320.5> 202 72<55.5 88 58 85> 671 67<283.5 314.5>
VStem: 122 99<-126.5 -63 -126.5 -28.5 539 602.5> 139 97<115 127.5 71 161.5 348 361>
CounterMasks: 1 e0
LayerCount: 2
Fore
SplineSet
245 -168.5 m 128,-1,1
 269 -195 269 -195 296 -195 c 128,-1,2
 323 -195 323 -195 353 -187 c 1,3,4
 371 -201 371 -201 371 -231.5 c 128,-1,5
 371 -262 371 -262 302 -262 c 0,6,7
 122 -262 122 -262 122 -54 c 0,8,9
 122 -29 122 -29 130.5 42.5 c 128,-1,10
 139 114 139 114 139 144 c 0,11,12
 139 202 139 202 85 202 c 2,13,-1
 58 202 l 2,14,15
 51 202 51 202 48 208 c 1,16,17
 44.3333333333 211.666666667 44.3333333333 211.666666667 44.3333333333 220.444444444 c 2,18,-1
 46 241 l 1,19,-1
 44.3333333333 257.277777778 l 2,20,21
 44.3333333333 264.333333333 44.3333333333 264.333333333 48 268 c 1,22,23
 51 274 51 274 58 274 c 2,24,-1
 88 274 l 1,25,26
 139 275 139 275 139 332 c 0,27,28
 139 362 139 362 130.5 433.5 c 128,-1,29
 122 505 122 505 122 530 c 0,30,31
 122 738 122 738 302 738 c 0,32,33
 371 738 371 738 371 707.5 c 128,-1,34
 371 677 371 677 353 663 c 1,35,36
 326 671 326 671 297.5 671 c 128,-1,37
 269 671 269 671 245 644.5 c 128,-1,38
 221 618 221 618 221 560 c 0,39,40
 221 541 221 541 228.5 474 c 128,-1,41
 236 407 236 407 236 377 c 0,42,43
 236 285 236 285 158 238 c 1,44,45
 195 223 195 223 215.5 183.5 c 128,-1,46
 236 144 236 144 236 106.5 c 128,-1,47
 236 69 236 69 228.5 2 c 128,-1,48
 221 -65 221 -65 221 -84 c 0,49,0
 221 -142 221 -142 245 -168.5 c 128,-1,1
EndSplineSet
EndChar

StartChar: bar
Encoding: 124 124 92
Width: 286
Flags: HMW
HStem: -262 21G<123.5 161.5> 718 20G<129 148>
VStem: 101 86<-211.5 -191.5 670 695.5>
LayerCount: 2
Fore
SplineSet
102.5 605.75 m 1,0,-1
 101 688 l 2,1,2
 101 728 101 728 105 736 c 0,3,4
 107 738 107 738 140.5 738 c 128,-1,5
 174 738 174 738 180.5 736 c 128,-1,6
 187 734 187 734 187 721 c 2,7,-1
 187 -234 l 2,8,9
 187 -249 187 -249 178 -255.5 c 128,-1,10
 169 -262 169 -262 141 -262 c 128,-1,11
 113 -262 113 -262 106 -258.5 c 128,-1,12
 99 -255 99 -255 99 -240 c 2,13,14
 101 -207 l 1,15,-1
 100 21 l 1,16,-1
 100 224 l 2,17,18
 99.5 238.5 99.5 238.5 99.5 283.125 c 2,19,-1
 102.5 605.75 l 1,0,-1
EndSplineSet
EndChar

StartChar: braceright
Encoding: 125 125 93
Width: 426
Flags: HMW
HStem: -262 67<100.5 131.5 100.5 164.5> 202 72<330 357 330 357 327 357> 671 67<100.5 131.5>
VStem: 179 97<115 128 348.5 361> 194 99<-126.5 -63 539 602.5>
CounterMasks: 1 e0
LayerCount: 2
Fore
SplineSet
170 644.5 m 128,-1,1
 146 671 146 671 119 671 c 128,-1,2
 92 671 92 671 62 663 c 1,3,4
 44 677 44 677 44 707.5 c 128,-1,5
 44 738 44 738 113 738 c 0,6,7
 293 738 293 738 293 530 c 0,8,9
 293 505 293 505 284.5 433.5 c 128,-1,10
 276 362 276 362 276 332 c 0,11,12
 276 274 276 274 330 274 c 2,13,-1
 357 274 l 2,14,15
 364 274 364 274 367 268 c 1,16,17
 370.666666667 264.333333333 370.666666667 264.333333333 370.666666667 255.555555556 c 2,18,-1
 369 235 l 1,19,-1
 370.666666667 218.722222222 l 2,20,21
 370.666666667 211.666666667 370.666666667 211.666666667 367 208 c 1,22,23
 364 202 364 202 357 202 c 2,24,-1
 327 202 l 1,25,26
 276 201 276 201 276 144 c 0,27,28
 276 114 276 114 284.5 42.5 c 128,-1,29
 293 -29 293 -29 293 -54 c 0,30,31
 293 -262 293 -262 113 -262 c 0,32,33
 44 -262 44 -262 44 -231.5 c 128,-1,34
 44 -201 44 -201 62 -187 c 1,35,36
 89 -195 89 -195 117.5 -195 c 128,-1,37
 146 -195 146 -195 170 -168.5 c 128,-1,38
 194 -142 194 -142 194 -84 c 0,39,40
 194 -65 194 -65 186.5 2 c 128,-1,41
 179 69 179 69 179 99 c 0,42,43
 179 191 179 191 257 238 c 1,44,45
 220 253 220 253 199.5 292.5 c 128,-1,46
 179 332 179 332 179 369.5 c 128,-1,47
 179 407 179 407 186.5 474 c 128,-1,48
 194 541 194 541 194 560 c 0,49,0
 194 618 194 618 170 644.5 c 128,-1,1
EndSplineSet
EndChar

StartChar: asciitilde
Encoding: 126 126 94
Width: 555
Flags: HMW
HStem: 220 21G<90 109.5> 221 76<335 393 335 399.5> 278 76<162 215> 335 20G<445.5 465>
LayerCount: 2
Fore
SplineSet
457 259.5 m 128,-1,1
 414 221 414 221 366 221 c 128,-1,2
 318 221 318 221 265.5 249.5 c 128,-1,3
 213 278 213 278 189 278 c 128,-1,4
 165 278 165 278 148 263.5 c 128,-1,5
 131 249 131 249 119 234.5 c 128,-1,6
 107 220 107 220 96.5 220 c 128,-1,7
 86 220 86 220 70.5 231 c 128,-1,8
 55 242 55 242 55 250 c 0,9,10
 55 276 55 276 97.5 315 c 128,-1,11
 140 354 140 354 187.5 354 c 128,-1,12
 235 354 235 354 286.5 325.5 c 128,-1,13
 338 297 338 297 364 297 c 128,-1,14
 390 297 390 297 407 311.5 c 128,-1,15
 424 326 424 326 436 340.5 c 128,-1,16
 448 355 448 355 458.5 355 c 128,-1,17
 469 355 469 355 484.5 344 c 128,-1,18
 500 333 500 333 500 325 c 0,19,0
 500 298 500 298 457 259.5 c 128,-1,1
EndSplineSet
EndChar

StartChar: exclamdown
Encoding: 161 161 96
Width: 294
Flags: HMW
HStem: -280 21G<124.5 159.5> 424 20G<126.5 156>
VStem: 66 162<350.5 384.5> 84 125<-230.5 -202>
LayerCount: 2
Fore
SplineSet
152 207 m 0,0,1
 171.745098039 207 171.745098039 207 176.5 158.5 c 0,2,3
 179 133 179 133 188.5 43.5 c 0,4,5
 209 -149.631578947 209 -149.631578947 209 -209 c 0,6,7
 209 -280 209 -280 140 -280 c 0,8,9
 84 -280 84 -280 84 -202 c 1,10,11
 90 -62 90 -62 109 57 c 128,-1,12
 128 176 128 176 131 186 c 0,13,14
 137 207 137 207 152 207 c 0,0,1
154 300 m 1,15,16
 138 298 138 298 130 298 c 0,17,18
 66 298 66 298 66 360 c 0,19,20
 66 396 66 396 90 420 c 128,-1,21
 114 444 114 444 150 444 c 0,22,23
 169 444 169 444 198.5 424.5 c 128,-1,24
 228 405 228 405 228 367 c 0,25,26
 228 344 228 344 204.5 325 c 128,-1,27
 181 306 181 306 154 300 c 1,15,16
EndSplineSet
EndChar

StartChar: cent
Encoding: 162 162 97
Width: 469
Flags: HMW
HStem: -12 21G<298 299 298 298>
VStem: 55 101<187 261 187 271.5>
LayerCount: 2
Fore
SplineSet
318.863905325 554.461538462 m 0,0,1
 355.363636364 554.461538462 355.363636364 554.461538462 355.363636364 541.73553719 c 0,2,3
 355.363636364 525 355.363636364 525 348 444 c 1,4,5
 443 442 443 442 443 411 c 0,6,7
 443 389 443 389 435.5 384.5 c 128,-1,8
 428 380 428 380 400 380 c 128,-1,9
 372 380 372 380 342 377 c 1,10,11
 329 255 329 255 324 216.5 c 128,-1,12
 319 178 319 178 314 129.5 c 128,-1,13
 309 81 309 81 306 58 c 1,14,15
 332 56 332 56 347 56 c 128,-1,16
 362 56 362 56 390.5 62.5 c 128,-1,17
 419 69 419 69 430 69 c 0,18,19
 447 69 447 69 447 45 c 0,20,21
 447 -12 447 -12 299 -12 c 2,22,-1
 298 -12 l 1,23,24
 282 -135 282 -135 272 -137 c 0,25,26
 257.9 -139.7 257.9 -139.7 247.58 -139.7 c 0,27,28
 223.5 -139.7 223.5 -139.7 220 -125 c 0,29,30
 218.933333333 -120.733333333 218.933333333 -120.733333333 218.933333333 -100.866666667 c 128,-1,31
 218.933333333 -81 218.933333333 -81 227 -4 c 1,32,33
 141 15 141 15 98 76 c 128,-1,34
 55 137 55 137 55 209 c 0,35,36
 55 301 55 301 117 363.5 c 128,-1,37
 179 426 179 426 280 440 c 1,38,39
 296 547 296 547 302.769230769 550.730769231 c 128,-1,40
 309.538461538 554.461538462 309.538461538 554.461538462 318.863905325 554.461538462 c 0,0,1
237 78 m 1,41,42
 242 128 242 128 247.5 169.5 c 128,-1,43
 253 211 253 211 260 271.5 c 128,-1,44
 267 332 267 332 271 364 c 1,45,46
 156 330 156 330 156 224.5 c 128,-1,47
 156 119 156 119 237 78 c 1,41,42
EndSplineSet
EndChar

StartChar: sterling
Encoding: 163 163 98
Width: 585
Flags: HMW
HStem: -17 93<395 442.5> -10 174<109 150 109 152> 310 67<292 292 292 381> 647 65<307 380.5>
LayerCount: 2
Fore
SplineSet
69 13 m 128,-1,1
 44 36 44 36 44 73.5 c 128,-1,2
 44 111 44 111 70 137.5 c 128,-1,3
 96 164 96 164 133 164 c 128,-1,4
 170 164 170 164 212 147 c 1,5,6
 215 165 215 165 215 201.5 c 128,-1,7
 215 238 215 238 197 310 c 1,8,-1
 134 310 l 2,9,10
 91 310 91 310 82 317 c 128,-1,11
 73 324 73 324 73 346 c 128,-1,12
 73 368 73 368 78.5 373 c 128,-1,13
 84 378 84 378 96 378 c 2,14,-1
 177 378 l 1,15,16
 145 486 145 486 145 534 c 0,17,18
 145 611 145 611 195 661.5 c 128,-1,19
 245 712 245 712 323 712 c 128,-1,20
 401 712 401 712 453.5 666.5 c 128,-1,21
 506 621 506 621 506 587 c 0,22,23
 506 577 506 577 487.5 567 c 128,-1,24
 469 557 469 557 454 557 c 1,25,-1
 442.5 579.5 l 2,26,27
 431 602 431 602 403 624.5 c 128,-1,28
 375 647 375 647 334 647 c 128,-1,29
 293 647 293 647 268.5 619.5 c 128,-1,30
 244 592 244 592 244 544 c 0,31,32
 244 509.666666667 244 509.666666667 259.5 452.833333333 c 128,-1,33
 275 396 275 396 279 377 c 1,34,-1
 411 377 l 2,35,36
 431 377 431 377 436 370 c 128,-1,37
 441 363 441 363 441 341 c 128,-1,38
 441 319 441 319 427.5 314.5 c 128,-1,39
 414 310 414 310 381 310 c 2,40,-1
 292 310 l 1,41,42
 298 274 298 274 298 222.5 c 128,-1,43
 298 171 298 171 278 117 c 1,44,45
 364 76 364 76 421 76 c 128,-1,46
 478 76 478 76 516 132 c 0,47,48
 518 135 518 135 523.5 135 c 128,-1,49
 529 135 529 135 540.5 127 c 128,-1,50
 552 119 552 119 552 110 c 2,51,-1
 552 108 l 1,52,53
 542 57 542 57 501.5 20 c 128,-1,54
 461 -17 461 -17 392 -17 c 128,-1,55
 323 -17 323 -17 233 39 c 1,56,57
 190 -10 190 -10 132 -10 c 0,58,0
 94 -10 94 -10 69 13 c 128,-1,1
98 64 m 0,59,60
 98 37 98 37 130.5 37 c 128,-1,61
 163 37 163 37 186 71 c 1,62,63
 149 94 149 94 134.5 94 c 128,-1,64
 120 94 120 94 109 86 c 128,-1,65
 98 78 98 78 98 64 c 0,59,60
EndSplineSet
EndChar

StartChar: currency
Encoding: 164 164 99
Width: 677
Flags: HMW
HStem: 130 70<316 361.5> 495 65<339 385.5 339 398>
VStem: 128 85<315.5 364> 483 84<327 382 327 388.5>
LayerCount: 2
Fore
SplineSet
160 464 m 1,0,1
 79.2352941176 544.764705882 79.2352941176 544.764705882 79.2352941176 569.666089965 c 0,2,3
 79.2352941176 577.647058824 79.2352941176 577.647058824 83.1176470588 581.323529412 c 128,-1,4
 87 585 87 585 92 590 c 128,-1,5
 97 595 97 595 99 597.5 c 0,6,7
 107 607.5 107 607.5 115 607.5 c 1,8,-1
 118 607 l 1,9,10
 125 607 125 607 153.5 578.5 c 128,-1,11
 182 550 182 550 214 519 c 1,12,13
 275 560 275 560 371 560 c 0,14,15
 429 560 429 560 476 531 c 1,16,17
 525 580 525 580 539 593.5 c 128,-1,18
 553 607 553 607 557.25 607.25 c 128,-1,19
 561.5 607.5 561.5 607.5 563 607.5 c 0,20,21
 572.230769231 605.961538462 572.230769231 605.961538462 576.615384615 600.480769231 c 128,-1,22
 581 595 581 595 589.140776699 586.859223301 c 128,-1,23
 597.281553398 578.718446602 597.281553398 578.718446602 597.281553398 571.859647469 c 0,24,25
 597.281553398 545.077669903 597.281553398 545.077669903 532 479 c 1,26,27
 567 429 567 429 567 350.5 c 128,-1,28
 567 272 567 272 518 212 c 1,29,30
 527 203 527 203 542.5 188 c 0,31,32
 575.487179487 156.076923077 575.487179487 156.076923077 587.376923077 142.538461538 c 128,-1,33
 599.266666667 129 599.266666667 129 599.266666667 119.633333333 c 128,-1,34
 599.266666667 110.266666667 599.266666667 110.266666667 585.133333333 96.6333333333 c 0,35,36
 568.235533822 80.3333333333 568.235533822 80.3333333333 560.701100244 80.3333333333 c 128,-1,37
 553.166666667 80.3333333333 553.166666667 80.3333333333 546.083333333 83.6666666667 c 0,38,39
 535.222222222 88.7777777778 535.222222222 88.7777777778 520.611111111 102.888888889 c 128,-1,40
 506 117 506 117 461 163 c 1,41,42
 406 130 406 130 337.5 130 c 128,-1,43
 269 130 269 130 217 165 c 1,44,45
 199.818181818 145.909090909 199.818181818 145.909090909 187.409090909 134.454545455 c 128,-1,46
 175 123 175 123 163.5 111.5 c 128,-1,47
 152 100 152 100 145 94 c 128,-1,48
 138 88 138 88 129.5 84 c 0,49,50
 114.218579235 76.8087431694 114.218579235 76.8087431694 98 91 c 1,51,52
 77.7333333333 111.266666667 77.7333333333 111.266666667 77.7333333333 120.633333333 c 128,-1,53
 77.7333333333 130 77.7333333333 130 87.8666666667 141 c 0,54,55
 109.692307692 164.692307692 109.692307692 164.692307692 163 218 c 1,56,57
 128 270 128 270 128 342 c 128,-1,58
 128 414 128 414 160 464 c 1,0,1
444.5 243.5 m 128,-1,60
 483 287 483 287 483 349 c 128,-1,61
 483 411 483 411 449.5 453 c 128,-1,62
 416 495 416 495 355 495 c 128,-1,63
 294 495 294 495 253.5 457.5 c 128,-1,64
 213 420 213 420 213 350 c 128,-1,65
 213 280 213 280 250.5 240 c 128,-1,66
 288 200 288 200 347 200 c 128,-1,59
 406 200 406 200 444.5 243.5 c 128,-1,60
EndSplineSet
EndChar

StartChar: yen
Encoding: 165 165 100
Width: 672
Flags: HMW
HStem: 0 21G<317 370> 175 71<134 286> 313 67<494.5 522> 692 20G<66 74 621 634>
VStem: 286 102<246 258>
LayerCount: 2
Fore
SplineSet
286 246 m 1,0,-1
 287 313 l 1,1,-1
 253 313 l 2,2,3
 147.73440492 313 147.73440492 313 139.384375636 314.51515113 c 0,4,5
 117 318.576898805 117 318.576898805 117 340 c 0,6,7
 117 372 117 372 123 376.5 c 128,-1,8
 129 381 129 381 148 381 c 2,9,-1
 272 381 l 1,10,11
 259 394 259 394 200 449.5 c 128,-1,12
 141 505 141 505 135 511.5 c 128,-1,13
 129 518 129 518 106 540 c 128,-1,14
 83 562 83 562 69 575.5 c 128,-1,15
 55 589 55 589 37.5 607.5 c 0,16,17
 2 645.028571429 2 645.028571429 2 657 c 0,18,19
 1.49206349206 657.888888889 1.49206349206 657.888888889 1.49206349206 659.035777274 c 0,20,21
 1.49206349206 666.920634921 1.49206349206 666.920634921 27.246031746 688.46031746 c 128,-1,22
 53 710 53 710 66 712 c 1,23,24
 81 712 81 712 109 678 c 0,25,26
 117 669 117 669 214.5 569.5 c 128,-1,27
 312 470 312 470 317.5 464 c 128,-1,28
 323 458 323 458 332 447 c 0,29,30
 350 425 350 425 356 425 c 128,-1,31
 362 425 362 425 420 488 c 128,-1,32
 478 551 478 551 501.5 580 c 128,-1,33
 525 609 525 609 572 660.5 c 128,-1,34
 619 712 619 712 627.5 712 c 128,-1,35
 636 712 636 712 653 697 c 128,-1,36
 670 682 670 682 670.5 677 c 128,-1,37
 671 672 671 672 667 666.5 c 128,-1,38
 663 661 663 661 655.5 653.5 c 128,-1,39
 648 646 648 646 640 636 c 0,40,41
 631 624.75 631 624.75 574 563 c 2,42,-1
 503 487.5 l 2,43,44
 432 412 432 412 406 380 c 1,45,-1
 534 380 l 2,46,47
 554 380 554 380 559 373 c 128,-1,48
 564 366 564 366 564 344 c 128,-1,49
 564 322 564 322 550.5 317.5 c 128,-1,50
 537 313 537 313 504 313 c 2,51,-1
 418 314 l 1,52,-1
 388 314 l 1,53,-1
 388 246 l 1,54,-1
 520 246 l 1,55,56
 548.398119442 244.647708598 548.398119442 244.647708598 553.199059721 236.796942423 c 128,-1,57
 558 228.946176249 558 228.946176249 558 212.473088124 c 128,-1,58
 558 196 558 196 555 180 c 1,59,60
 489 177 489 177 486 177 c 2,61,-1
 388 177 l 1,62,-1
 388 166 l 1,63,-1
 390 77 l 2,64,65
 390 37.6 390 37.6 386.5 27.8 c 128,-1,66
 383 18 383 18 376.5 11 c 0,67,68
 363.308016878 -3.20675105485 363.308016878 -3.20675105485 304 0.5 c 0,69,70
 296 1 296 1 288.5 6.5 c 128,-1,71
 281 12 281 12 281 24 c 2,72,-1
 284 86 l 1,73,-1
 284.5 120.5 l 2,74,75
 285 155 285 155 285 178 c 1,76,-1
 284 178 l 1,77,-1
 181 175 l 1,78,-1
 134 175 l 2,79,80
 122 175 122 175 119 178 c 1,81,82
 114 188 114 188 114 206.5 c 128,-1,83
 114 225 114 225 118.5 235.5 c 128,-1,84
 123 246 123 246 286 246 c 1,0,-1
EndSplineSet
EndChar

StartChar: brokenbar
Encoding: 166 166 101
Width: 287
Flags: HMW
VStem: 100 87<-68 -52.5 -68 110 528.5 544>
LayerCount: 2
Fore
SplineSet
186 120 m 1,0,-1
 187 -68 l 1,1,2
 186 -106 186 -106 186 -179 c 128,-1,3
 186 -252 186 -252 182 -260 c 0,4,5
 180 -262 180 -262 146 -262 c 128,-1,6
 112 -262 112 -262 106 -260.5 c 128,-1,7
 100 -259 100 -259 100 -245 c 2,8,-1
 100 110 l 2,9,10
 100 151 100 151 106.5 163 c 128,-1,11
 113 175 113 175 137 175 c 128,-1,12
 161 175 161 175 168.5 174 c 0,13,14
 188 171.4 188 171.4 188 153 c 1,15,-1
 186 120 l 1,0,-1
101 356 m 1,16,-1
 100 544 l 1,17,18
 101 582 101 582 101 655 c 128,-1,19
 101 728 101 728 105 736 c 0,20,21
 107 738 107 738 141 738 c 128,-1,22
 175 738 175 738 181 736.5 c 128,-1,23
 187 735 187 735 187 721 c 2,24,-1
 187 366 l 2,25,26
 187.086956522 362.347826087 187.086956522 362.347826087 187.086956522 358.926275992 c 0,27,28
 187.086956522 323 187.086956522 323 177.043478261 312 c 128,-1,29
 167 301 167 301 140 301 c 128,-1,30
 113 301 113 301 106 304.5 c 128,-1,31
 99 308 99 308 99 323 c 2,32,-1
 101 356 l 1,16,-1
EndSplineSet
EndChar

StartChar: section
Encoding: 167 167 102
Width: 463
Flags: HMW
HStem: -12 60<149.5 205.5 149.5 230> 652 60<257.5 313.5>
VStem: 55 89<316.5 361 316.5 361.5> 79 88<546.5 604.5 544.5 611.5> 296 88<95.5 153.5 88.5 155.5> 319 89<339 383>
LayerCount: 2
Fore
SplineSet
357 648 m 1,0,1
 329 652 329 652 301 652 c 0,2,3
 237 652 237 652 202 633.5 c 128,-1,4
 167 615 167 615 167 589 c 128,-1,5
 167 563 167 563 192 547 c 128,-1,6
 217 531 217 531 252.5 518 c 128,-1,7
 288 505 288 505 323 489.5 c 128,-1,8
 358 474 358 474 383 444 c 128,-1,9
 408 414 408 414 408 372 c 0,10,11
 408 287 408 287 308 230 c 1,12,13
 384 192 384 192 384 129.5 c 128,-1,14
 384 67 384 67 323.5 27.5 c 128,-1,15
 263 -12 263 -12 156 -12 c 0,16,17
 80 -12 80 -12 80 8 c 0,18,19
 80 22 80 22 87.5 35 c 128,-1,20
 95 48 95 48 106 52 c 1,21,22
 134 48 134 48 162 48 c 0,23,24
 226 48 226 48 261 66.5 c 128,-1,25
 296 85 296 85 296 111 c 128,-1,26
 296 137 296 137 271 153 c 128,-1,27
 246 169 246 169 211 182 c 128,-1,28
 176 195 176 195 140.5 210.5 c 128,-1,29
 105 226 105 226 80 256 c 128,-1,30
 55 286 55 286 55 328 c 0,31,32
 55 412 55 412 155 470 c 1,33,34
 79 508 79 508 79 570.5 c 128,-1,35
 79 633 79 633 139.5 672.5 c 128,-1,36
 200 712 200 712 307 712 c 0,37,38
 383 712 383 712 383 692 c 0,39,40
 383 678 383 678 375.5 665 c 128,-1,41
 368 652 368 652 357 648 c 1,0,1
293.5 301.5 m 128,-1,43
 319 330 319 330 319 360 c 128,-1,44
 319 390 319 390 296 407 c 128,-1,45
 273 424 273 424 228 440 c 1,46,47
 195 426 195 426 169.5 398 c 128,-1,48
 144 370 144 370 144 339.5 c 128,-1,49
 144 309 144 309 166.5 293 c 128,-1,50
 189 277 189 277 234 259 c 1,51,42
 268 273 268 273 293.5 301.5 c 128,-1,43
EndSplineSet
EndChar

StartChar: dieresis
Encoding: 168 168 103
Width: 470
Flags: HMW
HStem: 517 109<141.5 147 341 347.5>
VStem: 77 116<558.5 583.5> 277 116<558.5 583.5>
LayerCount: 2
Fore
SplineSet
90 606.5 m 128,-1,1
 103 622 103 622 116.5 624 c 128,-1,2
 130 626 130 626 151.5 626 c 0,3,4
 193 626 193 626 193 581 c 0,5,6
 193 517 193 517 128 517 c 0,7,8
 106 517 106 517 91.5 530.5 c 128,-1,9
 77 544 77 544 77 567.5 c 128,-1,0
 77 591 77 591 90 606.5 c 128,-1,1
290 606 m 128,-1,11
 303 622 303 622 317 624 c 128,-1,12
 331 626 331 626 351.5 626 c 0,13,14
 393 626 393 626 393 581 c 0,15,16
 393 517 393 517 329 517 c 0,17,18
 306 517 306 517 291.5 530.5 c 128,-1,19
 277 544 277 544 277 567 c 128,-1,10
 277 590 277 590 290 606 c 128,-1,11
EndSplineSet
EndChar

StartChar: copyright
Encoding: 169 169 104
Width: 856
Flags: HMW
HStem: -12 60<342.5 513.5 342.5 530.5> 128 61 652 60<342.5 513.5>
VStem: 66 66<264.5 435.5 264.5 452.5> 215 78<315.5 355 315.5 405.5> 724 66<264.5 435.5>
LayerCount: 2
Fore
SplineSet
66 350 m 128,-1,1
 66 504 66 504 170 608 c 128,-1,2
 274 712 274 712 428 712 c 128,-1,3
 582 712 582 712 686 608 c 128,-1,4
 790 504 790 504 790 350 c 128,-1,5
 790 196 790 196 686 92 c 128,-1,6
 582 -12 582 -12 428 -12 c 128,-1,7
 274 -12 274 -12 170 92 c 128,-1,0
 66 196 66 196 66 350 c 128,-1,1
132 350 m 128,-1,9
 132 221 132 221 216 134.5 c 128,-1,10
 300 48 300 48 428 48 c 128,-1,11
 556 48 556 48 640 134.5 c 128,-1,12
 724 221 724 221 724 350 c 128,-1,13
 724 479 724 479 640 565.5 c 128,-1,14
 556 652 556 652 428 652 c 128,-1,15
 300 652 300 652 216 565.5 c 128,-1,8
 132 479 132 479 132 350 c 128,-1,9
528 560 m 128,-1,17
 567 548 567 548 567 538.5 c 128,-1,18
 567 529 567 529 560 515.5 c 128,-1,19
 553 502 553 502 549 501 c 1,20,21
 542 501 542 501 533 504 c 128,-1,22
 524 507 524 507 522 507.5 c 0,23,24
 492 515 492 515 456 515 c 128,-1,25
 420 515 420 515 396 504.5 c 128,-1,26
 372 494 372 494 353 480 c 128,-1,27
 334 466 334 466 314 431.5 c 128,-1,28
 294 397 294 397 293 355 c 1,29,30
 293 291 293 291 336 243 c 128,-1,31
 379 195 379 195 461 189 c 1,32,33
 501 191 501 191 533.5 199 c 128,-1,34
 566 207 566 207 569 207 c 0,35,36
 582 203 582 203 582 180 c 0,37,38
 582 164 582 164 540.5 147 c 128,-1,39
 499 130 499 130 450 128 c 1,40,41
 323.989595376 132.667052023 323.989595376 132.667052023 254 221.5 c 0,42,43
 215 271 215 271 215 339 c 0,44,45
 215 439 215 439 286 505.5 c 128,-1,46
 357 572 357 572 461 572 c 0,47,16
 489 572 489 572 528 560 c 128,-1,17
EndSplineSet
EndChar

StartChar: ordfeminine
Encoding: 170 170 105
Width: 451
Flags: HMW
HStem: 191 70<305 371 314 338> 192 21G<225 236 236 279> 338 62<195.5 208.5> 652 60<190.5 226.5>
VStem: 289 83<497 507 507 507>
LayerCount: 2
Fore
SplineSet
289 552 m 1,0,-1
 289 566 l 2,1,2
 289 652 289 652 199 652 c 0,3,4
 179 652 179 652 154 645.5 c 128,-1,5
 129 639 129 639 120 639 c 128,-1,6
 111 639 111 639 105.5 649.5 c 128,-1,7
 100 660 100 660 100 675 c 0,8,9
 100 693 100 693 136.5 702.5 c 128,-1,10
 173 712 173 712 209 712 c 0,11,12
 289 712 289 712 330.5 669.5 c 128,-1,13
 372 627 372 627 372 547 c 2,14,-1
 372 383 l 2,15,16
 372 357 372 357 363 351.5 c 128,-1,17
 354 346 354 346 322 346 c 0,18,19
 296 346 296 346 296 378 c 0,20,21
 296 380 296 380 298 382 c 1,22,23
 288 378 288 378 268 366 c 0,24,25
 221.333333333 338 221.333333333 338 178.666666667 338 c 128,-1,26
 136 338 136 338 101.5 362 c 128,-1,27
 67 386 67 386 67 430 c 0,28,29
 67 494 67 494 126 523 c 128,-1,30
 185 552 185 552 271 552 c 2,31,-1
 289 552 l 1,0,-1
236 192 m 1,32,-1
 165 191 l 1,33,-1
 145 191 l 2,34,35
 75 191 75 191 69 203 c 0,36,37
 66 209 66 209 66 220 c 2,38,-1
 66 241 l 2,39,40
 66 262 66 262 84 262 c 2,41,-1
 211 262 l 1,42,-1
 359 261 l 2,43,44
 376 261 376 261 380.5 253 c 128,-1,45
 385 245 385 245 385 224 c 128,-1,46
 385 203 385 203 373.5 197 c 128,-1,47
 362 191 362 191 338 191 c 2,48,-1
 311 191 l 1,49,-1
 279 192 l 1,50,-1
 236 192 l 1,32,-1
163 469 m 0,51,52
 151 455 151 455 151 437 c 0,53,54
 151 400 151 400 210 400 c 0,55,56
 238 400 238 400 261.5 412.5 c 128,-1,57
 285 425 285 425 288 435 c 1,58,59
 289 451 289 451 289 497 c 2,60,-1
 289 507 l 1,61,62
 187 497 187 497 163 469 c 0,51,52
EndSplineSet
EndChar

StartChar: guillemotleft
Encoding: 171 171 106
Width: 519
Flags: HMW
HStem: 26 21G<235 245 426 436> 390 20G<235 245 426 436>
LayerCount: 2
Fore
SplineSet
161 219 m 0,0,1
 161 187 161 187 253 74 c 0,2,3
 262 63 262 63 262 50.5 c 0,4,5
 262 38 262 38 255 32 c 128,-1,6
 248 26 248 26 241 26 c 0,7,8
 221 26 221 26 199 48 c 0,9,10
 196 51 196 51 174 72 c 128,-1,11
 152 93 152 93 135.5 110 c 128,-1,12
 119 127 119 127 98.5 149 c 128,-1,13
 78 171 78 171 66.5 189 c 128,-1,14
 55 207 55 207 55 218 c 128,-1,15
 55 229 55 229 66.5 247 c 128,-1,16
 78 265 78 265 98.5 287 c 128,-1,17
 119 309 119 309 135.5 326 c 128,-1,18
 152 343 152 343 174 364 c 128,-1,19
 196 385 196 385 199 388 c 0,20,21
 221 410 221 410 241 410 c 0,22,23
 248 410 248 410 255 404 c 128,-1,24
 262 398 262 398 262 384.5 c 0,25,26
 262 371 262 371 253 362 c 1,27,28
 161 235 161 235 161 219 c 0,0,1
352 219 m 0,29,30
 352 187 352 187 444 74 c 0,31,32
 453 63 453 63 453 50.5 c 0,33,34
 453 38 453 38 446 32 c 128,-1,35
 439 26 439 26 432 26 c 0,36,37
 412 26 412 26 390 48 c 0,38,39
 387 51 387 51 365 72 c 128,-1,40
 343 93 343 93 326.5 110 c 128,-1,41
 310 127 310 127 289.5 149 c 128,-1,42
 269 171 269 171 257.5 189 c 128,-1,43
 246 207 246 207 246 218 c 128,-1,44
 246 229 246 229 257.5 247 c 128,-1,45
 269 265 269 265 289.5 287 c 128,-1,46
 310 309 310 309 326.5 326 c 128,-1,47
 343 343 343 343 365 364 c 128,-1,48
 387 385 387 385 390 388 c 0,49,50
 412 410 412 410 432 410 c 0,51,52
 439 410 439 410 446 404 c 128,-1,53
 453 398 453 398 453 384.5 c 0,54,55
 453 371 453 371 444 362 c 1,56,57
 352 235 352 235 352 219 c 0,29,30
EndSplineSet
EndChar

StartChar: logicalnot
Encoding: 172 172 107
Width: 583
Flags: HMW
HStem: 170 21G<469 481> 353 75<416 427>
VStem: 427 79
LayerCount: 2
Fore
SplineSet
357 354 m 1,0,-1
 192 353 l 2,1,2
 88.1333398314 353 88.1333398314 353 72.0666699157 357.953250387 c 128,-1,3
 56 362.906500773 56 362.906500773 56 383 c 0,4,5
 56 419 56 419 62 424 c 128,-1,6
 68 429 68 429 87 429 c 2,7,-1
 473 428 l 2,8,9
 492 428 492 428 497.5 419 c 128,-1,10
 503 410 503 410 503 385 c 2,11,-1
 506 237 l 1,12,-1
 506 190 l 2,13,14
 506 178 506 178 503 175 c 1,15,16
 493 170 493 170 468.5 170 c 128,-1,17
 444 170 444 170 435.5 175.5 c 128,-1,18
 427 181 427 181 427 353 c 1,19,-1
 357 354 l 1,0,-1
EndSplineSet
EndChar

StartChar: registered
Encoding: 174 174 108
Width: 856
Flags: HMW
HStem: -12 60<342.5 513.5 342.5 530.5> 510 52<378 414.5> 652 60<342.5 513.5>
VStem: 66 66<264.5 435.5 264.5 452.5> 307 71<218 229.5 177 257 177 263.5> 502 67<398.5 444> 724 66<264.5 435.5>
LayerCount: 2
Fore
SplineSet
66 350 m 128,-1,1
 66 504 66 504 170 608 c 128,-1,2
 274 712 274 712 428 712 c 128,-1,3
 582 712 582 712 686 608 c 128,-1,4
 790 504 790 504 790 350 c 128,-1,5
 790 196 790 196 686 92 c 128,-1,6
 582 -12 582 -12 428 -12 c 128,-1,7
 274 -12 274 -12 170 92 c 128,-1,0
 66 196 66 196 66 350 c 128,-1,1
132 350 m 128,-1,9
 132 221 132 221 216 134.5 c 128,-1,10
 300 48 300 48 428 48 c 128,-1,11
 556 48 556 48 640 134.5 c 128,-1,12
 724 221 724 221 724 350 c 128,-1,13
 724 479 724 479 640 565.5 c 128,-1,14
 556 652 556 652 428 652 c 128,-1,15
 300 652 300 652 216 565.5 c 128,-1,8
 132 479 132 479 132 350 c 128,-1,9
306 391 m 1,16,-1
 307 536 l 2,17,18
 307 548 307 548 315.5 554 c 0,19,20
 326.833333333 562 326.833333333 562 359 562 c 2,21,-1
 365 562 l 2,22,23
 454 562 454 562 511.5 526 c 128,-1,24
 569 490 569 490 569 428 c 0,25,26
 569 354 569 354 494 302 c 1,27,28
 496 300 496 300 517.5 282 c 128,-1,29
 539 264 539 264 549 253.5 c 128,-1,30
 559 243 559 243 568.5 233.5 c 0,31,32
 584.75 217.25 584.75 217.25 593.875 207.625 c 128,-1,33
 603 198 603 198 607 194 c 128,-1,34
 611 190 611 190 613.5 187 c 0,35,36
 620 179.2 620 179.2 619.5 173.6 c 128,-1,37
 619 168 619 168 604.5 153.5 c 128,-1,38
 590 139 590 139 583.5 139 c 128,-1,39
 577 139 577 139 559 154.5 c 128,-1,40
 541 170 541 170 525 187.5 c 128,-1,41
 509 205 509 205 499 215 c 2,42,-1
 475 239 l 1,43,44
 444 273 444 273 442 275 c 1,45,46
 418 263 418 263 379 260 c 1,47,48
 378 255 378 255 378 230.5 c 2,49,-1
 378 192.5 l 2,50,51
 378 179 378 179 378.5 174 c 128,-1,52
 379 169 379 169 378 160.5 c 128,-1,53
 377 152 377 152 376.5 149.5 c 128,-1,54
 376 147 376 147 374 142.5 c 128,-1,55
 372 138 372 138 369 137 c 128,-1,56
 366 136 366 136 361 134.5 c 128,-1,57
 356 133 356 133 351 133 c 2,58,-1
 337 133 l 2,59,60
 313 133 313 133 310 137 c 1,61,62
 307 165 307 165 307 218 c 2,63,-1
 307 257 l 1,64,-1
 306 306 l 1,65,-1
 306 391 l 1,16,-1
377 482 m 2,66,67
 377 362 377 362 379 305 c 1,68,69
 427 309 427 309 464.5 341.5 c 128,-1,70
 502 374 502 374 502 416 c 128,-1,71
 502 458 502 458 467.5 484 c 128,-1,72
 433 510 433 510 380 510 c 0,73,74
 377 510 377 510 377 500 c 2,75,-1
 377 482 l 2,66,67
EndSplineSet
EndChar

StartChar: macron
Encoding: 175 175 109
Width: 481
Flags: HMW
HStem: 529 21G<346 361.5> 530 77
LayerCount: 2
Fore
SplineSet
292 607 m 1,0,-1
 374 609 l 2,1,2
 400 609 400 609 402 601 c 0,3,4
 403.142857143 598.142857143 403.142857143 598.142857143 403.142857143 588.214285714 c 0,5,6
 403.142857143 534.714285714 403.142857143 534.714285714 395 532 c 0,7,8
 383 529 383 529 354 529 c 2,9,-1
 247 529.5 l 2,10,11
 140 530 140 530 93 530 c 0,12,13
 84 530 84 530 81 537 c 0,14,15
 77 549.666666667 77 549.666666667 77 564.833333333 c 128,-1,16
 77 580 77 580 78.5 593 c 128,-1,17
 80 606 80 606 91 606 c 2,18,-1
 292 607 l 1,0,-1
EndSplineSet
EndChar

StartChar: degree
Encoding: 176 176 110
Width: 445
Flags: HMW
HStem: 384 64<197 251 197 264.5> 651 61<202.5 259>
VStem: 55 75<518.5 586 518.5 598.5> 316 74<523 578.5>
LayerCount: 2
Fore
SplineSet
390 555 m 0,0,1
 390 480 390 480 340 432 c 128,-1,2
 290 384 290 384 218.5 384 c 128,-1,3
 147 384 147 384 101 428.5 c 128,-1,4
 55 473 55 473 55 549 c 128,-1,5
 55 625 55 625 102.5 668.5 c 128,-1,6
 150 712 150 712 236 712 c 0,7,8
 285.363636364 712 285.363636364 712 332.5 681.5 c 0,9,10
 358 665 358 665 374 632.5 c 128,-1,11
 390 600 390 600 390 555 c 0,0,1
290.5 477.5 m 128,-1,13
 316 507 316 507 316 551 c 128,-1,14
 316 595 316 595 294 623 c 128,-1,15
 272 651 272 651 229.5 651 c 128,-1,16
 187 651 187 651 158.5 625.5 c 128,-1,17
 130 600 130 600 130 551.5 c 128,-1,18
 130 503 130 503 156.5 475.5 c 128,-1,19
 183 448 183 448 224 448 c 128,-1,12
 265 448 265 448 290.5 477.5 c 128,-1,13
EndSplineSet
EndChar

StartChar: plusminus
Encoding: 177 177 111
Width: 558
Flags: HMW
HStem: 69 75<433.5 461> 361 74 601 20G<254.5 277.5>
VStem: 239 75
LayerCount: 2
Fore
SplineSet
311 348 m 1,0,-1
 314 244 l 1,1,-1
 314 197 l 2,2,3
 314 185 314 185 311 182 c 1,4,5
 301 177 301 177 276.5 177 c 128,-1,6
 252 177 252 177 243.5 182.5 c 128,-1,7
 235 188 235 188 235 360 c 1,8,-1
 192 360 l 2,9,10
 88.1333398314 360 88.1333398314 360 72.0666699157 364.953250387 c 128,-1,11
 56 369.906500773 56 369.906500773 56 390 c 0,12,13
 56 426 56 426 62 431 c 128,-1,14
 68 436 68 436 87 436 c 2,15,-1
 235 436 l 1,16,-1
 239 583 l 2,17,18
 239 597 239 597 240 603 c 128,-1,19
 241 609 241 609 248 615 c 128,-1,20
 255 621 255 621 273.75 621 c 128,-1,21
 292.5 621 292.5 621 309 618 c 1,22,23
 311 574 311 574 311 549 c 2,24,-1
 311 436 l 1,25,-1
 473 435 l 2,26,27
 492 435 492 435 497.5 426 c 128,-1,28
 503 417 503 417 503 394.5 c 128,-1,29
 503 372 503 372 488.5 366 c 128,-1,30
 474 360 474 360 443 360 c 2,31,-1
 357 361 l 1,32,-1
 311 361 l 1,33,-1
 311 348 l 1,0,-1
357 70 m 1,34,-1
 192 69 l 2,35,36
 88.1333398314 69 88.1333398314 69 72.0666699157 73.9532503865 c 128,-1,37
 56 78.906500773 56 78.906500773 56 99 c 0,38,39
 56 136 56 136 62 140.5 c 128,-1,40
 68 145 68 145 87 145 c 2,41,-1
 473 144 l 2,42,43
 492 144 492 144 497.5 135 c 128,-1,44
 503 126 503 126 503 103.5 c 128,-1,45
 503 81 503 81 488.5 75 c 128,-1,46
 474 69 474 69 443 69 c 2,47,-1
 357 70 l 1,34,-1
EndSplineSet
EndChar

StartChar: twosuperior
Encoding: 178 178 112
Width: 418
Flags: HMW
HStem: 320 58<176 288 288 290 176 293> 652 60<172 195>
VStem: 238 71<584 613.5>
LayerCount: 2
Fore
SplineSet
288 378 m 1,0,-1
 315 381 l 1,1,2
 341 381 341 381 341 364 c 0,3,4
 341 339 341 339 330 329.5 c 128,-1,5
 319 320 319 320 293 320 c 2,6,-1
 111 320 l 2,7,8
 83 320 83 320 77 329 c 1,9,10
 79 343 79 343 106 377 c 0,11,12
 238 546 238 546 238 597 c 0,13,14
 238 621 238 621 221 636.5 c 128,-1,15
 204 652 204 652 173 652 c 128,-1,16
 142 652 142 652 105 635 c 1,17,18
 99 635 99 635 88.5 643 c 128,-1,19
 78 651 78 651 78 663 c 0,20,21
 78 681 78 681 118.5 696.5 c 128,-1,22
 159 712 159 712 191 712 c 0,23,24
 249 712 249 712 279 686 c 128,-1,25
 309 660 309 660 309 615 c 0,26,27
 309 552 309 552 202 413 c 0,28,29
 185 391 185 391 176 378 c 1,30,-1
 288 378 l 1,0,-1
EndSplineSet
EndChar

StartChar: threesuperior
Encoding: 179 179 113
Width: 398
Flags: HMW
HStem: 302 45 692 20G<158.5 219>
VStem: 244 77<407 455>
LayerCount: 2
Fore
SplineSet
169 663 m 1,0,-1
 104 653 l 2,1,2
 99 653 99 653 88 660 c 128,-1,3
 77 667 77 667 77 675 c 0,4,5
 77 686 77 686 112.5 699 c 128,-1,6
 148 712 148 712 192.5 712 c 128,-1,7
 237 712 237 712 270 692 c 128,-1,8
 303 672 303 672 303 638 c 0,9,10
 303 587 303 587 234 536 c 1,11,12
 244 531 244 531 247 530 c 0,13,14
 278 516 278 516 299.5 491.5 c 128,-1,15
 321 467 321 467 321 434 c 0,16,17
 321 372 321 372 265.5 338 c 128,-1,18
 210 304 210 304 130 302 c 0,19,20
 114 302 114 302 103.527027027 312.472972973 c 128,-1,21
 93.0540540541 322.945945946 93.0540540541 322.945945946 93.0540540541 331.72972973 c 128,-1,22
 93.0540540541 340.513513514 93.0540540541 340.513513514 95 347 c 1,23,24
 244 352 244 352 244 439 c 0,25,26
 244 475 244 475 187 504 c 0,27,28
 185 505 185 505 178.5 507.5 c 128,-1,29
 172 510 172 510 169 512 c 0,30,31
 159 518.666666667 159 518.666666667 159 528 c 1,32,33
 174 545 174 545 183 555 c 0,34,35
 226 598 226 598 226 624 c 0,36,37
 226 663 226 663 169 663 c 1,0,-1
EndSplineSet
EndChar

StartChar: acute
Encoding: 180 180 114
Width: 353
Flags: HMW
HStem: 510 21G<100.5 115.5> 645 20G<207.5 231.5>
LayerCount: 2
Fore
SplineSet
249 575.5 m 128,-1,1
 222 551 222 551 182.5 530.5 c 128,-1,2
 143 510 143 510 108 510 c 0,3,4
 97 510 97 510 88 519 c 128,-1,5
 79 528 79 528 78 536 c 128,-1,6
 77 544 77 544 85.5 551 c 128,-1,7
 94 558 94 558 109.5 568 c 128,-1,8
 125 578 125 578 139.5 589 c 128,-1,9
 154 600 154 600 172 621.5 c 128,-1,10
 190 643 190 643 199.5 654 c 128,-1,11
 209 665 209 665 223 665 c 128,-1,12
 237 665 237 665 256.5 649.5 c 128,-1,13
 276 634 276 634 276 617 c 128,-1,0
 276 600 276 600 249 575.5 c 128,-1,1
EndSplineSet
EndChar

StartChar: mu
Encoding: 181 181 115
Width: 594
Flags: HMW
HStem: -193 21G<123.5 138.5> -12 77<224.5 288.5 224 295> 412 20G<104.5 147 409 432>
VStem: 81 88 390 93
LayerCount: 2
Fore
SplineSet
506 59 m 1,0,-1
 551 66 l 1,1,2
 561 66 561 66 561 49 c 0,3,4
 561 11 561 11 534.5 -0.5 c 128,-1,5
 508 -12 508 -12 483.5 -12 c 128,-1,6
 459 -12 459 -12 447 -7.5 c 128,-1,7
 435 -3 435 -3 424.5 12.5 c 128,-1,8
 414 28 414 28 408 40 c 128,-1,9
 402 52 402 52 399 52 c 0,10,11
 386.5 52 386.5 52 350.5 20 c 0,12,13
 337 8 337 8 307 -2 c 128,-1,14
 277 -12 277 -12 237.5 -12 c 128,-1,15
 198 -12 198 -12 166 2 c 1,16,-1
 169 -117 l 1,17,18
 169 -187 169 -187 166 -188 c 0,19,20
 157 -193 157 -193 127 -193 c 128,-1,21
 97 -193 97 -193 87 -187.5 c 128,-1,22
 77 -182 77 -182 77 52 c 1,23,-1
 81 373 l 2,24,25
 81 410.241403998 81 410.241403998 89.8973544551 421.120701999 c 128,-1,26
 98.7947089101 432 98.7947089101 432 127.397354455 432 c 128,-1,27
 156 432 156 432 163.5 427.5 c 128,-1,28
 171 423 171 423 171 405 c 2,29,-1
 169 261 l 1,30,31
 169 141.5 169 141.5 193 105.5 c 0,32,33
 220 65 220 65 277 65 c 0,34,35
 307 65 307 65 346 77 c 128,-1,36
 385 89 385 89 385 113 c 2,37,-1
 390 295 l 1,38,-1
 390 347 l 2,39,40
 390 389 390 389 396.5 410.5 c 128,-1,41
 403 432 403 432 424 432 c 0,42,43
 459 432 459 432 474 427 c 1,44,45
 480 420 480 420 480 387 c 2,46,-1
 483 121 l 2,47,48
 483 88 483 88 487.5 73.5 c 128,-1,49
 492 59 492 59 506 59 c 1,0,-1
EndSplineSet
EndChar

StartChar: paragraph
Encoding: 182 182 116
Width: 738
Flags: HMW
HStem: -237 21G<363.5 406 544.5 587> 625 75<437.5 444 444 506>
VStem: 339 85<211.5 284> 424 96<473 596 596 601>
LayerCount: 2
Fore
SplineSet
336 -150 m 2,0,-1
 339 279 l 2,1,2
 339 299.045454545 339 299.045454545 311.665289256 299.045454545 c 2,3,-1
 280.990929705 298.238095238 l 1,4,5
 222.666666667 298.238095238 222.666666667 298.238095238 168.833333333 313.619047619 c 128,-1,6
 115 329 115 329 74 377 c 128,-1,7
 33 425 33 425 33 499 c 0,8,9
 33 700 33 700 379 700 c 2,10,-1
 591 700 l 1,11,-1
 645 701 l 2,12,13
 690.75 701 690.75 701 693 692 c 0,14,15
 693.666666667 689.666666667 693.666666667 689.666666667 693.666666667 682.833333333 c 128,-1,16
 693.666666667 676 693.666666667 676 690.333333333 653.5 c 128,-1,17
 687 631 687 631 682 628 c 0,18,19
 673.2 623.2 673.2 623.2 651.28 623.2 c 2,20,-1
 617.734693878 624.142857143 l 2,21,22
 606.714285714 624.142857143 606.714285714 624.142857143 603.857142857 622.071428571 c 128,-1,23
 601 620 601 620 601 416 c 128,-1,24
 601 212 601 212 603 9 c 2,25,-1
 605 -194 l 2,26,27
 605 -218 605 -218 599 -227.5 c 128,-1,28
 593 -237 593 -237 562.5 -237 c 128,-1,29
 532 -237 532 -237 524.5 -224 c 128,-1,30
 517 -211 517 -211 517 -150 c 2,31,-1
 520 473 l 1,32,-1
 520 596 l 2,33,34
 520 611 520 611 518 617.5 c 128,-1,35
 516 624 516 624 506 625 c 1,36,-1
 444 625 l 2,37,38
 424 625 424 625 424 601 c 2,39,-1
 424 -194 l 2,40,41
 424 -218 424 -218 418 -227.5 c 128,-1,42
 412 -237 412 -237 381.5 -237 c 128,-1,43
 351 -237 351 -237 343.5 -224 c 128,-1,44
 336 -211 336 -211 336 -150 c 2,0,-1
EndSplineSet
EndChar

StartChar: periodcentered
Encoding: 183 183 117
Width: 316
Flags: HMW
HStem: 275 21G<149 178.5> 401 20G<171.5 195.5>
VStem: 77 162<334.5 368.5>
LayerCount: 2
Fore
SplineSet
151 419 m 1,0,1
 167 421 167 421 175 421 c 0,2,3
 239 421 239 421 239 359 c 0,4,5
 239 323 239 323 215 299 c 128,-1,6
 191 275 191 275 155 275 c 0,7,8
 136 275 136 275 106.5 294.5 c 128,-1,9
 77 314 77 314 77 352 c 0,10,11
 77 375 77 375 100.5 394 c 128,-1,12
 124 413 124 413 151 419 c 1,0,1
EndSplineSet
EndChar

StartChar: cedilla
Encoding: 184 184 118
Width: 374
Flags: HMW
HStem: -262 47<111.5 137.5 111.5 160.5>
VStem: 208 89<-179.5 -130.5>
LayerCount: 2
Fore
SplineSet
84 -212 m 1,0,-1
 117 -215 l 1,1,2
 153 -215 153 -215 180.5 -201 c 128,-1,3
 208 -187 208 -187 208 -160.5 c 128,-1,4
 208 -134 208 -134 183.5 -121 c 128,-1,5
 159 -108 159 -108 134.5 -101.5 c 128,-1,6
 110 -95 110 -95 110 -88 c 0,7,8
 110 -79 110 -79 128 -42.5 c 128,-1,9
 146 -6 146 -6 158.5 5 c 0,10,11
 183.619047619 27.1047619048 183.619047619 27.1047619048 205 10 c 0,12,13
 207.461538462 7.53846153846 207.461538462 7.53846153846 207.461538462 0.538461538462 c 128,-1,14
 207.461538462 -6.46153846154 207.461538462 -6.46153846154 192.230769231 -29.7307692308 c 128,-1,15
 177 -53 177 -53 177 -61 c 0,16,17
 177 -63 177 -63 195.5 -66.5 c 128,-1,18
 214 -70 214 -70 237 -76 c 128,-1,19
 260 -82 260 -82 278.5 -103 c 128,-1,20
 297 -124 297 -124 297 -157 c 0,21,22
 297 -208 297 -208 243 -235 c 128,-1,23
 189 -262 189 -262 116 -262 c 0,24,25
 77 -262 77 -262 77 -231 c 0,26,27
 77 -220.75 77 -220.75 84 -212 c 1,0,-1
EndSplineSet
EndChar

StartChar: onesuperior
Encoding: 185 185 119
Width: 226
Flags: HMW
HStem: 328 21G<100 130.5>
VStem: 77 72<536 560>
LayerCount: 2
Fore
SplineSet
78 351 m 2,0,-1
 77 536 l 1,1,-1
 77 701 l 2,2,3
 77 706 77 706 95.3333333333 710.041666667 c 128,-1,4
 113.666666667 714.083333333 113.666666667 714.083333333 123.25 714.083333333 c 128,-1,5
 132.833333333 714.083333333 132.833333333 714.083333333 137 712 c 0,6,7
 149 706 149 706 149 560 c 2,8,-1
 149 367 l 2,9,10
 149 328 149 328 117 328 c 0,11,12
 91 328 91 328 84.5 331.5 c 128,-1,13
 78 335 78 335 78 351 c 2,0,-1
EndSplineSet
EndChar

StartChar: ordmasculine
Encoding: 186 186 120
Width: 516
Flags: HMW
HStem: 191 70<370 436 379 403> 192 21G<255 275 275 344> 338 69<233.5 297 233.5 306.5> 647 65<240 306>
VStem: 67 88<490 569.5 490 583> 372 78<495.5 560.5>
LayerCount: 2
Fore
SplineSet
450 533 m 0,0,1
 450 448 450 448 392.5 393 c 128,-1,2
 335 338 335 338 253.5 338 c 128,-1,3
 172 338 172 338 119.5 389 c 128,-1,4
 67 440 67 440 67 526.5 c 128,-1,5
 67 613 67 613 123 662.5 c 128,-1,6
 179 712 179 712 277 712 c 0,7,8
 333.783783784 712 333.783783784 712 386 677.5 c 0,9,10
 414 659 414 659 432 621.5 c 128,-1,11
 450 584 450 584 450 533 c 0,0,1
342.5 442 m 128,-1,13
 372 477 372 477 372 528.5 c 128,-1,14
 372 580 372 580 346.5 613.5 c 128,-1,15
 321 647 321 647 271.5 647 c 128,-1,16
 222 647 222 647 188.5 616.5 c 128,-1,17
 155 586 155 586 155 529 c 128,-1,18
 155 472 155 472 186 439.5 c 128,-1,19
 217 407 217 407 265 407 c 128,-1,12
 313 407 313 407 342.5 442 c 128,-1,13
275 192 m 1,20,-1
 165 191 l 1,21,-1
 145 191 l 2,22,23
 75 191 75 191 69 203 c 0,24,25
 66 209 66 209 66 220 c 2,26,-1
 66 241 l 2,27,28
 66 262 66 262 84 262 c 2,29,-1
 241 262 l 1,30,-1
 424 261 l 2,31,32
 441 261 441 261 445.5 253 c 128,-1,33
 450 245 450 245 450 224 c 128,-1,34
 450 203 450 203 438.5 197 c 128,-1,35
 427 191 427 191 403 191 c 2,36,-1
 376 191 l 1,37,-1
 344 192 l 1,38,-1
 275 192 l 1,20,-1
EndSplineSet
EndChar

StartChar: guillemotright
Encoding: 187 187 121
Width: 519
Flags: HMW
HStem: 26 21G<83 93 274 284> 390 20G<83 93 274 284>
LayerCount: 2
Fore
SplineSet
358 219 m 0,0,1
 358 235 358 235 266 362 c 1,2,3
 257 371 257 371 257 384.5 c 0,4,5
 257 398 257 398 264 404 c 128,-1,6
 271 410 271 410 278 410 c 0,7,8
 298 410 298 410 320 388 c 0,9,10
 323 385 323 385 345 364 c 128,-1,11
 367 343 367 343 383.5 326 c 128,-1,12
 400 309 400 309 420.5 287 c 128,-1,13
 441 265 441 265 452.5 247 c 128,-1,14
 464 229 464 229 464 218 c 128,-1,15
 464 207 464 207 452.5 189 c 128,-1,16
 441 171 441 171 420.5 149 c 128,-1,17
 400 127 400 127 383.5 110 c 128,-1,18
 367 93 367 93 345 72 c 128,-1,19
 323 51 323 51 320 48 c 0,20,21
 298 26 298 26 278 26 c 0,22,23
 271 26 271 26 264 32 c 128,-1,24
 257 38 257 38 257 50.5 c 0,25,26
 257 63 257 63 266 74 c 0,27,28
 358 187 358 187 358 219 c 0,0,1
167 219 m 0,29,30
 167 235 167 235 75 362 c 1,31,32
 66 371 66 371 66 384.5 c 0,33,34
 66 398 66 398 73 404 c 128,-1,35
 80 410 80 410 87 410 c 0,36,37
 107 410 107 410 129 388 c 0,38,39
 132 385 132 385 154 364 c 128,-1,40
 176 343 176 343 192.5 326 c 128,-1,41
 209 309 209 309 229.5 287 c 128,-1,42
 250 265 250 265 261.5 247 c 128,-1,43
 273 229 273 229 273 218 c 128,-1,44
 273 207 273 207 261.5 189 c 128,-1,45
 250 171 250 171 229.5 149 c 128,-1,46
 209 127 209 127 192.5 110 c 128,-1,47
 176 93 176 93 154 72 c 128,-1,48
 132 51 132 51 129 48 c 0,49,50
 107 26 107 26 87 26 c 0,51,52
 80 26 80 26 73 32 c 128,-1,53
 66 38 66 38 66 50.5 c 0,54,55
 66 63 66 63 75 74 c 0,56,57
 167 187 167 187 167 219 c 0,29,30
EndSplineSet
EndChar

StartChar: onequarter
Encoding: 188 188 122
Width: 779
Flags: HMW
HStem: -12 21G<108 130> 0 21G<601.5 620> 167 48<440.5 538> 692 20G<535.5 552>
VStem: 99 72<536 560> 580 68
LayerCount: 2
Fore
SplineSet
245 290 m 128,-1,1
 267 324 267 324 314 398 c 128,-1,2
 361 472 361 472 446.5 592 c 128,-1,3
 532 712 532 712 545 712 c 128,-1,4
 558 712 558 712 580.5 689.5 c 2,5,-1
 588 682 l 1,6,7
 591 682 591 682 543 611 c 0,8,9
 375.774193548 363.64516129 375.774193548 363.64516129 348 320 c 0,10,11
 139 -12 139 -12 119 -12 c 0,12,13
 104 -12 104 -12 90.5 -1 c 128,-1,14
 77 10 77 10 77 15 c 128,-1,15
 77 20 77 20 80 26.5 c 128,-1,16
 83 33 83 33 89.5 44 c 128,-1,17
 96 55 96 55 103.5 68 c 128,-1,18
 111 81 111 81 123.5 100.5 c 128,-1,19
 136 120 136 120 147.5 138 c 128,-1,20
 159 156 159 156 176.5 183.5 c 128,-1,21
 194 211 194 211 208.5 233.5 c 128,-1,0
 223 256 223 256 245 290 c 128,-1,1
653 375 m 2,22,-1
 652 290 l 1,23,-1
 652 215 l 1,24,-1
 674 215 l 2,25,26
 702 215 702 215 702 199 c 0,27,28
 702 173 702 173 693 167 c 1,29,30
 688 165 688 165 667 165 c 1,31,-1
 650 167 l 1,32,33
 651 145 651 145 651 113 c 128,-1,34
 651 81 651 81 648.5 46 c 128,-1,35
 646 11 646 11 637.5 5.5 c 128,-1,36
 629 0 629 0 609.5 0 c 128,-1,37
 590 0 590 0 584.5 5 c 128,-1,38
 579 10 579 10 578.833333333 32.1666666667 c 128,-1,39
 578.666666667 54.3333333333 578.666666667 54.3333333333 578.666666667 69.8333333333 c 128,-1,40
 578.666666667 85.3333333333 578.666666667 85.3333333333 580 126 c 1,41,-1
 580 166 l 1,42,-1
 513.5 166 l 2,43,44
 437 166 437 166 428 168 c 128,-1,45
 419 170 419 170 407.5 181.5 c 128,-1,46
 396 193 396 193 396 198.5 c 128,-1,47
 396 204 396 204 398 207 c 128,-1,48
 400 210 400 210 406 215 c 128,-1,49
 412 220 412 220 425.5 233.5 c 128,-1,50
 439 247 439 247 464 268.5 c 128,-1,51
 489 290 489 290 505 306 c 0,52,53
 595 393 595 393 622 393 c 0,54,55
 639.333333333 393 639.333333333 393 646.666666667 387.5 c 128,-1,56
 654 382 654 382 653 375 c 2,22,-1
581 216 m 1,57,-1
 582 260 l 1,58,-1
 582 297 l 2,59,60
 582 303 582 303 582.5 306.5 c 128,-1,61
 583 310 583 310 583 315 c 1,62,63
 569 300 569 300 546 281 c 1,64,65
 520 257 520 257 500 238 c 128,-1,66
 480 219 480 219 477 215 c 1,67,68
 518.75 215 518.75 215 548.375 215 c 128,-1,69
 578 215 578 215 581 216 c 1,57,-1
100 351 m 2,70,-1
 99 536 l 1,71,-1
 99 701 l 2,72,73
 99 706 99 706 117.333333333 710.041666667 c 128,-1,74
 135.666666667 714.083333333 135.666666667 714.083333333 145.25 714.083333333 c 128,-1,75
 154.833333333 714.083333333 154.833333333 714.083333333 159 712 c 0,76,77
 171 706 171 706 171 560 c 2,78,-1
 171 402 l 1,79,80
 170 401 170 401 170.5 384 c 2,81,-1
 171 367 l 1,82,83
 171 328 171 328 139 328 c 0,84,85
 113 328 113 328 106.5 331.5 c 128,-1,86
 100 335 100 335 100 351 c 2,70,-1
EndSplineSet
EndChar

StartChar: onehalf
Encoding: 189 189 123
Width: 795
Flags: HMW
HStem: -12 21G<108 130> 0 58<553 665 665 667 553 670> 332 60<549 572> 692 20G<535.5 552>
VStem: 99 72<536 560> 615 71<264 293.5>
LayerCount: 2
Fore
SplineSet
245 290 m 128,-1,1
 267 324 267 324 314 398 c 128,-1,2
 361 472 361 472 446.5 592 c 128,-1,3
 532 712 532 712 545 712 c 128,-1,4
 558 712 558 712 580.5 689.5 c 2,5,-1
 588 682 l 1,6,7
 591 682 591 682 543 611 c 0,8,9
 375.774193548 363.64516129 375.774193548 363.64516129 348 320 c 0,10,11
 139 -12 139 -12 119 -12 c 0,12,13
 104 -12 104 -12 90.5 -1 c 128,-1,14
 77 10 77 10 77 15 c 128,-1,15
 77 20 77 20 80 26.5 c 128,-1,16
 83 33 83 33 89.5 44 c 128,-1,17
 96 55 96 55 103.5 68 c 128,-1,18
 111 81 111 81 123.5 100.5 c 128,-1,19
 136 120 136 120 147.5 138 c 128,-1,20
 159 156 159 156 176.5 183.5 c 128,-1,21
 194 211 194 211 208.5 233.5 c 128,-1,0
 223 256 223 256 245 290 c 128,-1,1
665 58 m 1,22,-1
 692 61 l 1,23,24
 718 61 718 61 718 44 c 0,25,26
 718 19 718 19 707 9.5 c 128,-1,27
 696 0 696 0 670 0 c 2,28,-1
 488 0 l 2,29,30
 460 0 460 0 454 9 c 1,31,32
 456 23 456 23 483 57 c 0,33,34
 615 226 615 226 615 277 c 0,35,36
 615 301 615 301 598 316.5 c 128,-1,37
 581 332 581 332 550 332 c 128,-1,38
 519 332 519 332 482 315 c 1,39,40
 476 315 476 315 465.5 323 c 128,-1,41
 455 331 455 331 455 343 c 0,42,43
 455 361 455 361 495.5 376.5 c 128,-1,44
 536 392 536 392 568 392 c 0,45,46
 626 392 626 392 656 366 c 128,-1,47
 686 340 686 340 686 295 c 0,48,49
 686 232 686 232 579 93 c 0,50,51
 562 71 562 71 553 58 c 1,52,-1
 665 58 l 1,22,-1
100 351 m 2,53,-1
 99 536 l 1,54,-1
 99 701 l 2,55,56
 99 706 99 706 117.333333333 710.041666667 c 128,-1,57
 135.666666667 714.083333333 135.666666667 714.083333333 145.25 714.083333333 c 128,-1,58
 154.833333333 714.083333333 154.833333333 714.083333333 159 712 c 0,59,60
 171 706 171 706 171 560 c 2,61,-1
 171 402 l 1,62,63
 170 401 170 401 170.5 384 c 2,64,-1
 171 367 l 1,65,66
 171 328 171 328 139 328 c 0,67,68
 113 328 113 328 106.5 331.5 c 128,-1,69
 100 335 100 335 100 351 c 2,53,-1
EndSplineSet
EndChar

StartChar: threequarters
Encoding: 190 190 124
Width: 899
Flags: HMW
HStem: -12 21G<228 250> 0 21G<721.5 740> 167 48<560.5 658> 302 45 692 20G<158.5 219 655.5 672>
VStem: 244 77<407 455> 700 68
LayerCount: 2
Fore
SplineSet
365 290 m 128,-1,1
 387 324 387 324 434 398 c 128,-1,2
 481 472 481 472 566.5 592 c 128,-1,3
 652 712 652 712 665 712 c 128,-1,4
 678 712 678 712 700.5 689.5 c 2,5,-1
 708 682 l 1,6,7
 711 682 711 682 663 611 c 0,8,9
 495.774193548 363.64516129 495.774193548 363.64516129 468 320 c 0,10,11
 259 -12 259 -12 239 -12 c 0,12,13
 224 -12 224 -12 210.5 -1 c 128,-1,14
 197 10 197 10 197 15 c 128,-1,15
 197 20 197 20 200 26.5 c 128,-1,16
 203 33 203 33 209.5 44 c 128,-1,17
 216 55 216 55 223.5 68 c 128,-1,18
 231 81 231 81 243.5 100.5 c 128,-1,19
 256 120 256 120 267.5 138 c 128,-1,20
 279 156 279 156 296.5 183.5 c 128,-1,21
 314 211 314 211 328.5 233.5 c 128,-1,0
 343 256 343 256 365 290 c 128,-1,1
773 375 m 2,22,-1
 772 290 l 1,23,-1
 772 215 l 1,24,-1
 794 215 l 2,25,26
 822 215 822 215 822 199 c 0,27,28
 822 173 822 173 813 167 c 1,29,30
 808 165 808 165 787 165 c 1,31,-1
 770 167 l 1,32,33
 771 145 771 145 771 113 c 128,-1,34
 771 81 771 81 768.5 46 c 128,-1,35
 766 11 766 11 757.5 5.5 c 128,-1,36
 749 0 749 0 729.5 0 c 128,-1,37
 710 0 710 0 704.5 5 c 128,-1,38
 699 10 699 10 698.833333333 32.1666666667 c 128,-1,39
 698.666666667 54.3333333333 698.666666667 54.3333333333 698.666666667 69.8333333333 c 128,-1,40
 698.666666667 85.3333333333 698.666666667 85.3333333333 700 126 c 1,41,-1
 700 166 l 1,42,-1
 633.5 166 l 2,43,44
 557 166 557 166 548 168 c 128,-1,45
 539 170 539 170 527.5 181.5 c 128,-1,46
 516 193 516 193 516 198.5 c 128,-1,47
 516 204 516 204 518 207 c 128,-1,48
 520 210 520 210 526 215 c 128,-1,49
 532 220 532 220 545.5 233.5 c 128,-1,50
 559 247 559 247 584 268.5 c 128,-1,51
 609 290 609 290 625 306 c 0,52,53
 715 393 715 393 742 393 c 0,54,55
 759.333333333 393 759.333333333 393 766.666666667 387.5 c 128,-1,56
 774 382 774 382 773 375 c 2,22,-1
701 216 m 1,57,-1
 702 260 l 1,58,-1
 702 297 l 2,59,60
 702 303 702 303 702.5 306.5 c 128,-1,61
 703 310 703 310 703 315 c 1,62,63
 689 300 689 300 666 281 c 1,64,65
 640 257 640 257 620 238 c 128,-1,66
 600 219 600 219 597 215 c 1,67,68
 638.75 215 638.75 215 668.375 215 c 128,-1,69
 698 215 698 215 701 216 c 1,57,-1
169 663 m 1,70,-1
 104 653 l 2,71,72
 99 653 99 653 88 660 c 128,-1,73
 77 667 77 667 77 675 c 0,74,75
 77 686 77 686 112.5 699 c 128,-1,76
 148 712 148 712 192.5 712 c 128,-1,77
 237 712 237 712 270 692 c 128,-1,78
 303 672 303 672 303 638 c 0,79,80
 303 587 303 587 234 536 c 1,81,82
 244 531 244 531 247 530 c 0,83,84
 278 516 278 516 299.5 491.5 c 128,-1,85
 321 467 321 467 321 434 c 0,86,87
 321 372 321 372 265.5 338 c 128,-1,88
 210 304 210 304 130 302 c 0,89,90
 114 302 114 302 103.527027027 312.472972973 c 128,-1,91
 93.0540540541 322.945945946 93.0540540541 322.945945946 93.0540540541 331.72972973 c 128,-1,92
 93.0540540541 340.513513514 93.0540540541 340.513513514 95 347 c 1,93,94
 244 352 244 352 244 439 c 0,95,96
 244 475 244 475 187 504 c 0,97,98
 185 505 185 505 178.5 507.5 c 128,-1,99
 172 510 172 510 169 512 c 0,100,101
 159 518.666666667 159 518.666666667 159 528 c 1,102,103
 174 545 174 545 183 555 c 0,104,105
 226 598 226 598 226 624 c 0,106,107
 226 663 226 663 169 663 c 1,70,-1
EndSplineSet
EndChar

StartChar: questiondown
Encoding: 191 191 125
Width: 392
Flags: HMW
HStem: -280 68<221 274.5> 424 20G<227.5 257>
VStem: 33 115<-156.5 -81 -156.5 -49.5> 167 162<350.5 384.5> 231 74<65.5 91.5 19 125>
LayerCount: 2
Fore
SplineSet
231 114 m 1,0,-1
 228 179 l 1,1,2
 228 207 228 207 254 207 c 0,3,4
 270 207 270 207 276 190 c 0,5,6
 305 118 305 118 305 80 c 128,-1,7
 305 42 305 42 289 20 c 128,-1,8
 273 -2 273 -2 249.5 -16.5 c 128,-1,9
 226 -31 226 -31 203 -46 c 0,10,11
 148 -81.8695652174 148 -81.8695652174 148 -132 c 0,12,13
 148 -169 148 -169 176 -190.5 c 128,-1,14
 204 -212 204 -212 249.5 -212 c 128,-1,15
 295 -212 295 -212 331.5 -194.5 c 128,-1,16
 368 -177 368 -177 369 -177 c 0,17,18
 376 -177 376 -177 383.5 -189.5 c 128,-1,19
 391 -202 391 -202 391 -213 c 0,20,21
 391 -241 391 -241 343 -260.5 c 128,-1,22
 295 -280 295 -280 237 -280 c 0,23,24
 149 -280 149 -280 91 -242.5 c 128,-1,25
 33 -205 33 -205 33 -129 c 0,26,27
 33 -85 33 -85 53.5 -52.5 c 128,-1,28
 74 -20 74 -20 103 -2 c 128,-1,29
 132 16 132 16 161 31.5 c 0,30,31
 231 68.9137931034 231 68.9137931034 231 114 c 1,0,-1
255 300 m 1,32,33
 239 298 239 298 231 298 c 0,34,35
 167 298 167 298 167 360 c 0,36,37
 167 396 167 396 191 420 c 128,-1,38
 215 444 215 444 251 444 c 0,39,40
 270 444 270 444 299.5 424.5 c 128,-1,41
 329 405 329 405 329 367 c 0,42,43
 329 344 329 344 305.5 325 c 128,-1,44
 282 306 282 306 255 300 c 1,32,33
EndSplineSet
EndChar

StartChar: Aacute
Encoding: 193 193 127
Width: 832
Flags: HMW
HStem: -12 21G<64 85.5 738.5 754.5> 312 68<531 532> 688 20G<456 483.5> 778 21G<369.5 384.5> 913 20G<476.5 500.5>
LayerCount: 2
Fore
SplineSet
439.03125 309.75 m 2,0,-1
 265 311 l 1,1,2
 158 117 158 117 145 96 c 128,-1,3
 132 75 132 75 120 49 c 0,4,5
 91.8461538462 -12 91.8461538462 -12 74 -12 c 0,6,7
 31 -12 31 -12 13 8 c 0,8,9
 11.6666666667 9.66666666667 11.6666666667 9.66666666667 11.6666666667 13.6666666667 c 128,-1,10
 11.6666666667 17.6666666667 11.6666666667 17.6666666667 18.3333333333 29.3333333333 c 128,-1,11
 25 41 25 41 39.5 61 c 128,-1,12
 54 81 54 81 59 89 c 0,13,14
 179 302 179 302 276.5 467.5 c 128,-1,15
 374 633 374 633 387.5 658.5 c 128,-1,16
 401 684 401 684 411 697 c 1,17,18
 429 708 429 708 452.5 708 c 128,-1,19
 476 708 476 708 483 706 c 128,-1,20
 490 704 490 704 495 698.5 c 128,-1,21
 500 693 500 693 502.5 689 c 128,-1,22
 505 685 505 685 510 674 c 128,-1,23
 515 663 515 663 526 639 c 128,-1,24
 537 615 537 615 597 500.5 c 128,-1,25
 657 386 657 386 677 341 c 128,-1,26
 697 296 697 296 716 252.5 c 0,27,28
 756.142857143 160.593984962 756.142857143 160.593984962 788.571428571 103.296992481 c 128,-1,29
 821 46 821 46 821 28 c 0,30,31
 821 17 821 17 790.5 2.5 c 128,-1,32
 760 -12 760 -12 748 -12 c 0,33,34
 727 -12 727 -12 709 42 c 1,35,-1
 690.5 80.5 l 2,36,37
 671 121 671 121 639 187.5 c 128,-1,38
 607 254 607 254 578 313 c 1,39,40
 555 312 555 312 531 312 c 1,41,42
 508.5 309.75 508.5 309.75 439.03125 309.75 c 2,0,-1
303 379 m 1,43,-1
 412 380 l 1,44,-1
 546 380 l 1,45,46
 536 400 536 400 522.5 430 c 128,-1,47
 509 460 509 460 506.5 464.5 c 128,-1,48
 504 469 504 469 499 480 c 128,-1,49
 494 491 494 491 489 501 c 128,-1,50
 484 511 484 511 477.5 525 c 128,-1,51
 471 539 471 539 465 550.5 c 128,-1,52
 459 562 459 562 453 572.5 c 0,53,54
 440.142857143 595 440.142857143 595 435.071428571 595 c 128,-1,55
 430 595 430 595 422 584.5 c 128,-1,56
 414 574 414 574 403.5 557 c 128,-1,57
 393 540 393 540 384 523.5 c 0,58,59
 357 474 357 474 352.5 467 c 128,-1,60
 348 460 348 460 341.5 448 c 128,-1,61
 335 436 335 436 323.5 416 c 128,-1,62
 312 396 312 396 303 379 c 1,43,-1
518 843.5 m 128,-1,64
 491 819 491 819 451.5 798.5 c 128,-1,65
 412 778 412 778 377 778 c 0,66,67
 366 778 366 778 357 787 c 128,-1,68
 348 796 348 796 347 804 c 128,-1,69
 346 812 346 812 354.5 819 c 128,-1,70
 363 826 363 826 378.5 836 c 128,-1,71
 394 846 394 846 408.5 857 c 128,-1,72
 423 868 423 868 441 889.5 c 128,-1,73
 459 911 459 911 468.5 922 c 128,-1,74
 478 933 478 933 492 933 c 128,-1,75
 506 933 506 933 525.5 917.5 c 128,-1,76
 545 902 545 902 545 885 c 128,-1,63
 545 868 545 868 518 843.5 c 128,-1,64
EndSplineSet
EndChar

StartChar: Atilde
Encoding: 195 195 129
Width: 832
Flags: HMW
HStem: -12 21G<64 85.5 738.5 754.5> 312 68<531 532> 688 20G<456 483.5> 785 21G<286 301.5> 790 68<532.5 568> 840 71<345.5 397>
LayerCount: 2
Fore
SplineSet
439.03125 309.75 m 2,0,-1
 265 311 l 1,1,2
 158 117 158 117 145 96 c 128,-1,3
 132 75 132 75 120 49 c 0,4,5
 91.8461538462 -12 91.8461538462 -12 74 -12 c 0,6,7
 31 -12 31 -12 13 8 c 0,8,9
 11.6666666667 9.66666666667 11.6666666667 9.66666666667 11.6666666667 13.6666666667 c 128,-1,10
 11.6666666667 17.6666666667 11.6666666667 17.6666666667 18.3333333333 29.3333333333 c 128,-1,11
 25 41 25 41 39.5 61 c 128,-1,12
 54 81 54 81 59 89 c 0,13,14
 179 302 179 302 276.5 467.5 c 128,-1,15
 374 633 374 633 387.5 658.5 c 128,-1,16
 401 684 401 684 411 697 c 1,17,18
 429 708 429 708 452.5 708 c 128,-1,19
 476 708 476 708 483 706 c 128,-1,20
 490 704 490 704 495 698.5 c 128,-1,21
 500 693 500 693 502.5 689 c 128,-1,22
 505 685 505 685 510 674 c 128,-1,23
 515 663 515 663 526 639 c 128,-1,24
 537 615 537 615 597 500.5 c 128,-1,25
 657 386 657 386 677 341 c 128,-1,26
 697 296 697 296 716 252.5 c 0,27,28
 756.142857143 160.593984962 756.142857143 160.593984962 788.571428571 103.296992481 c 128,-1,29
 821 46 821 46 821 28 c 0,30,31
 821 17 821 17 790.5 2.5 c 128,-1,32
 760 -12 760 -12 748 -12 c 0,33,34
 727 -12 727 -12 709 42 c 1,35,-1
 690.5 80.5 l 2,36,37
 671 121 671 121 639 187.5 c 128,-1,38
 607 254 607 254 578 313 c 1,39,40
 555 312 555 312 531 312 c 1,41,42
 508.5 309.75 508.5 309.75 439.03125 309.75 c 2,0,-1
303 379 m 1,43,-1
 412 380 l 1,44,-1
 546 380 l 1,45,46
 536 400 536 400 522.5 430 c 128,-1,47
 509 460 509 460 506.5 464.5 c 128,-1,48
 504 469 504 469 499 480 c 128,-1,49
 494 491 494 491 489 501 c 128,-1,50
 484 511 484 511 477.5 525 c 128,-1,51
 471 539 471 539 465 550.5 c 128,-1,52
 459 562 459 562 453 572.5 c 0,53,54
 440.142857143 595 440.142857143 595 435.071428571 595 c 128,-1,55
 430 595 430 595 422 584.5 c 128,-1,56
 414 574 414 574 403.5 557 c 128,-1,57
 393 540 393 540 384 523.5 c 0,58,59
 357 474 357 474 352.5 467 c 128,-1,60
 348 460 348 460 341.5 448 c 128,-1,61
 335 436 335 436 323.5 416 c 128,-1,62
 312 396 312 396 303 379 c 1,43,-1
387 911 m 0,63,64
 421 911 421 911 477.5 884.5 c 128,-1,65
 534 858 534 858 555 858 c 128,-1,66
 576 858 576 858 589.5 870.5 c 128,-1,67
 603 883 603 883 610.5 895.5 c 128,-1,68
 618 908 618 908 625.5 908 c 128,-1,69
 633 908 633 908 639.5 902.5 c 128,-1,70
 646 897 646 897 646 891 c 0,71,72
 646 865 646 865 613 827.5 c 128,-1,73
 580 790 580 790 532 790 c 0,74,75
 500 790 500 790 448.5 815 c 128,-1,76
 397 840 397 840 370.5 840 c 128,-1,77
 344 840 344 840 331.5 831.5 c 128,-1,78
 319 823 319 823 314 812.5 c 0,79,80
 300.904761905 785 300.904761905 785 289 785 c 0,81,82
 282 785 282 785 274 789 c 128,-1,83
 266 793 266 793 266 801 c 0,84,85
 266 826 266 826 299.5 868.5 c 128,-1,86
 333 911 333 911 387 911 c 0,63,64
EndSplineSet
EndChar

StartChar: Aring
Encoding: 197 197 131
Width: 832
Flags: HMW
HStem: -12 21G<64 85.5 738.5 754.5> 312 68<531 532> 688 20G<456 483.5> 763 54<435.5 466.5 435.5 479> 935 51<439 471.5>
VStem: 336 62<859 897.5 859 909.5> 505 60<861 893>
LayerCount: 2
Fore
SplineSet
439.03125 309.75 m 2,0,-1
 265 311 l 1,1,2
 158 117 158 117 145 96 c 128,-1,3
 132 75 132 75 120 49 c 0,4,5
 91.8461538462 -12 91.8461538462 -12 74 -12 c 0,6,7
 31 -12 31 -12 13 8 c 0,8,9
 11.6666666667 9.66666666667 11.6666666667 9.66666666667 11.6666666667 13.6666666667 c 128,-1,10
 11.6666666667 17.6666666667 11.6666666667 17.6666666667 18.3333333333 29.3333333333 c 128,-1,11
 25 41 25 41 39.5 61 c 128,-1,12
 54 81 54 81 59 89 c 0,13,14
 179 302 179 302 276.5 467.5 c 128,-1,15
 374 633 374 633 387.5 658.5 c 128,-1,16
 401 684 401 684 411 697 c 1,17,18
 429 708 429 708 452.5 708 c 128,-1,19
 476 708 476 708 483 706 c 128,-1,20
 490 704 490 704 495 698.5 c 128,-1,21
 500 693 500 693 502.5 689 c 128,-1,22
 505 685 505 685 510 674 c 128,-1,23
 515 663 515 663 526 639 c 128,-1,24
 537 615 537 615 597 500.5 c 128,-1,25
 657 386 657 386 677 341 c 128,-1,26
 697 296 697 296 716 252.5 c 0,27,28
 756.142857143 160.593984962 756.142857143 160.593984962 788.571428571 103.296992481 c 128,-1,29
 821 46 821 46 821 28 c 0,30,31
 821 17 821 17 790.5 2.5 c 128,-1,32
 760 -12 760 -12 748 -12 c 0,33,34
 727 -12 727 -12 709 42 c 1,35,-1
 690.5 80.5 l 2,36,37
 671 121 671 121 639 187.5 c 128,-1,38
 607 254 607 254 578 313 c 1,39,40
 555 312 555 312 531 312 c 1,41,42
 508.5 309.75 508.5 309.75 439.03125 309.75 c 2,0,-1
303 379 m 1,43,-1
 412 380 l 1,44,-1
 546 380 l 1,45,46
 536 400 536 400 522.5 430 c 128,-1,47
 509 460 509 460 506.5 464.5 c 128,-1,48
 504 469 504 469 499 480 c 128,-1,49
 494 491 494 491 489 501 c 128,-1,50
 484 511 484 511 477.5 525 c 128,-1,51
 471 539 471 539 465 550.5 c 128,-1,52
 459 562 459 562 453 572.5 c 0,53,54
 440.142857143 595 440.142857143 595 435.071428571 595 c 128,-1,55
 430 595 430 595 422 584.5 c 128,-1,56
 414 574 414 574 403.5 557 c 128,-1,57
 393 540 393 540 384 523.5 c 0,58,59
 357 474 357 474 352.5 467 c 128,-1,60
 348 460 348 460 341.5 448 c 128,-1,61
 335 436 335 436 323.5 416 c 128,-1,62
 312 396 312 396 303 379 c 1,43,-1
531 961.5 m 128,-1,64
 565 937 565 937 565 883 c 128,-1,65
 565 829 565 829 530.5 796 c 128,-1,66
 496 763 496 763 447.5 763 c 128,-1,67
 399 763 399 763 367.5 793.5 c 128,-1,68
 336 824 336 824 336 876 c 128,-1,69
 336 928 336 928 368.5 957 c 128,-1,70
 401 986 401 986 460 986 c 0,71,63
 497 986 497 986 531 961.5 c 128,-1,64
489.5 834.5 m 128,-1,73
 505 852 505 852 505 877 c 128,-1,74
 505 902 505 902 492 918.5 c 128,-1,75
 479 935 479 935 454.5 935 c 128,-1,76
 430 935 430 935 414 920.5 c 128,-1,77
 398 906 398 906 398 878 c 128,-1,78
 398 850 398 850 413 833.5 c 128,-1,79
 428 817 428 817 451 817 c 128,-1,72
 474 817 474 817 489.5 834.5 c 128,-1,73
EndSplineSet
EndChar

StartChar: AE
Encoding: 198 198 132
Width: 1018
Flags: HMW
HStem: -12 21G<60 81> 0 72<768 821.5 768 853> 310 68 339 73 628 73<676.5 800>
VStem: 538 101
LayerCount: 2
Fore
SplineSet
906 626 m 2,0,-1
 783 628 l 1,1,2
 681 628 681 628 641 621 c 1,3,4
 639 553 639 553 639 411 c 1,5,-1
 810 412 l 1,6,-1
 826.512535413 412.040371707 l 2,7,8
 923 412.040371707 923 412.040371707 923 396 c 0,9,10
 923 360 923 360 909 349 c 128,-1,11
 895 338 895 338 862 338 c 2,12,-1
 641 339 l 1,13,-1
 639 164 l 2,14,15
 639 93 639 93 643 82.5 c 128,-1,16
 647 72 647 72 769 72 c 128,-1,17
 891 72 891 72 917 75 c 1,18,-1
 959 83 l 1,19,20
 974 83 974 83 974 73 c 0,21,22
 974 61 974 61 965 35.5 c 128,-1,23
 956 10 956 10 951 6 c 1,24,25
 940 0 940 0 853 0 c 2,26,-1
 608 0 l 2,27,28
 554 0 554 0 545.5 7.5 c 128,-1,29
 537 15 537 15 537 124.5 c 128,-1,30
 537 234 537 234 538 311 c 1,31,32
 515 310 515 310 463 310 c 2,33,-1
 313 311 l 1,34,-1
 293 311 l 1,35,36
 218 196 218 196 137 78 c 1,37,38
 92 -12 92 -12 69 -12 c 0,39,40
 51 -12 51 -12 26 -5 c 128,-1,41
 1 2 1 2 1 12 c 0,42,43
 1 22.4137931034 1 22.4137931034 25 52.2068965517 c 128,-1,44
 49 82 49 82 55.5 91 c 128,-1,45
 62 100 62 100 232 348 c 128,-1,46
 402 596 402 596 425.5 631 c 128,-1,47
 449 666 449 666 469 683 c 128,-1,48
 489 700 489 700 521 700 c 2,49,-1
 632 699 l 1,50,51
 668 701 668 701 685 701 c 2,52,-1
 798.5 702 l 1,53,-1
 843.5 702 l 2,54,55
 934 702 934 702 934 683 c 1,56,-1
 930 659 l 2,57,58
 929 654 929 654 929 647.5 c 128,-1,59
 929 641 929 641 928.5 638 c 128,-1,60
 928 635 928 635 926 631.5 c 0,61,62
 922.857142857 626 922.857142857 626 906 626 c 2,0,-1
339 379 m 1,63,-1
 448 380 l 1,64,-1
 539 377 l 1,65,66
 541 478 541 478 541 553 c 128,-1,67
 541 628 541 628 530 628 c 1,68,-1
 520 624 l 1,69,70
 466 572 466 572 339 379 c 1,63,-1
EndSplineSet
EndChar

StartChar: Ccedilla
Encoding: 199 199 133
Width: 719
Flags: HMW
HStem: -262 47<313.5 339.5 313.5 362.5> -12 85 634 78<467.5 477 357 506.5>
VStem: 55 111<288.5 358 288.5 440> 410 89<-179.5 -130.5>
LayerCount: 2
Fore
SplineSet
286 -212 m 1,0,-1
 319 -215 l 1,1,2
 355 -215 355 -215 382.5 -201 c 128,-1,3
 410 -187 410 -187 410 -160.5 c 128,-1,4
 410 -134 410 -134 385.5 -121 c 128,-1,5
 361 -108 361 -108 336.5 -101.5 c 128,-1,6
 312 -95 312 -95 312 -87.5 c 128,-1,7
 312 -80 312 -80 327 -48.5 c 128,-1,8
 342 -17 342 -17 357 1 c 1,9,10
 236.883639545 29.5021872266 236.883639545 29.5021872266 150 107.5 c 0,11,12
 106 147 106 147 80.5 205 c 128,-1,13
 55 263 55 263 55 331 c 0,14,15
 55 494 55 494 176 603 c 128,-1,16
 297 712 297 712 477 712 c 1,17,18
 524 711 524 711 592 694 c 128,-1,19
 660 677 660 677 660 664.5 c 128,-1,20
 660 652 660 652 649 632.5 c 128,-1,21
 638 613 638 613 633 611 c 1,22,23
 624 611 624 611 576 624 c 1,24,25
 511 634 511 634 492 634 c 0,26,27
 401 634 401 634 350 614 c 0,28,29
 311.391304348 599.52173913 311.391304348 599.52173913 276.695652174 572.260869565 c 128,-1,30
 242 545 242 545 221 518.5 c 128,-1,31
 200 492 200 492 183.5 449.5 c 128,-1,32
 167 407 167 407 166 358 c 1,33,34
 166 244 166 244 245 161.5 c 128,-1,35
 324 79 324 79 478 73 c 1,36,37
 528 73 528 73 625 92 c 1,38,39
 661 104 661 104 667 104 c 1,40,41
 675 101 675 101 680.5 89.5 c 128,-1,42
 686 78 686 78 686 67 c 0,43,44
 686 43 686 43 614.5 16.5 c 128,-1,45
 543 -10 543 -10 460 -12 c 1,46,47
 424 -10 424 -10 407 -7 c 1,48,49
 405 -13 405 -13 392 -33 c 128,-1,50
 379 -53 379 -53 379 -61 c 0,51,52
 379 -63 379 -63 397.5 -66.5 c 128,-1,53
 416 -70 416 -70 439 -76 c 128,-1,54
 462 -82 462 -82 480.5 -103 c 128,-1,55
 499 -124 499 -124 499 -157 c 0,56,57
 499 -208 499 -208 445 -235 c 128,-1,58
 391 -262 391 -262 318 -262 c 0,59,60
 279 -262 279 -262 279 -231 c 0,61,62
 279 -220.75 279 -220.75 286 -212 c 1,0,-1
EndSplineSet
EndChar

StartChar: Eacute
Encoding: 201 201 135
Width: 570
Flags: HMW
HStem: 0 72<160 396> 339 73 628 71<310 443> 778 21G<228.5 243.5> 913 20G<335.5 359.5>
VStem: 92 99<411 505.5>
LayerCount: 2
Fore
SplineSet
458 626 m 2,0,-1
 335 628 l 1,1,2
 233 628 233 628 193 621 c 1,3,4
 191 553 191 553 191 411 c 1,5,-1
 362 412 l 1,6,-1
 378.512535413 412.040371707 l 2,7,8
 475 412.040371707 475 412.040371707 475 396.520185853 c 128,-1,9
 475 381 475 381 468 362.5 c 128,-1,10
 461 344 461 344 452 341 c 128,-1,11
 443 338 443 338 414 338 c 2,12,-1
 193 339 l 1,13,14
 192 310 192 310 192 293 c 2,15,-1
 191 211.5 l 1,16,-1
 191 156.5 l 2,17,18
 191 90 191 90 194 84 c 0,19,20
 200 72 200 72 380 72 c 0,21,22
 442 72 442 72 469 75 c 1,23,-1
 511 83 l 1,24,25
 526 83 526 83 526 73.5 c 128,-1,26
 526 64 526 64 517 43 c 1,27,28
 507 9 507 9 503 6 c 0,29,30
 492 0 492 0 343 0 c 2,31,-1
 160 0 l 2,32,33
 106 0 106 0 97.5 7.5 c 128,-1,34
 89 15 89 15 89 136 c 1,35,-1
 92 493 l 1,36,-1
 93 574 l 1,37,-1
 92 649 l 2,38,39
 92 683 92 683 97.5 689 c 0,40,41
 105.75 698 105.75 698 155.5 698 c 2,42,-1
 297 700 l 1,43,-1
 429 699 l 2,44,45
 476.026614154 699 476.026614154 699 481.013307077 693.506351003 c 128,-1,46
 486 688.012702006 486 688.012702006 486 683 c 2,47,-1
 482 659 l 2,48,49
 481 654 481 654 481 647.5 c 128,-1,50
 481 641 481 641 480.5 638 c 128,-1,51
 480 635 480 635 478 631.5 c 0,52,53
 474.857142857 626 474.857142857 626 458 626 c 2,0,-1
377 843.5 m 128,-1,55
 350 819 350 819 310.5 798.5 c 128,-1,56
 271 778 271 778 236 778 c 0,57,58
 225 778 225 778 216 787 c 128,-1,59
 207 796 207 796 206 804 c 128,-1,60
 205 812 205 812 213.5 819 c 128,-1,61
 222 826 222 826 237.5 836 c 128,-1,62
 253 846 253 846 267.5 857 c 128,-1,63
 282 868 282 868 300 889.5 c 128,-1,64
 318 911 318 911 327.5 922 c 128,-1,65
 337 933 337 933 351 933 c 128,-1,66
 365 933 365 933 384.5 917.5 c 128,-1,67
 404 902 404 902 404 885 c 128,-1,54
 404 868 404 868 377 843.5 c 128,-1,55
EndSplineSet
EndChar

StartChar: Edieresis
Encoding: 203 203 137
Width: 570
Flags: HMW
HStem: 0 72<160 396> 339 73 628 71<310 443> 785 109<191.5 197 391 397.5>
VStem: 92 99<411 505.5> 127 116<826.5 851.5> 327 116<826.5 851.5>
LayerCount: 2
Fore
SplineSet
458 626 m 2,0,-1
 335 628 l 1,1,2
 233 628 233 628 193 621 c 1,3,4
 191 553 191 553 191 411 c 1,5,-1
 362 412 l 1,6,-1
 378.512535413 412.040371707 l 2,7,8
 475 412.040371707 475 412.040371707 475 396.520185853 c 128,-1,9
 475 381 475 381 468 362.5 c 128,-1,10
 461 344 461 344 452 341 c 128,-1,11
 443 338 443 338 414 338 c 2,12,-1
 193 339 l 1,13,14
 192 310 192 310 192 293 c 2,15,-1
 191 211.5 l 1,16,-1
 191 156.5 l 2,17,18
 191 90 191 90 194 84 c 0,19,20
 200 72 200 72 380 72 c 0,21,22
 442 72 442 72 469 75 c 1,23,-1
 511 83 l 1,24,25
 526 83 526 83 526 73.5 c 128,-1,26
 526 64 526 64 517 43 c 1,27,28
 507 9 507 9 503 6 c 0,29,30
 492 0 492 0 343 0 c 2,31,-1
 160 0 l 2,32,33
 106 0 106 0 97.5 7.5 c 128,-1,34
 89 15 89 15 89 136 c 1,35,-1
 92 493 l 1,36,-1
 93 574 l 1,37,-1
 92 649 l 2,38,39
 92 683 92 683 97.5 689 c 0,40,41
 105.75 698 105.75 698 155.5 698 c 2,42,-1
 297 700 l 1,43,-1
 429 699 l 2,44,45
 476.026614154 699 476.026614154 699 481.013307077 693.506351003 c 128,-1,46
 486 688.012702006 486 688.012702006 486 683 c 2,47,-1
 482 659 l 2,48,49
 481 654 481 654 481 647.5 c 128,-1,50
 481 641 481 641 480.5 638 c 128,-1,51
 480 635 480 635 478 631.5 c 0,52,53
 474.857142857 626 474.857142857 626 458 626 c 2,0,-1
140 874.5 m 128,-1,55
 153 890 153 890 166.5 892 c 128,-1,56
 180 894 180 894 201.5 894 c 0,57,58
 243 894 243 894 243 849 c 0,59,60
 243 785 243 785 178 785 c 0,61,62
 156 785 156 785 141.5 798.5 c 128,-1,63
 127 812 127 812 127 835.5 c 128,-1,54
 127 859 127 859 140 874.5 c 128,-1,55
340 874 m 128,-1,65
 353 890 353 890 367 892 c 128,-1,66
 381 894 381 894 401.5 894 c 0,67,68
 443 894 443 894 443 849 c 0,69,70
 443 785 443 785 379 785 c 0,71,72
 356 785 356 785 341.5 798.5 c 128,-1,73
 327 812 327 812 327 835 c 128,-1,64
 327 858 327 858 340 874 c 128,-1,65
EndSplineSet
EndChar

StartChar: Iacute
Encoding: 205 205 139
Width: 280
Flags: HMW
HStem: 0 21G<117.5 169> 778 21G<84.5 99.5> 913 20G<191.5 215.5>
VStem: 91 100<50.5 65 65 70.5 632 657.5>
LayerCount: 2
Fore
SplineSet
92.5 567.75 m 1,0,-1
 91 650 l 2,1,2
 91 690 91 690 95 698 c 0,3,4
 97 700 97 700 114 700 c 128,-1,5
 131 700 131 700 144 700 c 2,6,-1
 164 700 l 2,7,8
 184.714285714 700 184.714285714 700 187.857142857 694.5 c 128,-1,9
 191 689 191 689 191 683 c 2,10,-1
 191 441 l 1,11,-1
 192 283 l 1,12,-1
 191 174 l 1,13,-1
 191 65 l 2,14,15
 191 58 191 58 191.5 45.5 c 128,-1,16
 192 33 192 33 191.5 29.5 c 128,-1,17
 191 26 191 26 189.5 18.5 c 128,-1,18
 188 11 188 11 185 9.5 c 128,-1,19
 182 8 182 8 175.5 4.5 c 0,20,21
 167.142857143 -2.22044604925e-15 167.142857143 -2.22044604925e-15 136.571428571 -1.11022302463e-15 c 128,-1,22
 106 0 106 0 97.5 3.5 c 128,-1,23
 89 7 89 7 89 22 c 2,24,-1
 91 55 l 1,25,-1
 90 164 l 1,26,-1
 89 295 l 2,27,28
 88.4285714286 317.571428571 88.4285714286 317.571428571 88.4285714286 347.408163265 c 2,29,-1
 92.5 567.75 l 1,0,-1
233 843.5 m 128,-1,31
 206 819 206 819 166.5 798.5 c 128,-1,32
 127 778 127 778 92 778 c 0,33,34
 81 778 81 778 72 787 c 128,-1,35
 63 796 63 796 62 804 c 128,-1,36
 61 812 61 812 69.5 819 c 128,-1,37
 78 826 78 826 93.5 836 c 128,-1,38
 109 846 109 846 123.5 857 c 128,-1,39
 138 868 138 868 156 889.5 c 128,-1,40
 174 911 174 911 183.5 922 c 128,-1,41
 193 933 193 933 207 933 c 128,-1,42
 221 933 221 933 240.5 917.5 c 128,-1,43
 260 902 260 902 260 885 c 128,-1,30
 260 868 260 868 233 843.5 c 128,-1,31
EndSplineSet
EndChar

StartChar: Idieresis
Encoding: 207 207 141
Width: 280
Flags: HMW
HStem: 0 21G<117.5 169> 785 109<46.5 52 246 252.5>
VStem: -18 116<826.5 851.5> 91 100<50.5 65 65 70.5 632 657.5> 182 116<826.5 851.5>
LayerCount: 2
Fore
SplineSet
92.5 567.75 m 1,0,-1
 91 650 l 2,1,2
 91 690 91 690 95 698 c 0,3,4
 97 700 97 700 114 700 c 128,-1,5
 131 700 131 700 144 700 c 2,6,-1
 164 700 l 2,7,8
 184.714285714 700 184.714285714 700 187.857142857 694.5 c 128,-1,9
 191 689 191 689 191 683 c 2,10,-1
 191 441 l 1,11,-1
 192 283 l 1,12,-1
 191 174 l 1,13,-1
 191 65 l 2,14,15
 191 58 191 58 191.5 45.5 c 128,-1,16
 192 33 192 33 191.5 29.5 c 128,-1,17
 191 26 191 26 189.5 18.5 c 128,-1,18
 188 11 188 11 185 9.5 c 128,-1,19
 182 8 182 8 175.5 4.5 c 0,20,21
 167.142857143 -2.22044604925e-15 167.142857143 -2.22044604925e-15 136.571428571 -1.11022302463e-15 c 128,-1,22
 106 0 106 0 97.5 3.5 c 128,-1,23
 89 7 89 7 89 22 c 2,24,-1
 91 55 l 1,25,-1
 90 164 l 1,26,-1
 89 295 l 2,27,28
 88.4285714286 317.571428571 88.4285714286 317.571428571 88.4285714286 347.408163265 c 2,29,-1
 92.5 567.75 l 1,0,-1
-5 874.5 m 128,-1,31
 8 890 8 890 21.5 892 c 128,-1,32
 35 894 35 894 56.5 894 c 0,33,34
 98 894 98 894 98 849 c 0,35,36
 98 785 98 785 33 785 c 0,37,38
 11 785 11 785 -3.5 798.5 c 128,-1,39
 -18 812 -18 812 -18 835.5 c 128,-1,30
 -18 859 -18 859 -5 874.5 c 128,-1,31
195 874 m 128,-1,41
 208 890 208 890 222 892 c 128,-1,42
 236 894 236 894 256.5 894 c 0,43,44
 298 894 298 894 298 849 c 0,45,46
 298 785 298 785 234 785 c 0,47,48
 211 785 211 785 196.5 798.5 c 128,-1,49
 182 812 182 812 182 835 c 128,-1,40
 182 858 182 858 195 874 c 128,-1,41
EndSplineSet
EndChar

StartChar: Eth
Encoding: 208 208 142
Width: 766
Flags: HMW
HStem: 1 73<189 189> 258 67<190 286 190 316> 615 85
VStem: 88 102<227 257 257 257 326 326> 603 108<294.5 429.5>
LayerCount: 2
Fore
SplineSet
89 87 m 1,0,-1
 88 200 l 1,1,-1
 88 257 l 1,2,3
 78.3636363636 256.818181818 78.3636363636 256.818181818 55.1818181818 256.818181818 c 128,-1,4
 32 256.818181818 32 256.818181818 17 260.909090909 c 128,-1,5
 2 265 2 265 2 290.5 c 128,-1,6
 2 316 2 316 8 321 c 128,-1,7
 14 326 14 326 33 326 c 2,8,-1
 88 326 l 1,9,-1
 92 519.5 l 1,10,-1
 92 599.5 l 2,11,12
 92 691 92 691 102 695.5 c 128,-1,13
 112 700 112 700 214 700 c 0,14,15
 439 700 439 700 566 624 c 0,16,17
 711 538 711 538 711 358 c 0,18,19
 711 265 711 265 662.5 186.5 c 128,-1,20
 614 108 614 108 532 60 c 1,21,22
 425.492063492 0.936507936508 425.492063492 0.936507936508 203.669690098 0.936507936508 c 0,23,24
 196.396825397 0.936507936508 196.396825397 0.936507936508 189 1 c 2,25,26
 147.5 0 l 2,27,28
 120.4 0 120.4 0 113.2 3 c 128,-1,29
 106 6 106 6 100 9.5 c 0,30,31
 88 16.5 88 16.5 88 36 c 2,32,-1
 89 87 l 1,0,-1
190 258 m 1,33,-1
 189 74 l 1,34,35
 194.893238434 73.9430604982 194.893238434 73.9430604982 200.702587353 73.9430604982 c 0,36,37
 603 73.9430604982 603 73.9430604982 603 347 c 0,38,39
 603 567 603 567 365 610 c 0,40,41
 323.523809524 618.047619048 323.523809524 618.047619048 277.952380952 618.047619048 c 128,-1,42
 232.380952381 618.047619048 232.380952381 618.047619048 192 615 c 1,43,44
 190 611 190 611 190 576 c 2,45,-1
 190 325 l 1,46,-1
 316 325 l 2,47,48
 336 325 336 325 341 318 c 128,-1,49
 346 311 346 311 346 289 c 128,-1,50
 346 267 346 267 332.5 262.5 c 128,-1,51
 319 258 319 258 286 258 c 2,52,-1
 190 258 l 1,33,-1
EndSplineSet
EndChar

StartChar: Oacute
Encoding: 211 211 145
Width: 854
Flags: HMW
HStem: -12 83<350 514 350 526> 633 79<372 522.5> 778 21G<350.5 365.5> 913 20G<457.5 481.5>
VStem: 55 111<272 392.5> 709 90<275.5 439>
LayerCount: 2
Fore
SplineSet
55 341 m 0,0,1
 55 400 55 400 76 463 c 128,-1,2
 97 526 97 526 126.5 565.5 c 128,-1,3
 156 605 156 605 197 638.5 c 128,-1,4
 238 672 238 672 302 692 c 128,-1,5
 366 712 366 712 444 712 c 0,6,7
 594 712 594 712 696.5 618.5 c 128,-1,8
 799 525 799 525 799 360.5 c 128,-1,9
 799 196 799 196 690 92 c 128,-1,10
 581 -12 581 -12 427.5 -12 c 128,-1,11
 274 -12 274 -12 164.5 87 c 128,-1,12
 55 186 55 186 55 341 c 0,0,1
247 558 m 128,-1,14
 166 483 166 483 166 356 c 128,-1,15
 166 229 166 229 238.5 150 c 128,-1,16
 311 71 311 71 433.5 71 c 128,-1,17
 556 71 556 71 632.5 151.5 c 128,-1,18
 709 232 709 232 709 354 c 128,-1,19
 709 476 709 476 633.5 554.5 c 128,-1,20
 558 633 558 633 455 633 c 0,21,13
 328 633 328 633 247 558 c 128,-1,14
499 843.5 m 128,-1,23
 472 819 472 819 432.5 798.5 c 128,-1,24
 393 778 393 778 358 778 c 0,25,26
 347 778 347 778 338 787 c 128,-1,27
 329 796 329 796 328 804 c 128,-1,28
 327 812 327 812 335.5 819 c 128,-1,29
 344 826 344 826 359.5 836 c 128,-1,30
 375 846 375 846 389.5 857 c 128,-1,31
 404 868 404 868 422 889.5 c 128,-1,32
 440 911 440 911 449.5 922 c 128,-1,33
 459 933 459 933 473 933 c 128,-1,34
 487 933 487 933 506.5 917.5 c 128,-1,35
 526 902 526 902 526 885 c 128,-1,22
 526 868 526 868 499 843.5 c 128,-1,23
EndSplineSet
EndChar

StartChar: Otilde
Encoding: 213 213 147
Width: 854
Flags: HMW
HStem: -12 83<350 514 350 526> 633 79<372 522.5> 785 21G<257 272.5> 790 68<503.5 539> 840 71<316.5 368>
VStem: 55 111<272 392.5> 709 90<275.5 439>
LayerCount: 2
Fore
SplineSet
55 341 m 0,0,1
 55 400 55 400 76 463 c 128,-1,2
 97 526 97 526 126.5 565.5 c 128,-1,3
 156 605 156 605 197 638.5 c 128,-1,4
 238 672 238 672 302 692 c 128,-1,5
 366 712 366 712 444 712 c 0,6,7
 594 712 594 712 696.5 618.5 c 128,-1,8
 799 525 799 525 799 360.5 c 128,-1,9
 799 196 799 196 690 92 c 128,-1,10
 581 -12 581 -12 427.5 -12 c 128,-1,11
 274 -12 274 -12 164.5 87 c 128,-1,12
 55 186 55 186 55 341 c 0,0,1
247 558 m 128,-1,14
 166 483 166 483 166 356 c 128,-1,15
 166 229 166 229 238.5 150 c 128,-1,16
 311 71 311 71 433.5 71 c 128,-1,17
 556 71 556 71 632.5 151.5 c 128,-1,18
 709 232 709 232 709 354 c 128,-1,19
 709 476 709 476 633.5 554.5 c 128,-1,20
 558 633 558 633 455 633 c 0,21,13
 328 633 328 633 247 558 c 128,-1,14
358 911 m 0,22,23
 392 911 392 911 448.5 884.5 c 128,-1,24
 505 858 505 858 526 858 c 128,-1,25
 547 858 547 858 560.5 870.5 c 128,-1,26
 574 883 574 883 581.5 895.5 c 128,-1,27
 589 908 589 908 596.5 908 c 128,-1,28
 604 908 604 908 610.5 902.5 c 128,-1,29
 617 897 617 897 617 891 c 0,30,31
 617 865 617 865 584 827.5 c 128,-1,32
 551 790 551 790 503 790 c 0,33,34
 471 790 471 790 419.5 815 c 128,-1,35
 368 840 368 840 341.5 840 c 128,-1,36
 315 840 315 840 302.5 831.5 c 128,-1,37
 290 823 290 823 285 812.5 c 0,38,39
 271.904761905 785 271.904761905 785 260 785 c 0,40,41
 253 785 253 785 245 789 c 128,-1,42
 237 793 237 793 237 801 c 0,43,44
 237 826 237 826 270.5 868.5 c 128,-1,45
 304 911 304 911 358 911 c 0,22,23
EndSplineSet
EndChar

